M48
; DRILL file {KiCad 9.0.2-9.0.2-0~ubuntu24.04.1} date 2025-07-21T15:48:50-0400
; FORMAT={-:-/ absolute / metric / decimal}
; #@! TF.CreationDate,2025-07-21T15:48:50-04:00
; #@! TF.GenerationSoftware,Kicad,Pcbnew,9.0.2-9.0.2-0~ubuntu24.04.1
; #@! TF.FileFunction,Plated,1,4,PTH
FMAT,2
METRIC
; #@! TA.AperFunction,Plated,PTH,ComponentDrill
T1C0.200
; #@! TA.AperFunction,Plated,PTH,ViaDrill
T2C0.300
; #@! TA.AperFunction,Plated,PTH,ComponentDrill
T3C0.600
; #@! TA.AperFunction,Plated,PTH,ComponentDrill
T4C1.000
; #@! TA.AperFunction,Plated,PTH,ComponentDrill
T5C4.300
%
G90
G05
T1
X85.79Y-114.0
X85.79Y-115.0
X85.79Y-116.0
X85.79Y-124.0
X85.79Y-125.0
X85.79Y-126.0
X86.79Y-114.0
X86.79Y-115.0
X86.79Y-116.0
X86.79Y-124.0
X86.79Y-125.0
X86.79Y-126.0
X87.79Y-114.0
X87.79Y-115.0
X87.79Y-116.0
X87.79Y-124.0
X87.79Y-125.0
X87.79Y-126.0
T2
X54.0Y-60.0
X54.0Y-62.5
X54.0Y-65.0
X54.0Y-67.5
X54.0Y-70.0
X54.0Y-72.5
X54.0Y-90.0
X54.0Y-92.5
X54.0Y-110.0
X54.0Y-112.5
X54.0Y-115.0
X54.0Y-117.5
X54.0Y-120.0
X54.0Y-122.5
X54.0Y-125.0
X54.0Y-127.5
X54.0Y-130.0
X54.0Y-132.5
X54.0Y-135.0
X54.0Y-137.5
X54.0Y-140.0
X54.5Y-58.0
X54.5Y-75.0
X54.5Y-77.5
X54.5Y-80.0
X54.5Y-82.5
X54.5Y-85.0
X54.5Y-87.5
X54.5Y-95.0
X54.5Y-97.5
X54.5Y-100.0
X54.5Y-102.5
X54.5Y-105.0
X54.5Y-107.5
X54.5Y-142.5
X55.5Y-56.0
X55.5Y-144.5
X56.0Y-64.5
X56.0Y-137.5
X56.5Y-118.0
X56.5Y-134.0
X57.0Y-74.0
X57.0Y-89.0
X57.0Y-107.0
X57.0Y-110.0
X57.0Y-116.5
X57.0Y-141.5
X57.5Y-59.0
X57.5Y-71.5
X57.5Y-82.0
X57.5Y-97.5
X57.5Y-102.5
X57.5Y-118.0
X58.0Y-116.5
X58.0Y-129.0
X58.4Y-134.0
X58.4Y-135.0
X58.4Y-136.0
X58.5Y-78.0
X58.5Y-118.0
X58.5Y-122.0
X58.5Y-123.0
X58.5Y-124.0
X58.5Y-125.0
X58.5Y-126.0
X58.6Y-133.2
X58.6Y-136.8
X59.0Y-75.0
X59.0Y-76.0
X59.0Y-90.0
X59.0Y-91.0
X59.0Y-92.0
X59.0Y-93.0
X59.0Y-94.0
X59.0Y-108.0
X59.0Y-109.0
X59.0Y-116.5
X59.5Y-118.0
X60.0Y-75.0
X60.0Y-80.0
X60.0Y-85.0
X60.0Y-90.0
X60.0Y-95.0
X60.0Y-100.0
X60.0Y-110.0
X60.0Y-125.0
X60.0Y-127.0
X60.5Y-126.0
X61.0Y-72.0
X61.2Y-132.4
X61.2Y-137.6
X61.25Y-58.0
X61.5Y-98.0
X61.7Y-115.2
X61.8Y-117.7
X61.8Y-133.0
X61.8Y-137.0
X61.9Y-122.1
X62.2Y-117.1
X62.3Y-132.4
X62.4Y-122.9
X62.5Y-51.0
X62.5Y-103.5
X62.5Y-149.0
X62.8Y-137.6
X62.9Y-122.1
X62.9Y-133.0
X63.0Y-106.25
X63.25Y-70.5
X63.4Y-122.9
X63.5Y-117.0
X63.5Y-118.0
X63.75Y-73.5
X63.9Y-122.1
X64.0Y-59.5
X64.0Y-79.0
X64.0Y-82.5
X64.0Y-86.5
X64.0Y-92.0
X64.0Y-116.5
X64.0Y-117.5
X64.0Y-118.5
X64.0Y-142.0
X64.5Y-117.0
X64.5Y-134.0
X64.5Y-135.0
X64.75Y-77.75
X64.75Y-97.0
X65.0Y-51.0
X65.0Y-55.0
X65.0Y-116.5
X65.0Y-145.0
X65.0Y-149.0
X65.2Y-98.6
X65.25Y-103.75
X65.75Y-100.5
X66.0Y-131.5
X66.25Y-64.0
X66.5Y-56.25
X66.5Y-116.5
X66.5Y-133.0
X66.55Y-80.85
X66.55Y-83.05
X66.625Y-134.5
X66.65Y-98.85
X66.75Y-59.5
X67.0Y-118.0
X67.15Y-137.55
X67.4Y-86.6
X67.5Y-51.0
X67.5Y-116.5
X67.5Y-122.0
X67.5Y-123.0
X67.5Y-124.0
X67.5Y-125.0
X67.5Y-126.0
X67.5Y-149.0
X67.85Y-136.95
X68.0Y-56.5
X68.0Y-58.25
X68.0Y-118.0
X68.075Y-131.075
X68.2Y-92.6
X68.25Y-61.75
X68.4Y-91.0
X68.5Y-116.5
X68.5Y-137.525
X68.85Y-101.05
X68.85Y-102.15
X69.0Y-80.0
X69.0Y-98.0
X69.0Y-118.0
X69.0Y-122.0
X69.0Y-124.0
X69.0Y-126.0
X69.275Y-136.95
X69.4Y-79.0
X69.4Y-91.8
X69.5Y-99.95
X69.5Y-123.0
X69.5Y-125.0
X69.5Y-127.0
X69.702Y-92.939
X69.75Y-74.75
X69.8Y-77.6
X69.975Y-131.426
X70.0Y-51.0
X70.0Y-60.0
X70.0Y-70.0
X70.0Y-96.0
X70.0Y-110.0
X70.0Y-130.5
X70.0Y-140.0
X70.0Y-145.0
X70.0Y-149.0
X70.2Y-115.2
X70.3Y-117.7
X70.4Y-80.4
X70.4Y-85.8
X70.5Y-93.0
X70.6Y-77.2
X70.7Y-117.1
X70.7Y-122.0
X70.75Y-83.65
X71.2Y-122.8
X71.5Y-75.5
X71.5Y-105.5
X71.5Y-134.0
X71.575Y-130.5
X71.6Y-122.0
X72.0Y-93.75
X72.0Y-117.0
X72.0Y-118.0
X72.2Y-122.8
X72.49Y-130.5
X72.5Y-51.0
X72.5Y-96.0
X72.5Y-97.5
X72.5Y-116.5
X72.5Y-117.5
X72.5Y-118.5
X72.5Y-149.0
X72.8Y-77.2
X73.0Y-107.5
X73.0Y-117.0
X73.1Y-99.8
X73.2Y-79.8
X73.2Y-83.2
X73.25Y-87.5
X73.35Y-101.15
X73.4Y-78.2
X73.5Y-116.5
X73.8Y-81.2
X74.0Y-122.0
X74.25Y-92.25
X74.3Y-58.0
X74.5Y-97.0
X74.5Y-122.5
X75.0Y-51.0
X75.0Y-70.0
X75.0Y-75.0
X75.0Y-80.0
X75.0Y-85.0
X75.0Y-99.75
X75.0Y-110.0
X75.0Y-116.5
X75.0Y-122.0
X75.0Y-140.0
X75.0Y-145.0
X75.0Y-149.0
X75.5Y-118.0
X75.5Y-122.5
X75.9Y-59.5
X76.0Y-82.2
X76.0Y-116.5
X76.0Y-122.0
X76.0Y-128.0
X76.1Y-97.7
X76.25Y-92.25
X76.25Y-101.05
X76.4Y-94.6
X76.5Y-107.75
X76.5Y-118.0
X76.6Y-57.7
X76.6Y-88.4
X77.0Y-116.5
X77.25Y-91.25
X77.5Y-51.0
X77.5Y-96.0
X77.5Y-100.0
X77.5Y-106.25
X77.5Y-118.0
X77.5Y-131.5
X77.5Y-133.02
X77.5Y-134.0
X77.5Y-135.51
X77.5Y-138.01
X77.5Y-149.0
X77.95Y-92.4
X78.0Y-77.25
X78.0Y-122.0
X78.0Y-124.0
X78.0Y-126.0
X78.0Y-129.0
X78.3Y-59.4
X78.5Y-123.0
X78.5Y-125.0
X78.5Y-127.0
X78.6Y-97.2
X78.6Y-98.4
X78.7Y-84.75
X78.77Y-85.58
X79.0Y-88.5
X79.004Y-95.29
X79.3Y-115.2
X79.4Y-117.7
X79.5Y-58.2
X79.7Y-122.1
X79.75Y-101.5
X79.8Y-117.1
X80.0Y-51.0
X80.0Y-70.0
X80.0Y-75.0
X80.0Y-110.0
X80.0Y-130.0
X80.0Y-140.0
X80.0Y-145.0
X80.0Y-149.0
X80.004Y-86.0
X80.173Y-93.393
X80.2Y-91.4
X80.2Y-92.4
X80.2Y-122.9
X80.25Y-89.25
X80.4Y-80.45
X80.7Y-122.1
X80.75Y-103.25
X80.75Y-105.75
X80.9Y-59.4
X80.934Y-94.401
X80.946Y-93.601
X80.946Y-95.201
X81.0Y-99.5
X81.0Y-117.0
X81.0Y-118.0
X81.0Y-129.0
X81.2Y-122.9
X81.25Y-86.75
X81.4Y-57.6
X81.5Y-80.75
X81.5Y-116.5
X81.5Y-117.5
X81.5Y-118.5
X81.7Y-122.1
X81.75Y-75.5
X81.75Y-102.5
X81.95Y-101.55
X82.0Y-88.0
X82.0Y-117.0
X82.0Y-118.0
X82.2Y-98.4
X82.308Y-99.782
X82.5Y-51.0
X82.5Y-77.0
X82.5Y-116.5
X82.5Y-117.5
X82.5Y-118.5
X82.5Y-149.0
X82.75Y-80.5
X82.75Y-86.25
X82.8Y-93.02
X82.8Y-94.2
X82.8Y-95.4
X83.0Y-112.6
X83.0Y-124.8
X83.0Y-127.0
X83.0Y-132.0
X83.0Y-138.0
X83.1Y-59.0
X83.147Y-99.796
X83.2Y-122.6
X83.884Y-99.484
X84.0Y-112.6
X84.0Y-118.0
X84.0Y-119.0
X84.0Y-120.0
X84.0Y-128.0
X84.0Y-129.0
X84.0Y-130.0
X84.2Y-57.7
X84.4Y-117.0
X84.5Y-77.5
X84.55Y-87.225
X84.6Y-92.35
X84.6Y-111.0
X84.8Y-81.35
X84.85Y-95.2
X84.911Y-89.99
X85.0Y-51.0
X85.0Y-70.0
X85.0Y-88.98
X85.0Y-110.0
X85.0Y-135.0
X85.0Y-140.0
X85.0Y-145.0
X85.0Y-149.0
X85.15Y-95.8
X85.15Y-105.2
X85.2Y-58.5
X85.2Y-121.2
X85.4Y-86.675
X85.45Y-92.35
X85.6Y-130.8
X85.7Y-95.2
X85.9Y-100.57
X86.0Y-95.8
X86.0Y-132.0
X86.0Y-134.0
X86.0Y-136.0
X86.0Y-138.0
X86.4Y-110.6
X86.9Y-57.7
X86.9Y-100.57
X86.9Y-105.1
X87.088Y-102.589
X87.5Y-51.0
X87.5Y-149.0
X87.824Y-92.788
X87.884Y-89.684
X87.918Y-95.791
X88.222Y-99.378
X88.25Y-86.75
X88.4Y-110.4
X89.0Y-118.0
X89.0Y-119.0
X89.0Y-120.0
X89.0Y-128.0
X89.0Y-129.0
X89.0Y-130.0
X89.2Y-57.6
X89.5Y-118.5
X89.5Y-119.5
X89.5Y-128.5
X89.5Y-129.5
X89.6Y-89.0
X89.684Y-92.784
X90.0Y-51.0
X90.0Y-70.0
X90.0Y-75.0
X90.0Y-80.0
X90.0Y-85.0
X90.0Y-99.0
X90.0Y-110.0
X90.0Y-118.0
X90.0Y-119.0
X90.0Y-128.0
X90.0Y-129.0
X90.0Y-140.0
X90.0Y-145.0
X90.0Y-149.0
X90.25Y-87.0
X90.4Y-114.4
X90.5Y-118.5
X90.5Y-128.5
X90.694Y-102.872
X90.8Y-60.3
X91.0Y-88.25
X91.0Y-90.9
X91.0Y-100.0
X91.0Y-115.0
X91.0Y-118.0
X91.0Y-120.0
X91.0Y-125.0
X91.0Y-128.0
X91.0Y-130.0
X91.75Y-107.75
X92.0Y-132.0
X92.0Y-136.0
X92.2Y-61.8
X92.2Y-118.4
X92.2Y-119.4
X92.2Y-122.8
X92.2Y-128.8
X92.4Y-113.0
X92.4Y-114.6
X92.5Y-51.0
X92.5Y-149.0
X93.0Y-91.5
X93.0Y-125.0
X93.2Y-95.8
X93.424Y-94.611
X93.5Y-98.6
X93.5Y-105.5
X93.8Y-63.3
X93.8Y-114.8
X93.8Y-116.4
X93.8Y-118.0
X94.0Y-76.6
X94.0Y-103.0
X94.0Y-127.8
X94.2Y-126.2
X94.244Y-94.273
X94.5Y-99.0
X94.8Y-113.6
X94.95Y-95.8
X95.0Y-51.0
X95.0Y-80.0
X95.0Y-85.0
X95.0Y-110.0
X95.0Y-121.0
X95.0Y-125.0
X95.0Y-130.0
X95.0Y-135.0
X95.0Y-140.0
X95.0Y-149.0
X95.121Y-59.979
X95.2Y-99.6
X95.2Y-115.6
X95.2Y-117.2
X95.3Y-100.496
X95.886Y-101.084
X96.0Y-80.0
X96.0Y-82.0
X96.0Y-84.0
X96.0Y-86.0
X96.0Y-88.0
X96.0Y-90.0
X96.0Y-96.5
X96.0Y-122.0
X96.0Y-123.0
X96.0Y-124.0
X96.007Y-95.527
X96.068Y-70.997
X96.4Y-59.4
X96.416Y-101.684
X97.0Y-106.0
X97.0Y-120.0
X97.016Y-102.284
X97.375Y-67.02
X97.375Y-70.98
X97.5Y-51.0
X97.5Y-149.0
X97.9Y-103.1
X98.0Y-80.0
X98.0Y-86.0
X98.0Y-124.0
X98.4Y-59.3
X98.4Y-94.7
X98.675Y-67.02
X98.675Y-70.98
X99.0Y-82.0
X99.0Y-88.0
X99.0Y-94.0
X99.0Y-95.5
X99.0Y-108.0
X99.0Y-127.0
X99.0Y-130.0
X99.0Y-133.0
X99.0Y-136.0
X99.0Y-139.0
X99.0Y-142.0
X99.0Y-145.0
X99.4Y-116.8
X99.4Y-124.0
X99.9Y-105.1
X99.975Y-67.02
X99.975Y-70.98
X100.0Y-51.0
X100.0Y-80.0
X100.0Y-86.0
X100.0Y-149.0
X100.6Y-105.7
X101.0Y-108.5
X101.0Y-120.0
X101.0Y-121.0
X101.0Y-127.0
X101.0Y-133.0
X101.0Y-139.0
X101.0Y-145.0
X101.275Y-67.02
X101.5Y-105.8
X101.8Y-57.4
X102.0Y-80.0
X102.0Y-82.0
X102.0Y-84.0
X102.0Y-88.0
X102.0Y-90.0
X102.0Y-94.0
X102.0Y-95.0
X102.0Y-96.0
X102.1Y-67.8
X102.342Y-78.158
X102.5Y-51.0
X102.5Y-108.5
X102.5Y-149.0
X102.573Y-69.086
X102.65Y-99.25
X102.7Y-58.3
X103.0Y-85.0
X103.0Y-97.0
X103.0Y-127.0
X103.0Y-133.0
X103.0Y-139.0
X103.0Y-145.0
X103.25Y-112.0
X103.3Y-102.05
X103.4Y-74.3
X103.6Y-59.1
X104.0Y-80.0
X104.0Y-108.5
X104.25Y-60.3
X104.5Y-57.7
X105.0Y-51.0
X105.0Y-82.0
X105.0Y-85.0
X105.0Y-88.0
X105.0Y-94.0
X105.0Y-95.5
X105.0Y-149.0
X105.075Y-70.963
X105.1Y-92.8
X105.5Y-125.0
X105.5Y-131.0
X105.5Y-137.0
X105.5Y-143.0
X105.7Y-58.8
X105.7Y-105.8
X105.8Y-93.2
X106.15Y-102.6
X106.3Y-96.7
X106.305Y-114.3
X106.305Y-115.2
X106.305Y-116.8
X106.305Y-117.7
X106.375Y-67.02
X106.375Y-70.98
X106.525Y-99.3
X106.9Y-97.8
X107.0Y-78.2
X107.0Y-105.8
X107.5Y-51.0
X107.5Y-126.5
X107.5Y-132.5
X107.5Y-138.5
X107.5Y-144.5
X107.5Y-149.0
X107.675Y-67.02
X107.675Y-70.98
X107.9Y-96.4
X107.9Y-108.1
X107.95Y-102.6
X108.0Y-83.0
X108.1Y-105.8
X108.2Y-79.2
X108.41Y-98.528
X108.5Y-113.5
X108.724Y-103.311
X108.975Y-67.02
X108.975Y-70.98
X109.0Y-85.0
X109.0Y-89.0
X109.0Y-115.25
X109.1Y-109.3
X109.104Y-105.735
X109.25Y-119.0
X109.6Y-58.0
X109.6Y-59.0
X109.8Y-108.1
X109.95Y-95.3
X110.0Y-51.0
X110.0Y-76.1
X110.0Y-83.0
X110.0Y-90.0
X110.0Y-149.0
X110.275Y-67.02
X110.5Y-115.25
X110.55Y-93.8
X110.6Y-57.4
X110.95Y-94.9
X111.0Y-85.0
X111.0Y-127.0
X111.0Y-129.0
X111.0Y-133.0
X111.0Y-135.0
X111.0Y-139.0
X111.0Y-141.0
X111.0Y-145.0
X111.1Y-108.1
X111.4Y-94.05
X111.7Y-112.0
X111.804Y-76.128
X111.95Y-95.1
X112.0Y-58.2
X112.0Y-83.0
X112.0Y-89.0
X112.0Y-110.8
X112.0Y-128.0
X112.0Y-134.0
X112.0Y-140.0
X112.2Y-59.4
X112.5Y-51.0
X112.5Y-62.5
X112.5Y-64.4
X112.5Y-65.6
X112.5Y-66.8
X112.5Y-69.2
X112.5Y-149.0
X112.53Y-102.448
X112.573Y-60.8
X112.9Y-93.377
X112.9Y-103.3
X112.9Y-111.1
X112.95Y-94.55
X112.95Y-112.211
X113.0Y-85.0
X113.0Y-90.0
X113.0Y-117.5
X113.0Y-119.0
X113.0Y-126.0
X113.0Y-127.0
X113.0Y-132.0
X113.0Y-138.0
X113.0Y-143.0
X113.0Y-145.0
X114.0Y-83.0
X114.0Y-115.25
X114.0Y-141.0
X114.068Y-70.997
X114.6Y-109.4
X115.0Y-51.0
X115.0Y-85.0
X115.0Y-87.0
X115.0Y-115.5
X115.0Y-129.0
X115.0Y-149.0
X115.1Y-112.0
X115.375Y-67.02
X115.375Y-70.98
X115.6Y-58.4
X115.6Y-109.6
X115.7Y-97.9
X115.75Y-114.5
X115.85Y-100.55
X115.85Y-101.95
X116.0Y-84.0
X116.0Y-104.8
X116.25Y-106.45
X116.4Y-57.6
X116.483Y-99.832
X116.5Y-117.5
X116.675Y-67.02
X116.675Y-70.98
X116.75Y-111.714
X117.0Y-86.0
X117.0Y-87.0
X117.0Y-92.789
X117.0Y-126.0
X117.0Y-138.0
X117.0Y-141.0
X117.25Y-109.611
X117.3Y-59.3
X117.3Y-100.75
X117.4Y-94.573
X117.5Y-51.0
X117.5Y-81.0
X117.5Y-82.0
X117.5Y-83.0
X117.5Y-84.0
X117.5Y-149.0
X117.6Y-106.8
X117.7Y-90.8
X117.75Y-111.714
X117.975Y-67.02
X117.975Y-70.98
X118.0Y-99.125
X118.0Y-105.3
X118.3Y-58.2
X118.5Y-137.5
X118.7Y-109.1
X118.9Y-70.3
X118.9Y-104.3
X119.0Y-94.75
X119.0Y-99.7
X119.0Y-105.875
X119.0Y-108.0
X119.0Y-115.75
X119.0Y-119.0
X119.1Y-85.25
X119.1Y-93.0
X119.25Y-90.389
X119.275Y-67.02
X119.5Y-102.6
X120.0Y-51.0
X120.0Y-90.8
X120.0Y-95.2
X120.0Y-99.125
X120.0Y-105.3
X120.0Y-126.0
X120.0Y-141.0
X120.0Y-149.0
X120.059Y-137.986
X120.7Y-114.2
X120.8Y-100.2
X120.9Y-95.1
X121.0Y-93.1
X121.0Y-105.875
X121.05Y-85.15
X121.1Y-104.0
X121.2Y-130.4
X121.4Y-62.3
X121.4Y-64.4
X121.5Y-70.127
X121.5Y-78.5
X121.5Y-79.5
X121.5Y-80.5
X121.5Y-81.5
X121.5Y-117.5
X121.5Y-119.0
X121.6Y-102.0
X121.7Y-90.8
X121.7Y-114.2
X122.0Y-60.75
X122.0Y-95.25
X122.0Y-105.3
X122.0Y-127.0
X122.0Y-131.0
X122.0Y-132.0
X122.0Y-136.0
X122.242Y-66.138
X122.379Y-106.004
X122.5Y-51.0
X122.5Y-98.0
X122.5Y-149.0
X122.6Y-99.0
X122.7Y-59.4
X122.7Y-114.2
X122.8Y-90.8
X122.9Y-93.8
X123.0Y-94.75
X123.0Y-102.5
X123.0Y-104.5
X123.0Y-123.0
X123.0Y-138.0
X123.2Y-70.2
X123.2Y-115.7
X123.25Y-143.75
X123.5Y-114.3
X123.6Y-139.4
X123.725Y-70.98
X123.8Y-137.2
X124.0Y-78.5
X124.0Y-79.5
X124.0Y-80.5
X124.0Y-81.5
X124.0Y-95.25
X124.0Y-97.4
X124.0Y-105.3
X124.1Y-99.0
X124.1Y-101.0
X124.2Y-115.1
X124.3Y-57.4
X125.0Y-51.0
X125.0Y-105.875
X125.0Y-128.0
X125.0Y-149.0
X125.025Y-67.02
X125.025Y-70.98
X125.1Y-90.65
X125.2Y-115.7
X125.3Y-97.4
X125.3Y-98.6
X125.3Y-101.9
X125.3Y-102.8
X125.4Y-141.4
X125.7Y-59.5
X125.7Y-131.805
X125.8Y-114.8
X126.0Y-105.3
X126.0Y-139.8
X126.2Y-135.8
X126.25Y-130.5
X126.25Y-142.5
X126.325Y-67.02
X126.5Y-94.125
X126.5Y-109.0
X126.5Y-117.75
X126.55Y-90.65
X126.6Y-97.6
X126.6Y-102.6
X126.7Y-96.55
X126.7Y-57.8
X126.7Y-131.8
X126.877Y-111.9
X127.0Y-78.5
X127.0Y-79.5
X127.0Y-80.5
X127.0Y-81.5
X127.0Y-105.875
X127.05Y-101.273
X127.1Y-92.789
X127.1Y-107.6
X127.3Y-103.5
X127.334Y-70.216
X127.4Y-98.8
X127.5Y-51.0
X127.5Y-95.875
X127.5Y-149.0
X127.625Y-67.02
X127.625Y-70.98
X128.0Y-112.0
X128.0Y-114.8
X128.0Y-119.25
X128.0Y-127.5
X128.0Y-137.6
X128.3Y-131.805
X128.75Y-124.25
X128.75Y-130.75
X128.75Y-133.75
X128.75Y-142.5
X128.8Y-134.8
X128.8Y-136.4
X128.928Y-67.014
X129.0Y-137.6
X129.013Y-109.447
X129.054Y-112.054
X129.2Y-131.8
X129.25Y-115.75
X129.373Y-78.1
X129.5Y-58.75
X129.5Y-117.5
X129.588Y-108.82
X129.6Y-140.8
X129.9Y-90.6
X129.9Y-102.6
X130.0Y-51.0
X130.0Y-82.8
X130.0Y-93.0
X130.0Y-105.3
X130.0Y-115.0
X130.0Y-120.0
X130.0Y-127.0
X130.0Y-149.0
X130.2Y-137.6
X130.4Y-95.1
X130.4Y-98.7
X130.5Y-65.5
X130.5Y-75.0
X130.5Y-76.0
X130.5Y-108.5
X130.55Y-114.25
X130.573Y-77.0
X130.6Y-112.0
X130.75Y-63.0
X131.0Y-104.5
X131.25Y-59.5
X131.4Y-100.9
X131.4Y-135.6
X131.5Y-85.25
X131.5Y-96.9
X131.5Y-108.5
X131.6Y-141.6
X131.8Y-93.6
X131.8Y-140.0
X132.0Y-67.5
X132.0Y-68.5
X132.0Y-69.5
X132.0Y-70.5
X132.0Y-105.3
X132.0Y-106.6
X132.0Y-107.4
X132.0Y-114.2
X132.0Y-130.5
X132.2Y-102.4
X132.2Y-132.8
X132.5Y-51.0
X132.5Y-66.25
X132.5Y-108.5
X132.5Y-149.0
X132.75Y-62.5
X132.75Y-118.25
X133.0Y-112.0
X133.0Y-129.25
X133.2Y-90.7
X133.4Y-101.0
X133.4Y-115.0
X133.5Y-65.0
X133.5Y-93.25
X133.5Y-96.75
X133.5Y-98.75
X133.5Y-108.5
X133.5Y-122.75
X133.6Y-138.8
X133.8Y-134.8
X134.0Y-109.2
X134.0Y-128.0
X134.25Y-64.5
X134.3Y-104.6
X134.3Y-106.0
X134.5Y-67.0
X134.8Y-110.8
X134.8Y-111.8
X134.8Y-138.0
X135.0Y-51.0
X135.0Y-60.0
X135.0Y-114.25
X135.0Y-120.0
X135.0Y-127.25
X135.0Y-140.0
X135.0Y-149.0
X135.731Y-136.477
X135.953Y-131.785
X136.0Y-63.0
X136.0Y-109.4
X136.2Y-111.8
X136.25Y-68.0
X136.5Y-65.25
X136.5Y-126.5
X136.75Y-88.0
X136.998Y-137.576
X137.0Y-62.25
X137.0Y-84.5
X137.0Y-90.4
X137.0Y-109.0
X137.0Y-124.5
X137.15Y-96.95
X137.5Y-51.0
X137.5Y-131.0
X137.5Y-149.0
X137.6Y-115.2
X137.75Y-67.75
X137.8Y-110.0
X138.0Y-123.5
X138.0Y-130.0
X138.2Y-89.6
X138.25Y-86.75
X138.25Y-118.25
X138.5Y-69.25
X138.5Y-85.0
X138.5Y-124.5
X138.75Y-63.5
X138.75Y-136.58
X138.8Y-112.2
X138.8Y-114.2
X138.918Y-138.946
X139.0Y-61.0
X139.2Y-88.8
X139.6Y-97.5
X139.7Y-99.55
X139.75Y-64.75
X139.849Y-135.313
X140.0Y-51.0
X140.0Y-75.0
X140.0Y-80.0
X140.0Y-85.0
X140.0Y-96.0
X140.0Y-112.0
X140.0Y-115.0
X140.0Y-122.5
X140.0Y-149.0
X140.25Y-68.5
X140.3Y-98.95
X140.4Y-111.0
X140.75Y-136.25
X140.8Y-86.5
X140.839Y-140.315
X141.0Y-59.75
X141.0Y-121.25
X141.0Y-127.5
X141.2Y-88.8
X141.25Y-61.75
X141.324Y-138.22
X141.45Y-100.5
X141.5Y-96.0
X141.5Y-126.5
X141.914Y-140.952
X142.0Y-63.25
X142.0Y-72.5
X142.096Y-136.818
X142.5Y-51.0
X142.5Y-59.0
X142.5Y-74.0
X142.5Y-128.5
X142.5Y-149.0
X142.6Y-88.8
X142.7Y-100.65
X142.8Y-111.0
X143.0Y-127.0
X143.25Y-96.75
X143.75Y-58.25
X143.75Y-60.25
X143.802Y-139.629
X143.97Y-141.995
X144.0Y-70.0
X144.0Y-74.5
X144.0Y-124.0
X144.1Y-129.9
X144.2Y-88.8
X144.719Y-142.496
X144.75Y-57.75
X145.0Y-51.0
X145.0Y-55.0
X145.0Y-80.0
X145.0Y-85.0
X145.0Y-96.0
X145.0Y-103.2
X145.0Y-115.0
X145.0Y-120.0
X145.0Y-145.0
X145.0Y-149.0
X145.25Y-62.75
X145.369Y-134.921
X145.5Y-63.75
X145.5Y-64.75
X145.6Y-88.8
X145.6Y-111.0
X145.633Y-137.517
X146.0Y-76.0
X146.0Y-124.0
X146.184Y-140.807
X146.2Y-103.8
X146.25Y-59.0
X146.25Y-96.75
X146.438Y-138.807
X146.6Y-130.8
X146.732Y-136.25
X146.75Y-61.0
X147.2Y-88.8
X147.5Y-51.0
X147.5Y-78.0
X147.5Y-149.0
X147.6Y-103.2
X147.8Y-130.8
X148.0Y-96.0
X148.5Y-127.0
X148.5Y-128.0
X148.6Y-88.8
X148.6Y-111.0
X149.0Y-70.0
X149.0Y-73.5
X149.0Y-103.8
X149.0Y-120.0
X149.0Y-128.75
X149.0Y-133.0
X149.1Y-72.0
X149.25Y-127.25
X149.267Y-142.25
X149.292Y-55.61
X149.4Y-130.8
X149.444Y-144.194
X149.45Y-57.84
X149.5Y-74.5
X149.5Y-96.75
X150.0Y-51.0
X150.0Y-73.0
X150.0Y-85.0
X150.0Y-115.0
X150.0Y-124.0
X150.0Y-149.0
X150.176Y-55.435
X150.328Y-140.482
X150.4Y-103.2
X150.4Y-111.0
X150.504Y-144.548
X150.6Y-88.2
X150.684Y-59.434
X150.961Y-73.252
X151.0Y-66.0
X151.0Y-71.5
X151.0Y-76.5
X151.0Y-81.5
X151.0Y-119.0
X151.0Y-124.5
X151.25Y-96.0
X151.25Y-128.75
X151.6Y-111.8
X151.8Y-103.8
X151.919Y-143.134
X151.919Y-144.901
X151.968Y-56.989
X152.0Y-133.0
X152.166Y-59.777
X152.285Y-61.45
X152.367Y-54.719
X152.4Y-87.8
X152.5Y-51.0
X152.5Y-75.3
X152.5Y-96.75
X152.5Y-149.0
X152.501Y-124.741
X152.626Y-140.305
X152.999Y-127.034
X153.0Y-71.5
X153.0Y-82.5
X153.0Y-118.0
X153.0Y-128.5
X153.001Y-72.966
X153.156Y-139.421
X153.2Y-103.2
X153.4Y-112.0
X153.5Y-75.3
X153.5Y-77.0
X153.5Y-78.5
X153.5Y-124.742
X153.51Y-145.432
X153.578Y-54.408
X153.863Y-138.714
X154.0Y-124.0
X154.189Y-61.426
X154.2Y-87.8
X154.25Y-96.0
X154.5Y-123.0
X154.6Y-103.8
X154.716Y-56.233
X154.747Y-143.841
X155.0Y-51.0
X155.0Y-75.5
X155.0Y-79.0
X155.0Y-85.0
X155.0Y-115.0
X155.0Y-132.0
X155.0Y-149.0
X155.162Y-57.77
X155.277Y-142.25
X155.5Y-67.5
X155.5Y-82.5
X155.6Y-112.0
X155.75Y-96.75
X155.808Y-145.962
X155.904Y-54.019
X156.0Y-74.0
X156.0Y-103.2
X156.0Y-118.0
X156.0Y-126.0
X156.0Y-129.9
X156.4Y-87.8
X156.5Y-75.5
X156.5Y-78.5
X157.0Y-70.0
X157.0Y-71.0
X157.0Y-124.0
X157.0Y-126.0
X157.0Y-128.0
X157.0Y-129.0
X157.2Y-112.0
X157.5Y-51.0
X157.5Y-149.0
X157.6Y-103.8
X157.696Y-55.573
X157.75Y-96.0
X157.752Y-144.371
X157.814Y-57.246
X157.929Y-142.78
X158.0Y-76.0
X158.0Y-78.5
X158.0Y-82.5
X158.0Y-118.0
X158.0Y-136.0
X158.106Y-146.492
X158.2Y-88.0
X158.2Y-111.2
X158.23Y-53.629
X159.0Y-64.0
X159.0Y-88.75
X159.0Y-96.75
X159.0Y-103.2
X159.0Y-126.0
X159.343Y-146.669
X159.4Y-110.8
X159.5Y-136.0
X159.75Y-88.0
X159.903Y-53.511
X160.0Y-51.0
X160.0Y-79.0
X160.0Y-83.0
X160.0Y-84.0
X160.0Y-85.0
X160.0Y-110.0
X160.0Y-115.0
X160.0Y-149.0
X160.227Y-139.775
X160.4Y-87.0
X160.4Y-89.0
X160.4Y-103.8
X160.474Y-59.971
X160.5Y-124.5
X160.579Y-55.144
X160.581Y-144.725
X160.75Y-96.0
X160.857Y-59.047
X161.0Y-83.0
X161.0Y-84.25
X161.0Y-88.0
X161.0Y-109.0
X161.0Y-116.0
X161.0Y-131.0
X161.0Y-136.0
X161.008Y-58.027
X161.2Y-114.2
X161.345Y-53.296
X161.4Y-110.6
X161.464Y-142.073
X161.5Y-68.5
X161.5Y-79.0
X161.5Y-134.0
X161.641Y-146.846
X161.8Y-103.2
X161.995Y-140.482
X162.0Y-64.0
X162.0Y-67.0
X162.0Y-76.0
X162.0Y-80.0
X162.0Y-120.0
X162.0Y-124.0
X162.0Y-133.0
X162.25Y-88.25
X162.25Y-96.75
X162.46Y-53.217
X162.5Y-51.0
X162.5Y-149.0
X162.525Y-147.023
X162.702Y-142.957
X162.8Y-111.4
X163.0Y-70.0
X163.0Y-78.0
X163.0Y-81.0
X163.0Y-119.0
X163.0Y-120.0
X163.0Y-131.0
X163.064Y-56.985
X163.2Y-103.8
X163.232Y-144.901
X163.367Y-54.946
X163.75Y-88.25
X164.0Y-71.0
X164.0Y-96.0
X164.0Y-129.0
X164.6Y-103.2
X164.6Y-111.4
X165.0Y-51.0
X165.0Y-64.0
X165.0Y-67.0
X165.0Y-70.0
X165.0Y-72.0
X165.0Y-88.25
X165.0Y-128.0
X165.0Y-131.0
X165.0Y-134.0
X165.0Y-136.0
X165.0Y-149.0
X165.25Y-96.75
X166.0Y-71.0
X166.0Y-103.8
X166.0Y-111.6
X166.0Y-129.0
X166.25Y-94.75
X166.633Y-145.054
X166.768Y-55.099
X166.8Y-111.4
X166.936Y-143.015
X167.0Y-70.0
X167.0Y-78.0
X167.0Y-81.0
X167.0Y-96.0
X167.0Y-104.8
X167.0Y-119.0
X167.0Y-120.0
X167.0Y-131.0
X167.298Y-57.043
X167.4Y-103.2
X167.475Y-52.977
X167.5Y-51.0
X167.5Y-88.25
X167.5Y-93.5
X167.5Y-149.0
X167.54Y-146.783
X167.9Y-129.9
X168.0Y-64.0
X168.0Y-67.0
X168.0Y-76.0
X168.0Y-80.0
X168.0Y-105.8
X168.0Y-120.0
X168.0Y-124.0
X168.0Y-133.0
X168.005Y-59.518
X168.25Y-83.75
X168.359Y-53.154
X168.5Y-65.5
X168.5Y-96.75
X168.536Y-57.927
X168.655Y-146.704
X168.8Y-106.8
X168.8Y-108.4
X168.85Y-130.8
X168.992Y-141.973
X169.0Y-83.0
X169.0Y-116.0
X169.0Y-135.0
X169.143Y-140.953
X169.25Y-88.5
X169.25Y-90.25
X169.4Y-103.2
X169.419Y-55.275
X169.421Y-144.856
X169.5Y-67.5
X169.526Y-140.029
X169.6Y-111.0
X169.7Y-130.8
X169.773Y-60.225
X169.8Y-113.389
X170.0Y-51.0
X170.0Y-64.5
X170.0Y-75.5
X170.0Y-79.0
X170.0Y-82.5
X170.0Y-90.0
X170.0Y-95.0
X170.0Y-105.0
X170.0Y-108.8
X170.0Y-110.0
X170.0Y-115.0
X170.0Y-137.0
X170.0Y-149.0
X170.097Y-146.489
X170.25Y-85.75
X170.5Y-117.0
X170.657Y-53.331
X170.75Y-85.0
X171.0Y-74.0
X171.0Y-126.0
X171.2Y-96.2
X171.4Y-103.8
X171.5Y-91.5
X171.77Y-146.371
X171.8Y-109.2
X171.894Y-53.508
X172.0Y-64.0
X172.0Y-76.0
X172.0Y-93.0
X172.0Y-118.0
X172.071Y-57.22
X172.186Y-142.754
X172.248Y-55.629
X172.304Y-144.427
X172.5Y-51.0
X172.5Y-72.0
X172.5Y-149.0
X172.8Y-103.6
X173.0Y-71.0
X173.0Y-124.0
X173.0Y-129.0
X173.0Y-131.0
X173.0Y-135.0
X173.2Y-96.2
X173.5Y-78.5
X173.6Y-95.2
X173.9Y-68.5
X174.0Y-83.0
X174.0Y-118.0
X174.096Y-145.981
X174.192Y-54.038
X174.4Y-104.2
X174.5Y-132.5
X174.5Y-133.5
X174.723Y-57.75
X174.838Y-142.23
X175.0Y-51.0
X175.0Y-85.0
X175.0Y-90.0
X175.0Y-95.0
X175.0Y-105.0
X175.0Y-110.0
X175.0Y-115.0
X175.0Y-131.0
X175.0Y-149.0
X175.253Y-56.159
X175.284Y-143.767
X175.5Y-77.0
X175.811Y-138.574
X175.9Y-123.0
X176.0Y-95.4
X176.137Y-61.286
X176.2Y-103.4
X176.4Y-98.0
X176.422Y-145.592
X176.49Y-54.568
X176.5Y-75.258
X176.5Y-79.0
X176.5Y-82.5
X176.5Y-124.6
X176.6Y-101.8
X176.8Y-99.6
X176.844Y-60.579
X177.0Y-127.033
X177.0Y-72.9
X177.0Y-96.0
X177.0Y-117.0
X177.374Y-59.695
X177.5Y-51.0
X177.5Y-75.3
X177.5Y-124.6
X177.5Y-149.0
X177.633Y-145.281
X177.715Y-138.55
X177.8Y-93.4
X177.834Y-140.223
X178.0Y-95.4
X178.0Y-133.0
X178.032Y-143.011
X178.081Y-55.099
X178.081Y-56.866
X178.5Y-77.0
X178.5Y-81.5
X179.0Y-66.0
X179.0Y-70.0
X179.0Y-127.0
X179.0Y-129.0
X179.316Y-140.566
X179.496Y-55.452
X179.672Y-59.518
X179.824Y-144.565
X180.0Y-51.0
X180.0Y-74.0
X180.0Y-90.0
X180.0Y-95.0
X180.0Y-105.0
X180.0Y-110.0
X180.0Y-125.0
X180.0Y-133.0
X180.0Y-149.0
X180.3Y-129.9
X180.5Y-79.5
X180.5Y-96.0
X180.55Y-142.16
X180.556Y-55.806
X180.708Y-144.39
X180.733Y-57.75
X181.0Y-74.5
X181.0Y-103.5
X181.0Y-120.0
X181.5Y-95.0
X182.0Y-104.5
X182.0Y-111.0
X182.0Y-131.0
X182.5Y-51.0
X182.5Y-69.0
X182.5Y-77.0
X182.5Y-88.0
X182.5Y-91.0
X182.5Y-93.5
X182.5Y-105.5
X182.5Y-109.0
X182.5Y-149.0
X183.0Y-107.5
X183.25Y-115.75
X183.25Y-139.0
X183.268Y-63.75
X183.5Y-69.0
X183.5Y-76.0
X183.5Y-84.0
X183.5Y-86.5
X183.5Y-117.5
X183.562Y-61.193
X183.75Y-141.0
X183.816Y-59.193
X184.0Y-98.0
X184.0Y-102.0
X184.0Y-123.0
X184.367Y-62.483
X184.5Y-135.25
X184.5Y-136.25
X184.631Y-65.079
X184.75Y-137.25
X185.0Y-51.0
X185.0Y-55.0
X185.0Y-69.5
X185.0Y-97.0
X185.0Y-103.0
X185.0Y-124.5
X185.0Y-130.0
X185.0Y-145.0
X185.0Y-149.0
X185.25Y-142.25
X185.281Y-57.504
X185.5Y-115.0
X185.5Y-121.0
X185.7Y-74.5
X186.0Y-84.5
X186.03Y-58.005
X186.198Y-60.371
X186.25Y-139.75
X186.25Y-141.75
X186.3Y-104.55
X186.5Y-70.5
X186.5Y-88.5
X186.5Y-90.0
X186.5Y-109.0
X186.7Y-94.7
X187.0Y-98.0
X187.0Y-102.0
X187.0Y-103.5
X187.0Y-105.5
X187.0Y-107.5
X187.0Y-126.0
X187.0Y-127.0
X187.0Y-129.0
X187.5Y-51.0
X187.5Y-72.0
X187.5Y-82.0
X187.5Y-141.0
X187.5Y-149.0
X187.904Y-63.182
X188.0Y-88.5
X188.0Y-111.0
X188.0Y-117.5
X188.0Y-120.0
X188.0Y-127.5
X188.0Y-136.75
X188.086Y-59.048
X188.5Y-81.5
X188.5Y-120.5
X188.676Y-61.78
X188.75Y-138.25
X189.0Y-93.0
X189.0Y-97.0
X189.0Y-103.0
X189.0Y-107.0
X189.0Y-119.0
X189.0Y-140.25
X189.161Y-59.685
X189.5Y-90.0
X189.5Y-91.5
X189.7Y-111.5
X189.7Y-112.5
X189.741Y-88.499
X189.742Y-87.5
X189.75Y-131.5
X190.0Y-51.0
X190.0Y-55.0
X190.0Y-80.5
X190.0Y-84.5
X190.0Y-145.0
X190.0Y-149.0
X190.104Y-68.495
X190.151Y-64.687
X190.25Y-135.25
X190.6Y-120.6
X191.0Y-83.5
X191.0Y-91.0
X191.0Y-115.0
X191.0Y-139.0
X191.028Y-68.112
X191.082Y-61.054
X191.25Y-63.42
X191.25Y-136.5
X191.5Y-78.0
X191.5Y-122.0
X191.5Y-130.75
X191.857Y-67.498
X192.0Y-116.0
X192.033Y-88.0
X192.034Y-112.001
X192.25Y-132.25
X192.5Y-51.0
X192.5Y-149.0
X193.0Y-77.5
X193.0Y-100.0
X193.0Y-137.75
X193.002Y-62.424
X193.5Y-87.0
X193.5Y-111.0
X193.5Y-134.75
X193.592Y-65.156
X193.75Y-132.0
X194.0Y-84.5
X194.0Y-92.0
X194.0Y-99.0
X194.0Y-101.0
X194.0Y-108.0
X194.0Y-110.0
X194.0Y-122.5
X194.0Y-137.0
X194.047Y-68.215
X194.25Y-100.0
X194.269Y-63.523
X194.5Y-78.5
X194.5Y-86.0
X194.5Y-90.5
X194.5Y-96.5
X194.5Y-98.0
X194.5Y-102.0
X194.5Y-114.25
X195.0Y-51.0
X195.0Y-55.0
X195.0Y-60.0
X195.0Y-140.0
X195.0Y-145.0
X195.0Y-149.0
X195.44Y-64.391
X195.5Y-79.5
X195.5Y-120.0
X195.5Y-133.0
X195.6Y-84.7
X195.6Y-96.9
X195.6Y-100.0
X195.6Y-109.2
X195.704Y-66.987
X195.75Y-73.5
X195.75Y-135.5
X196.0Y-81.5
X196.0Y-117.5
X196.285Y-65.123
X196.5Y-75.25
X196.5Y-135.0
X196.505Y-125.104
X196.785Y-129.047
X196.888Y-126.028
X197.0Y-71.25
X197.0Y-110.5
X197.25Y-72.75
X197.5Y-51.0
X197.5Y-109.5
X197.5Y-149.0
X197.502Y-126.857
X198.0Y-69.5
X198.0Y-90.5
X198.0Y-97.0
X198.0Y-99.0
X198.0Y-101.0
X198.0Y-103.0
X198.013Y-130.704
X198.1Y-100.0
X199.0Y-86.0
X199.0Y-114.0
X199.5Y-91.5
X199.5Y-98.5
X199.5Y-101.5
X199.5Y-103.5
X199.75Y-71.5
X199.844Y-128.592
X199.877Y-131.285
X199.921Y-119.631
X200.0Y-51.0
X200.0Y-55.0
X200.0Y-60.0
X200.0Y-65.0
X200.0Y-68.5
X200.0Y-99.0
X200.0Y-100.0
X200.0Y-101.0
X200.0Y-135.0
X200.0Y-140.0
X200.0Y-145.0
X200.0Y-149.0
X200.25Y-74.75
X200.25Y-80.5
X200.313Y-125.151
X200.5Y-69.25
X200.5Y-92.5
X200.5Y-104.0
X200.5Y-106.0
X200.609Y-130.44
X201.0Y-94.0
X201.0Y-97.0
X201.0Y-100.0
X201.0Y-103.0
X201.0Y-105.0
X201.0Y-107.0
X201.25Y-80.5
X201.25Y-118.268
X201.477Y-129.269
X201.5Y-73.75
X201.58Y-126.25
X201.75Y-77.0
X201.818Y-122.904
X202.0Y-71.0
X202.25Y-80.25
X202.5Y-51.0
X202.5Y-149.0
X202.517Y-119.367
X202.576Y-128.002
X202.75Y-72.0
X203.22Y-123.676
X203.25Y-76.25
X203.55Y-87.285
X203.574Y-89.189
X203.714Y-111.137
X203.807Y-118.562
X203.946Y-126.082
X204.0Y-74.0
X204.0Y-81.75
X204.421Y-111.844
X204.629Y-121.198
X204.75Y-78.75
X204.775Y-104.773
X205.0Y-65.0
X205.0Y-70.0
X205.0Y-130.0
X205.0Y-135.0
X205.029Y-95.474
X205.223Y-87.166
X205.25Y-76.0
X205.305Y-112.374
X205.315Y-124.161
X205.482Y-103.005
X205.482Y-114.672
X205.566Y-85.684
X205.807Y-118.816
X205.952Y-123.086
X205.953Y-95.857
X206.0Y-77.5
X206.0Y-81.25
X206.75Y-78.75
X206.973Y-96.008
X206.995Y-121.03
X207.0Y-148.5
X207.073Y-103.536
X207.16Y-84.45
X207.23Y-90.162
X207.25Y-109.723
X207.25Y-115.733
X207.25Y-79.75
X207.496Y-120.281
X207.5Y-51.5
X207.754Y-92.814
X207.78Y-107.071
X207.957Y-102.298
X208.011Y-86.968
X208.015Y-98.064
X208.134Y-113.081
X208.767Y-89.716
X208.841Y-110.253
X209.194Y-115.556
X209.371Y-107.248
X209.39Y-84.292
X209.427Y-92.696
X209.5Y-52.5
X209.5Y-147.5
X209.548Y-114.496
X209.565Y-85.176
X209.725Y-104.419
X209.856Y-95.579
X209.901Y-101.768
X209.901Y-113.081
X210.0Y-65.0
X210.0Y-70.0
X210.0Y-75.0
X210.0Y-80.0
X210.0Y-120.0
X210.0Y-125.0
X210.0Y-130.0
X210.0Y-135.0
X210.054Y-98.367
X210.281Y-87.367
X210.432Y-111.49
X210.592Y-88.578
X210.962Y-109.192
X210.981Y-90.904
X211.0Y-146.5
X211.371Y-93.23
X211.489Y-94.903
X211.492Y-106.894
X211.5Y-54.0
X211.669Y-105.657
X211.704Y-96.345
X211.783Y-97.46
X211.846Y-103.359
X212.023Y-102.475
X212.5Y-144.5
X213.0Y-56.0
X213.5Y-58.0
X213.5Y-142.0
X214.0Y-60.0
X214.0Y-62.5
X214.0Y-65.0
X214.0Y-67.5
X214.0Y-70.0
X214.0Y-72.5
X214.0Y-75.0
X214.0Y-77.5
X214.0Y-80.0
X214.0Y-82.5
X214.0Y-85.0
X214.0Y-87.5
X214.0Y-90.0
X214.0Y-92.5
X214.0Y-95.0
X214.0Y-97.5
X214.0Y-100.0
X214.0Y-102.5
X214.0Y-105.0
X214.0Y-107.5
X214.0Y-110.0
X214.0Y-112.5
X214.0Y-115.0
X214.0Y-117.5
X214.0Y-120.0
X214.0Y-122.5
X214.0Y-125.0
X214.0Y-127.5
X214.0Y-130.0
X214.0Y-132.5
X214.0Y-135.0
X214.0Y-137.5
X214.0Y-140.0
T4
X71.12Y-56.0
X73.66Y-56.0
X76.2Y-56.0
X78.74Y-56.0
X81.28Y-56.0
X82.76Y-107.7
X83.82Y-56.0
X85.3Y-107.7
X86.36Y-56.0
X87.84Y-107.7
X88.9Y-56.0
X91.44Y-56.0
X93.98Y-56.0
X96.52Y-56.0
X99.06Y-56.0
X101.6Y-56.0
X104.14Y-56.0
X106.68Y-56.0
X109.22Y-56.0
X111.76Y-56.0
X114.3Y-56.0
X116.84Y-56.0
X119.38Y-56.0
X121.92Y-56.0
X124.46Y-56.0
X127.0Y-56.0
X129.54Y-56.0
T5
X60.0Y-55.0
X60.0Y-145.0
X137.0Y-55.0
X137.0Y-145.0
X205.0Y-55.0
X205.0Y-145.0
T3
X55.825Y-60.68G85X55.025Y-60.68
G05
X55.825Y-69.32G85X55.025Y-69.32
G05
X55.825Y-130.68G85X55.025Y-130.68
G05
X55.825Y-139.32G85X55.025Y-139.32
G05
X60.155Y-60.68G85X59.055Y-60.68
G05
X60.155Y-69.32G85X59.055Y-69.32
G05
X60.155Y-130.68G85X59.055Y-130.68
G05
X60.155Y-139.32G85X59.055Y-139.32
G05
M30
