%TF.GenerationSoftware,KiCad,Pcbnew,9.0.2-9.0.2-0~ubuntu24.04.1*%
%TF.CreationDate,2025-07-21T15:48:31-04:00*%
%TF.ProjectId,digital,64696769-7461-46c2-9e6b-696361645f70,rev?*%
%TF.SameCoordinates,Original*%
%TF.FileFunction,Soldermask,Top*%
%TF.FilePolarity,Negative*%
%FSLAX46Y46*%
G04 Gerber Fmt 4.6, Leading zero omitted, Abs format (unit mm)*
G04 Created by KiCad (PCBNEW 9.0.2-9.0.2-0~ubuntu24.04.1) date 2025-07-21 15:48:31*
%MOMM*%
%LPD*%
G01*
G04 APERTURE LIST*
G04 Aperture macros list*
%AMRoundRect*
0 Rectangle with rounded corners*
0 $1 Rounding radius*
0 $2 $3 $4 $5 $6 $7 $8 $9 X,Y pos of 4 corners*
0 Add a 4 corners polygon primitive as box body*
4,1,4,$2,$3,$4,$5,$6,$7,$8,$9,$2,$3,0*
0 Add four circle primitives for the rounded corners*
1,1,$1+$1,$2,$3*
1,1,$1+$1,$4,$5*
1,1,$1+$1,$6,$7*
1,1,$1+$1,$8,$9*
0 Add four rect primitives between the rounded corners*
20,1,$1+$1,$2,$3,$4,$5,0*
20,1,$1+$1,$4,$5,$6,$7,0*
20,1,$1+$1,$6,$7,$8,$9,0*
20,1,$1+$1,$8,$9,$2,$3,0*%
%AMRotRect*
0 Rectangle, with rotation*
0 The origin of the aperture is its center*
0 $1 length*
0 $2 width*
0 $3 Rotation angle, in degrees counterclockwise*
0 Add horizontal line*
21,1,$1,$2,0,0,$3*%
%AMFreePoly0*
4,1,23,0.500000,-0.750000,0.000000,-0.750000,0.000000,-0.745722,-0.065263,-0.745722,-0.191342,-0.711940,-0.304381,-0.646677,-0.396677,-0.554381,-0.461940,-0.441342,-0.495722,-0.315263,-0.495722,-0.250000,-0.500000,-0.250000,-0.500000,0.250000,-0.495722,0.250000,-0.495722,0.315263,-0.461940,0.441342,-0.396677,0.554381,-0.304381,0.646677,-0.191342,0.711940,-0.065263,0.745722,0.000000,0.745722,
0.000000,0.750000,0.500000,0.750000,0.500000,-0.750000,0.500000,-0.750000,$1*%
%AMFreePoly1*
4,1,23,0.000000,0.745722,0.065263,0.745722,0.191342,0.711940,0.304381,0.646677,0.396677,0.554381,0.461940,0.441342,0.495722,0.315263,0.495722,0.250000,0.500000,0.250000,0.500000,-0.250000,0.495722,-0.250000,0.495722,-0.315263,0.461940,-0.441342,0.396677,-0.554381,0.304381,-0.646677,0.191342,-0.711940,0.065263,-0.745722,0.000000,-0.745722,0.000000,-0.750000,-0.500000,-0.750000,
-0.500000,0.750000,0.000000,0.750000,0.000000,0.745722,0.000000,0.745722,$1*%
G04 Aperture macros list end*
%ADD10C,4.000000*%
%ADD11C,1.500000*%
%ADD12C,1.000000*%
%ADD13C,0.000000*%
%ADD14C,0.650000*%
%ADD15RoundRect,0.150000X-0.425000X0.150000X-0.425000X-0.150000X0.425000X-0.150000X0.425000X0.150000X0*%
%ADD16RoundRect,0.075000X-0.500000X0.075000X-0.500000X-0.075000X0.500000X-0.075000X0.500000X0.075000X0*%
%ADD17O,2.100000X1.000000*%
%ADD18O,1.800000X1.000000*%
%ADD19RoundRect,0.200000X-0.142507X-0.308734X0.249807X-0.230698X0.142507X0.308734X-0.249807X0.230698X0*%
%ADD20RoundRect,0.250000X-1.295330X-0.920391X1.548947X-0.354629X1.295330X0.920391X-1.548947X0.354629X0*%
%ADD21RoundRect,0.200000X-0.117540X0.319076X-0.339768X-0.013512X0.117540X-0.319076X0.339768X0.013512X0*%
%ADD22RoundRect,0.150000X-0.308067X0.779884X0.013832X-0.838411X0.308067X-0.779884X-0.013832X0.838411X0*%
%ADD23RoundRect,0.250000X1.295330X0.920391X-1.548947X0.354629X-1.295330X-0.920391X1.548947X-0.354629X0*%
%ADD24RotRect,1.000000X1.050000X5.625000*%
%ADD25RotRect,1.050000X2.200000X5.625000*%
%ADD26RotRect,1.000000X1.050000X39.375000*%
%ADD27RotRect,1.050000X2.200000X39.375000*%
%ADD28RotRect,1.000000X1.050000X163.125000*%
%ADD29RotRect,1.050000X2.200000X163.125000*%
%ADD30RotRect,1.000000X1.050000X50.625000*%
%ADD31RotRect,1.050000X2.200000X50.625000*%
%ADD32RoundRect,0.087500X0.087500X-0.725000X0.087500X0.725000X-0.087500X0.725000X-0.087500X-0.725000X0*%
%ADD33RoundRect,0.140000X-0.140000X-0.170000X0.140000X-0.170000X0.140000X0.170000X-0.140000X0.170000X0*%
%ADD34RoundRect,0.250000X-0.325000X-0.650000X0.325000X-0.650000X0.325000X0.650000X-0.325000X0.650000X0*%
%ADD35RoundRect,0.200000X0.319076X0.117540X-0.013512X0.339768X-0.319076X-0.117540X0.013512X-0.339768X0*%
%ADD36RoundRect,0.250000X-1.346032X0.844510X0.265122X-1.566752X1.346032X-0.844510X-0.265122X1.566752X0*%
%ADD37RoundRect,0.135000X0.185000X-0.135000X0.185000X0.135000X-0.185000X0.135000X-0.185000X-0.135000X0*%
%ADD38RoundRect,0.200000X-0.339768X0.013512X-0.117540X-0.319076X0.339768X-0.013512X0.117540X0.319076X0*%
%ADD39RoundRect,0.200000X0.249807X0.230698X-0.142507X0.308734X-0.249807X-0.230698X0.142507X-0.308734X0*%
%ADD40RoundRect,0.135000X0.135000X0.185000X-0.135000X0.185000X-0.135000X-0.185000X0.135000X-0.185000X0*%
%ADD41RoundRect,0.087500X-0.087500X0.725000X-0.087500X-0.725000X0.087500X-0.725000X0.087500X0.725000X0*%
%ADD42RoundRect,0.135000X-0.185000X0.135000X-0.185000X-0.135000X0.185000X-0.135000X0.185000X0.135000X0*%
%ADD43RoundRect,0.140000X0.170000X-0.140000X0.170000X0.140000X-0.170000X0.140000X-0.170000X-0.140000X0*%
%ADD44RotRect,1.000000X1.050000X118.125000*%
%ADD45RotRect,1.050000X2.200000X118.125000*%
%ADD46RoundRect,0.250000X-0.250000X-0.475000X0.250000X-0.475000X0.250000X0.475000X-0.250000X0.475000X0*%
%ADD47RoundRect,0.200000X-0.308734X0.142507X-0.230698X-0.249807X0.308734X-0.142507X0.230698X0.249807X0*%
%ADD48RoundRect,0.250000X0.265122X1.566752X-1.346032X-0.844510X-0.265122X-1.566752X1.346032X0.844510X0*%
%ADD49RotRect,1.000000X1.050000X208.125000*%
%ADD50RotRect,1.050000X2.200000X208.125000*%
%ADD51RoundRect,0.100000X-0.637500X-0.100000X0.637500X-0.100000X0.637500X0.100000X-0.637500X0.100000X0*%
%ADD52RoundRect,0.200000X0.117540X-0.319076X0.339768X0.013512X-0.117540X0.319076X-0.339768X-0.013512X0*%
%ADD53C,4.700000*%
%ADD54C,7.000000*%
%ADD55RoundRect,0.140000X-0.170000X0.140000X-0.170000X-0.140000X0.170000X-0.140000X0.170000X0.140000X0*%
%ADD56RoundRect,0.250000X0.844510X1.346032X-1.566752X-0.265122X-0.844510X-1.346032X1.566752X0.265122X0*%
%ADD57RoundRect,0.250000X-0.844510X-1.346032X1.566752X0.265122X0.844510X1.346032X-1.566752X-0.265122X0*%
%ADD58RotRect,1.000000X1.050000X151.875000*%
%ADD59RotRect,1.050000X2.200000X151.875000*%
%ADD60RotRect,1.000000X1.050000X343.125000*%
%ADD61RotRect,1.050000X2.200000X343.125000*%
%ADD62RoundRect,0.150000X-0.583066X0.602627X0.333625X-0.769298X0.583066X-0.602627X-0.333625X0.769298X0*%
%ADD63RoundRect,0.150000X0.333625X0.769298X-0.583066X-0.602627X-0.333625X-0.769298X0.583066X0.602627X0*%
%ADD64RoundRect,0.087500X-0.725000X-0.087500X0.725000X-0.087500X0.725000X0.087500X-0.725000X0.087500X0*%
%ADD65RotRect,1.000000X1.050000X185.625000*%
%ADD66RotRect,1.050000X2.200000X185.625000*%
%ADD67RoundRect,0.250000X0.650000X-1.450000X0.650000X1.450000X-0.650000X1.450000X-0.650000X-1.450000X0*%
%ADD68RotRect,1.000000X1.050000X84.375000*%
%ADD69RotRect,1.050000X2.200000X84.375000*%
%ADD70RoundRect,0.200000X0.339768X-0.013512X0.117540X0.319076X-0.339768X0.013512X-0.117540X-0.319076X0*%
%ADD71RoundRect,0.250000X1.548947X0.354629X-1.295330X0.920391X-1.548947X-0.354629X1.295330X-0.920391X0*%
%ADD72C,1.000000*%
%ADD73RotRect,1.000000X1.050000X354.375000*%
%ADD74RotRect,1.050000X2.200000X354.375000*%
%ADD75RoundRect,0.250000X-0.354629X1.548947X-0.920391X-1.295330X0.354629X-1.548947X0.920391X1.295330X0*%
%ADD76RoundRect,0.100000X0.100000X-0.637500X0.100000X0.637500X-0.100000X0.637500X-0.100000X-0.637500X0*%
%ADD77RoundRect,0.200000X0.013512X0.339768X-0.319076X0.117540X-0.013512X-0.339768X0.319076X-0.117540X0*%
%ADD78RotRect,1.000000X1.050000X28.125000*%
%ADD79RotRect,1.050000X2.200000X28.125000*%
%ADD80RoundRect,0.200000X0.142507X0.308734X-0.249807X0.230698X-0.142507X-0.308734X0.249807X-0.230698X0*%
%ADD81RoundRect,0.250000X-1.548947X-0.354629X1.295330X-0.920391X1.548947X0.354629X-1.295330X0.920391X0*%
%ADD82RoundRect,0.250000X1.566752X-0.265122X-0.844510X1.346032X-1.566752X0.265122X0.844510X-1.346032X0*%
%ADD83RotRect,1.000000X1.050000X196.875000*%
%ADD84RotRect,1.050000X2.200000X196.875000*%
%ADD85RotRect,1.000000X1.050000X129.375000*%
%ADD86RotRect,1.050000X2.200000X129.375000*%
%ADD87RoundRect,0.250000X-0.920391X1.295330X-0.354629X-1.548947X0.920391X-1.295330X0.354629X1.548947X0*%
%ADD88RoundRect,0.200000X-0.319076X-0.117540X0.013512X-0.339768X0.319076X0.117540X-0.013512X0.339768X0*%
%ADD89RoundRect,0.250000X-0.650000X0.325000X-0.650000X-0.325000X0.650000X-0.325000X0.650000X0.325000X0*%
%ADD90RoundRect,0.250000X-1.566752X0.265122X0.844510X-1.346032X1.566752X-0.265122X-0.844510X1.346032X0*%
%ADD91RoundRect,0.200000X-0.013512X-0.339768X0.319076X-0.117540X0.013512X0.339768X-0.319076X0.117540X0*%
%ADD92RoundRect,0.112500X-0.112500X0.187500X-0.112500X-0.187500X0.112500X-0.187500X0.112500X0.187500X0*%
%ADD93RoundRect,0.200000X0.308734X-0.142507X0.230698X0.249807X-0.308734X0.142507X-0.230698X-0.249807X0*%
%ADD94RotRect,1.000000X1.050000X219.375000*%
%ADD95RotRect,1.050000X2.200000X219.375000*%
%ADD96RoundRect,0.200000X0.230698X-0.249807X0.308734X0.142507X-0.230698X0.249807X-0.308734X-0.142507X0*%
%ADD97RotRect,1.000000X1.050000X331.875000*%
%ADD98RotRect,1.050000X2.200000X331.875000*%
%ADD99RotRect,1.000000X1.050000X95.625000*%
%ADD100RotRect,1.050000X2.200000X95.625000*%
%ADD101RoundRect,0.150000X0.602627X0.583066X-0.769298X-0.333625X-0.602627X-0.583066X0.769298X0.333625X0*%
%ADD102RoundRect,0.150000X0.308067X-0.779884X-0.013832X0.838411X-0.308067X0.779884X0.013832X-0.838411X0*%
%ADD103RoundRect,0.200000X-0.230698X0.249807X-0.308734X-0.142507X0.230698X-0.249807X0.308734X0.142507X0*%
%ADD104RoundRect,0.150000X-0.013832X-0.838411X0.308067X0.779884X0.013832X0.838411X-0.308067X-0.779884X0*%
%ADD105RotRect,1.000000X1.050000X16.875000*%
%ADD106RotRect,1.050000X2.200000X16.875000*%
%ADD107RoundRect,0.250000X-0.650000X1.450000X-0.650000X-1.450000X0.650000X-1.450000X0.650000X1.450000X0*%
%ADD108RoundRect,0.140000X0.140000X0.170000X-0.140000X0.170000X-0.140000X-0.170000X0.140000X-0.170000X0*%
%ADD109RoundRect,0.250000X0.325000X0.650000X-0.325000X0.650000X-0.325000X-0.650000X0.325000X-0.650000X0*%
%ADD110RotRect,1.000000X1.050000X73.125000*%
%ADD111RotRect,1.050000X2.200000X73.125000*%
%ADD112RotRect,1.000000X1.050000X174.375000*%
%ADD113RotRect,1.050000X2.200000X174.375000*%
%ADD114RotRect,1.000000X1.050000X320.625000*%
%ADD115RotRect,1.050000X2.200000X320.625000*%
%ADD116RoundRect,0.135000X-0.135000X-0.185000X0.135000X-0.185000X0.135000X0.185000X-0.135000X0.185000X0*%
%ADD117RoundRect,0.150000X0.779884X0.308067X-0.838411X-0.013832X-0.779884X-0.308067X0.838411X0.013832X0*%
%ADD118RoundRect,0.100000X-0.100000X0.637500X-0.100000X-0.637500X0.100000X-0.637500X0.100000X0.637500X0*%
%ADD119RoundRect,0.150000X0.583066X-0.602627X-0.333625X0.769298X-0.583066X0.602627X0.333625X-0.769298X0*%
%ADD120RoundRect,0.200000X-0.249807X-0.230698X0.142507X-0.308734X0.249807X0.230698X-0.142507X0.308734X0*%
%ADD121RoundRect,0.150000X0.838411X-0.013832X-0.779884X0.308067X-0.838411X0.013832X0.779884X-0.308067X0*%
%ADD122RoundRect,0.150000X-0.333625X-0.769298X0.583066X0.602627X0.333625X0.769298X-0.583066X-0.602627X0*%
%ADD123RotRect,1.000000X1.050000X106.875000*%
%ADD124RotRect,1.050000X2.200000X106.875000*%
%ADD125RotRect,1.000000X1.050000X61.875000*%
%ADD126RotRect,1.050000X2.200000X61.875000*%
%ADD127RoundRect,0.150000X0.013832X0.838411X-0.308067X-0.779884X-0.013832X-0.838411X0.308067X0.779884X0*%
%ADD128RotRect,1.000000X1.050000X140.625000*%
%ADD129RotRect,1.050000X2.200000X140.625000*%
%ADD130RoundRect,0.150000X0.769298X-0.333625X-0.602627X0.583066X-0.769298X0.333625X0.602627X-0.583066X0*%
%ADD131RoundRect,0.243750X-0.456250X0.243750X-0.456250X-0.243750X0.456250X-0.243750X0.456250X0.243750X0*%
%ADD132RoundRect,0.243750X0.456250X-0.243750X0.456250X0.243750X-0.456250X0.243750X-0.456250X-0.243750X0*%
%ADD133RoundRect,0.250000X-0.475000X0.250000X-0.475000X-0.250000X0.475000X-0.250000X0.475000X0.250000X0*%
%ADD134RoundRect,0.250000X-0.970000X-0.310000X0.970000X-0.310000X0.970000X0.310000X-0.970000X0.310000X0*%
%ADD135RoundRect,0.125000X-0.250000X-0.125000X0.250000X-0.125000X0.250000X0.125000X-0.250000X0.125000X0*%
%ADD136R,3.400000X4.300000*%
%ADD137RoundRect,0.200000X0.275000X-0.200000X0.275000X0.200000X-0.275000X0.200000X-0.275000X-0.200000X0*%
%ADD138RoundRect,0.225000X-0.250000X0.225000X-0.250000X-0.225000X0.250000X-0.225000X0.250000X0.225000X0*%
%ADD139RoundRect,0.250000X0.970000X0.310000X-0.970000X0.310000X-0.970000X-0.310000X0.970000X-0.310000X0*%
%ADD140RoundRect,0.250000X0.310000X-0.970000X0.310000X0.970000X-0.310000X0.970000X-0.310000X-0.970000X0*%
%ADD141R,1.000000X1.050000*%
%ADD142R,1.050000X2.200000*%
%ADD143RoundRect,0.050000X0.350000X-0.225000X0.350000X0.225000X-0.350000X0.225000X-0.350000X-0.225000X0*%
%ADD144RoundRect,0.150000X-0.825000X-0.150000X0.825000X-0.150000X0.825000X0.150000X-0.825000X0.150000X0*%
%ADD145RoundRect,0.150000X0.150000X-0.512500X0.150000X0.512500X-0.150000X0.512500X-0.150000X-0.512500X0*%
%ADD146RoundRect,0.250000X0.250000X0.475000X-0.250000X0.475000X-0.250000X-0.475000X0.250000X-0.475000X0*%
%ADD147RoundRect,0.087500X-0.087500X0.425000X-0.087500X-0.425000X0.087500X-0.425000X0.087500X0.425000X0*%
%ADD148RoundRect,0.087500X-0.425000X0.087500X-0.425000X-0.087500X0.425000X-0.087500X0.425000X0.087500X0*%
%ADD149R,3.150000X3.150000*%
%ADD150RoundRect,0.102000X-0.800000X0.350000X-0.800000X-0.350000X0.800000X-0.350000X0.800000X0.350000X0*%
%ADD151RoundRect,0.102000X-0.900000X0.600000X-0.900000X-0.600000X0.900000X-0.600000X0.900000X0.600000X0*%
%ADD152RoundRect,0.102000X-1.100000X0.600000X-1.100000X-0.600000X1.100000X-0.600000X1.100000X0.600000X0*%
%ADD153RoundRect,0.102000X-0.750000X0.800000X-0.750000X-0.800000X0.750000X-0.800000X0.750000X0.800000X0*%
%ADD154RoundRect,0.250000X0.475000X-0.250000X0.475000X0.250000X-0.475000X0.250000X-0.475000X-0.250000X0*%
%ADD155RoundRect,0.243750X0.243750X0.456250X-0.243750X0.456250X-0.243750X-0.456250X0.243750X-0.456250X0*%
%ADD156FreePoly0,180.000000*%
%ADD157FreePoly1,180.000000*%
%ADD158R,1.400000X1.200000*%
%ADD159RoundRect,0.250000X-1.450000X-0.650000X1.450000X-0.650000X1.450000X0.650000X-1.450000X0.650000X0*%
%ADD160RoundRect,0.250000X0.650000X-0.325000X0.650000X0.325000X-0.650000X0.325000X-0.650000X-0.325000X0*%
%ADD161RoundRect,0.050000X-0.387500X-0.050000X0.387500X-0.050000X0.387500X0.050000X-0.387500X0.050000X0*%
%ADD162RoundRect,0.050000X-0.050000X-0.387500X0.050000X-0.387500X0.050000X0.387500X-0.050000X0.387500X0*%
%ADD163R,3.200000X3.200000*%
%ADD164R,1.700000X1.700000*%
%ADD165C,1.700000*%
%ADD166RoundRect,0.250000X0.925000X1.500000X-0.925000X1.500000X-0.925000X-1.500000X0.925000X-1.500000X0*%
%ADD167RoundRect,0.075000X-0.075000X0.662500X-0.075000X-0.662500X0.075000X-0.662500X0.075000X0.662500X0*%
%ADD168RoundRect,0.075000X-0.662500X0.075000X-0.662500X-0.075000X0.662500X-0.075000X0.662500X0.075000X0*%
%ADD169RoundRect,0.150000X-0.687500X-0.150000X0.687500X-0.150000X0.687500X0.150000X-0.687500X0.150000X0*%
%ADD170R,2.100000X3.300000*%
%ADD171FreePoly0,90.000000*%
%ADD172FreePoly1,90.000000*%
G04 APERTURE END LIST*
D10*
X53100000Y-75600000D02*
G75*
G02*
X52800000Y-75300000I0J300000D01*
G01*
X53100000Y-93600000D02*
G75*
G02*
X53400000Y-93900000I0J-300000D01*
G01*
X205000000Y-50000000D02*
G75*
G02*
X215000000Y-60000000I0J-10000000D01*
G01*
X53400000Y-107000000D02*
G75*
G02*
X53100000Y-107300000I-300000J0D01*
G01*
X62800000Y-150000000D02*
X205000000Y-150000000D01*
X53100000Y-75600000D02*
G75*
G02*
X53400000Y-75900000I0J-300000D01*
G01*
X53400000Y-93900000D02*
X53400000Y-107000000D01*
X53400000Y-89000000D02*
G75*
G02*
X53100000Y-89300000I-300000J0D01*
G01*
D11*
X136000000Y-130500000D02*
X133000000Y-133500000D01*
D12*
X172000000Y-88000000D02*
G75*
G02*
X177000000Y-93000000I0J-5000000D01*
G01*
X177000000Y-93000000D02*
X177000000Y-107000000D01*
D10*
X52800000Y-89600000D02*
X52800000Y-93300000D01*
D12*
X177000000Y-107000000D02*
G75*
G02*
X172000000Y-112000000I-5000000J0D01*
G01*
D11*
X136000000Y-130500000D02*
X136000000Y-121000000D01*
D10*
X53400000Y-75900000D02*
X53400000Y-89000000D01*
X52800000Y-107600000D02*
X52800000Y-140000000D01*
X52800000Y-89600000D02*
G75*
G02*
X53100000Y-89300000I300000J0D01*
G01*
X62800000Y-150000000D02*
G75*
G02*
X52800000Y-140000000I0J10000000D01*
G01*
D11*
X143000000Y-114000000D02*
X157500000Y-114000000D01*
D12*
X159500000Y-112000000D02*
X172000000Y-112000000D01*
D11*
X136000000Y-79000000D02*
X143000000Y-86000000D01*
D12*
X159500000Y-88000000D02*
X172000000Y-88000000D01*
D11*
X133000000Y-50000000D02*
X133000000Y-66500000D01*
X133000000Y-66500000D02*
X136000000Y-69500000D01*
X143500000Y-86000000D02*
X157500000Y-86000000D01*
X136000000Y-69500000D02*
X136000000Y-79000000D01*
D10*
X52800000Y-60000000D02*
X52800000Y-75300000D01*
X52800000Y-107600000D02*
G75*
G02*
X53100000Y-107300000I300000J0D01*
G01*
X215000000Y-140000000D02*
G75*
G02*
X205000000Y-150000000I-10000000J0D01*
G01*
X52800000Y-60000000D02*
G75*
G02*
X62800000Y-50000000I10000000J0D01*
G01*
X215000000Y-140000000D02*
X215000000Y-60000000D01*
D12*
X159500000Y-112000000D02*
X157500000Y-114000000D01*
D11*
X133000000Y-133500000D02*
X133000000Y-150000000D01*
D10*
X205000000Y-50000000D02*
X62800000Y-50000000D01*
X53100000Y-93600000D02*
G75*
G02*
X52800000Y-93300000I0J300000D01*
G01*
D11*
X136000000Y-121000000D02*
X143000000Y-114000000D01*
D12*
X159500000Y-88000000D02*
X157500000Y-86000000D01*
D13*
%TO.C,G\u002A\u002A\u002A*%
G36*
X87030583Y-68126965D02*
G01*
X87243348Y-68214148D01*
X87424131Y-68373096D01*
X87439022Y-68390465D01*
X87589153Y-68639579D01*
X87652842Y-68914516D01*
X87628970Y-69194692D01*
X87516416Y-69459526D01*
X87498658Y-69486713D01*
X87382375Y-69658064D01*
X87552271Y-69880570D01*
X87722167Y-70103076D01*
X87361424Y-70103076D01*
X87173897Y-70100451D01*
X87060057Y-70088112D01*
X86995945Y-70059365D01*
X86957604Y-70007514D01*
X86948051Y-69987565D01*
X86895668Y-69914012D01*
X86804439Y-69872001D01*
X86645210Y-69848012D01*
X86378666Y-69776539D01*
X86152271Y-69627502D01*
X85981372Y-69417831D01*
X85881316Y-69164452D01*
X85861538Y-68983587D01*
X85862931Y-68974157D01*
X86447692Y-68974157D01*
X86486385Y-69147776D01*
X86587454Y-69267486D01*
X86728384Y-69321089D01*
X86886662Y-69296386D01*
X86962342Y-69253018D01*
X87029758Y-69151370D01*
X87057124Y-69001089D01*
X87043417Y-68843098D01*
X86987612Y-68718321D01*
X86976039Y-68705489D01*
X86844979Y-68631818D01*
X86701978Y-68636168D01*
X86571715Y-68705990D01*
X86478868Y-68828736D01*
X86447692Y-68974157D01*
X85862931Y-68974157D01*
X85904835Y-68690383D01*
X86027803Y-68445257D01*
X86220063Y-68258419D01*
X86471232Y-68140077D01*
X86759698Y-68100384D01*
X87030583Y-68126965D01*
G37*
G36*
X82967404Y-68101457D02*
G01*
X83303751Y-68117105D01*
X83563814Y-68165887D01*
X83764956Y-68253130D01*
X83924545Y-68384159D01*
X83938310Y-68399229D01*
X84076389Y-68621942D01*
X84135922Y-68875479D01*
X84120616Y-69137955D01*
X84034183Y-69387490D01*
X83880329Y-69602199D01*
X83712142Y-69733635D01*
X83608288Y-69782375D01*
X83479242Y-69815440D01*
X83301802Y-69836763D01*
X83052768Y-69850275D01*
X83016250Y-69851583D01*
X82491154Y-69869652D01*
X82491154Y-69321538D01*
X83077308Y-69321538D01*
X83220301Y-69321538D01*
X83372148Y-69278316D01*
X83468349Y-69187982D01*
X83546356Y-69025832D01*
X83541599Y-68867325D01*
X83464713Y-68735517D01*
X83326333Y-68653465D01*
X83214510Y-68637692D01*
X83077308Y-68637692D01*
X83077308Y-68979615D01*
X83077308Y-69321538D01*
X82491154Y-69321538D01*
X82491154Y-68985018D01*
X82491154Y-68979615D01*
X82491154Y-68100384D01*
X82967404Y-68101457D01*
G37*
G36*
X85647766Y-68977117D02*
G01*
X85745949Y-69246546D01*
X85831422Y-69482532D01*
X85898949Y-69670507D01*
X85943297Y-69795900D01*
X85959231Y-69844137D01*
X85914698Y-69851684D01*
X85798343Y-69856990D01*
X85647026Y-69858845D01*
X85476638Y-69855980D01*
X85379340Y-69841553D01*
X85330573Y-69806815D01*
X85305773Y-69743019D01*
X85304172Y-69736730D01*
X85277446Y-69666313D01*
X85225080Y-69629801D01*
X85120269Y-69616268D01*
X85004591Y-69614615D01*
X84846819Y-69619294D01*
X84758155Y-69640668D01*
X84710181Y-69689742D01*
X84689231Y-69736730D01*
X84654265Y-69804977D01*
X84597820Y-69841663D01*
X84493077Y-69856398D01*
X84348517Y-69858845D01*
X84193967Y-69853327D01*
X84088124Y-69838977D01*
X84056171Y-69822211D01*
X84072955Y-69766698D01*
X84118390Y-69634878D01*
X84187052Y-69441998D01*
X84273518Y-69203308D01*
X84312144Y-69098039D01*
X84901368Y-69098039D01*
X84957476Y-69124747D01*
X84998867Y-69126153D01*
X85075993Y-69119483D01*
X85098073Y-69081127D01*
X85075845Y-68983562D01*
X85066498Y-68952798D01*
X85025907Y-68851296D01*
X84987957Y-68837992D01*
X84945255Y-68915916D01*
X84911655Y-69016249D01*
X84901368Y-69098039D01*
X84312144Y-69098039D01*
X84364559Y-68955192D01*
X84671007Y-68124807D01*
X85003654Y-68124807D01*
X85336301Y-68124807D01*
X85647766Y-68977117D01*
G37*
G36*
X84068799Y-62751013D02*
G01*
X84106789Y-62787844D01*
X84127168Y-62869820D01*
X84138170Y-63018851D01*
X84141763Y-63101477D01*
X84156026Y-63451225D01*
X84670876Y-63467823D01*
X84912032Y-63478406D01*
X85073832Y-63493803D01*
X85174596Y-63517243D01*
X85232647Y-63551951D01*
X85247819Y-63569448D01*
X85298855Y-63624816D01*
X85346862Y-63609802D01*
X85397911Y-63557237D01*
X85528316Y-63478389D01*
X85692179Y-63462992D01*
X85848707Y-63511008D01*
X85910385Y-63557692D01*
X85990570Y-63703084D01*
X86008077Y-63855295D01*
X86008077Y-64055206D01*
X86264519Y-63823665D01*
X86427289Y-63689578D01*
X86595399Y-63571331D01*
X86716346Y-63502711D01*
X86857486Y-63456719D01*
X87029788Y-63425912D01*
X87203525Y-63412274D01*
X87348971Y-63417787D01*
X87436402Y-63444434D01*
X87445384Y-63454086D01*
X87505576Y-63474765D01*
X87627126Y-63477476D01*
X87693694Y-63472022D01*
X87858636Y-63466581D01*
X87968148Y-63501208D01*
X88011966Y-63534352D01*
X88036924Y-63560515D01*
X88057166Y-63595737D01*
X88073185Y-63649725D01*
X88085473Y-63732188D01*
X88094523Y-63852832D01*
X88100829Y-64021366D01*
X88104882Y-64247497D01*
X88107177Y-64540933D01*
X88108205Y-64911381D01*
X88108459Y-65368550D01*
X88108461Y-65434970D01*
X88108310Y-65933085D01*
X88106870Y-66342253D01*
X88102667Y-66671223D01*
X88094222Y-66928740D01*
X88080059Y-67123551D01*
X88058702Y-67264402D01*
X88028675Y-67360041D01*
X87988499Y-67419213D01*
X87936699Y-67450665D01*
X87871798Y-67463143D01*
X87792320Y-67465395D01*
X87765671Y-67465384D01*
X87585727Y-67435708D01*
X87475364Y-67358481D01*
X87447884Y-67325390D01*
X87425982Y-67284454D01*
X87409027Y-67225034D01*
X87396386Y-67136489D01*
X87387429Y-67008179D01*
X87381523Y-66829462D01*
X87378038Y-66589699D01*
X87376342Y-66278250D01*
X87375803Y-65884473D01*
X87375769Y-65680459D01*
X87375769Y-64109340D01*
X87119327Y-64131356D01*
X86765194Y-64209884D01*
X86439315Y-64380481D01*
X86216947Y-64567404D01*
X86008077Y-64776274D01*
X86008077Y-66023137D01*
X86007707Y-66405381D01*
X86006011Y-66701996D01*
X86002115Y-66925042D01*
X85995141Y-67086582D01*
X85984213Y-67198676D01*
X85968455Y-67273387D01*
X85946990Y-67322775D01*
X85918942Y-67358903D01*
X85910385Y-67367692D01*
X85781701Y-67441070D01*
X85620513Y-67463946D01*
X85470128Y-67434409D01*
X85402462Y-67390099D01*
X85342783Y-67345408D01*
X85275475Y-67349602D01*
X85166954Y-67402310D01*
X85054063Y-67448162D01*
X84905160Y-67475629D01*
X84696400Y-67488047D01*
X84542692Y-67489672D01*
X84212636Y-67472760D01*
X83958528Y-67417736D01*
X83763793Y-67317841D01*
X83611852Y-67166316D01*
X83558480Y-67088345D01*
X83524851Y-67031437D01*
X83498369Y-66973404D01*
X83478028Y-66902147D01*
X83462821Y-66805568D01*
X83451743Y-66671568D01*
X83443787Y-66488048D01*
X83437946Y-66242910D01*
X83433215Y-65924055D01*
X83428678Y-65527795D01*
X83426650Y-65341522D01*
X84151923Y-65341522D01*
X84154462Y-65797730D01*
X84162059Y-66159033D01*
X84174683Y-66424715D01*
X84192303Y-66594057D01*
X84207827Y-66655406D01*
X84317614Y-66784836D01*
X84495840Y-66849024D01*
X84736290Y-66845743D01*
X84738077Y-66845491D01*
X84914985Y-66825512D01*
X85081676Y-66814520D01*
X85116635Y-66813825D01*
X85275385Y-66813290D01*
X85275385Y-65424496D01*
X85275073Y-65020052D01*
X85273707Y-64703129D01*
X85270642Y-64463555D01*
X85265235Y-64291161D01*
X85256839Y-64175773D01*
X85244810Y-64107223D01*
X85228504Y-64075338D01*
X85207275Y-64069948D01*
X85189904Y-64076130D01*
X85105768Y-64095291D01*
X84950206Y-64113462D01*
X84749469Y-64127963D01*
X84628173Y-64133446D01*
X84151923Y-64150333D01*
X84151923Y-65341522D01*
X83426650Y-65341522D01*
X83413702Y-64151936D01*
X83383153Y-64150333D01*
X83103884Y-64135679D01*
X82794067Y-64119422D01*
X82874630Y-64265961D01*
X82898550Y-64321490D01*
X82917729Y-64399071D01*
X82932846Y-64509893D01*
X82944581Y-64665146D01*
X82953612Y-64876022D01*
X82960619Y-65153710D01*
X82966281Y-65509401D01*
X82970101Y-65838552D01*
X82974163Y-66249409D01*
X82976359Y-66573774D01*
X82976061Y-66822841D01*
X82972643Y-67007803D01*
X82965477Y-67139854D01*
X82953938Y-67230185D01*
X82937398Y-67289991D01*
X82915231Y-67330464D01*
X82886809Y-67362797D01*
X82884620Y-67364994D01*
X82744832Y-67443651D01*
X82570147Y-67462925D01*
X82405226Y-67420133D01*
X82366163Y-67396142D01*
X82337874Y-67370169D01*
X82315456Y-67330773D01*
X82297948Y-67266632D01*
X82284387Y-67166420D01*
X82273813Y-67018815D01*
X82265265Y-66812492D01*
X82257779Y-66536128D01*
X82250396Y-66178399D01*
X82246923Y-65991815D01*
X82239107Y-65591257D01*
X82231347Y-65275963D01*
X82222631Y-65033512D01*
X82211945Y-64851481D01*
X82198273Y-64717450D01*
X82180602Y-64618995D01*
X82157917Y-64543696D01*
X82129206Y-64479129D01*
X82122341Y-64465821D01*
X81983734Y-64274641D01*
X81800710Y-64157302D01*
X81560218Y-64107630D01*
X81367303Y-64108680D01*
X81120160Y-64140221D01*
X80911364Y-64208758D01*
X80711619Y-64328385D01*
X80491628Y-64513198D01*
X80454660Y-64547804D01*
X80195385Y-64793016D01*
X80195385Y-66000497D01*
X80194999Y-66376211D01*
X80193204Y-66666842D01*
X80189045Y-66884999D01*
X80181567Y-67043292D01*
X80169814Y-67154329D01*
X80152830Y-67230720D01*
X80129662Y-67285073D01*
X80099352Y-67329996D01*
X80094147Y-67336681D01*
X79960052Y-67437408D01*
X79792764Y-67470423D01*
X79628513Y-67434051D01*
X79531320Y-67362698D01*
X79497981Y-67317154D01*
X79473082Y-67254853D01*
X79455052Y-67161205D01*
X79442315Y-67021619D01*
X79433297Y-66821506D01*
X79426425Y-66546274D01*
X79423008Y-66358641D01*
X79407747Y-65457270D01*
X79309559Y-65582096D01*
X79211371Y-65706922D01*
X77821870Y-65706922D01*
X76432369Y-65706922D01*
X76462934Y-65841249D01*
X76503154Y-65970466D01*
X76566633Y-66130601D01*
X76589298Y-66181026D01*
X76759626Y-66437016D01*
X76996614Y-66630074D01*
X77290300Y-66757873D01*
X77630721Y-66818081D01*
X78007914Y-66808370D01*
X78411916Y-66726412D01*
X78623567Y-66656604D01*
X78981172Y-66523415D01*
X79112028Y-66620742D01*
X79238961Y-66753397D01*
X79268466Y-66889735D01*
X79200721Y-67029376D01*
X79035906Y-67171938D01*
X78787026Y-67310956D01*
X78412500Y-67489807D01*
X77753077Y-67488223D01*
X77471823Y-67485544D01*
X77264315Y-67477098D01*
X77106643Y-67459928D01*
X76974902Y-67431074D01*
X76845183Y-67387576D01*
X76800937Y-67370376D01*
X76517296Y-67217231D01*
X76251662Y-67000218D01*
X76029214Y-66744260D01*
X75875129Y-66474282D01*
X75861955Y-66440861D01*
X75762602Y-66174522D01*
X75629413Y-66437357D01*
X75401823Y-66791633D01*
X75118889Y-67079664D01*
X74793243Y-67297874D01*
X74437523Y-67442686D01*
X74064363Y-67510523D01*
X73686396Y-67497808D01*
X73316260Y-67400966D01*
X72966588Y-67216418D01*
X72940818Y-67198429D01*
X72697500Y-67025326D01*
X72673077Y-68031232D01*
X72648654Y-69037139D01*
X72511603Y-69154915D01*
X72390724Y-69242562D01*
X72289218Y-69264352D01*
X72184615Y-69238038D01*
X72088783Y-69184622D01*
X72025865Y-69136632D01*
X72007446Y-69115348D01*
X71991867Y-69081055D01*
X71978893Y-69026036D01*
X71968287Y-68942573D01*
X71959814Y-68822949D01*
X71953237Y-68659446D01*
X71948321Y-68444348D01*
X71944829Y-68169937D01*
X71942525Y-67828495D01*
X71941174Y-67412306D01*
X71940539Y-66913651D01*
X71940385Y-66341922D01*
X71940523Y-65756510D01*
X71941104Y-65261026D01*
X71942374Y-64847711D01*
X71943708Y-64642894D01*
X72670815Y-64642894D01*
X72684158Y-65478213D01*
X72697500Y-66313532D01*
X72941731Y-66499662D01*
X73115054Y-66615464D01*
X73299938Y-66714487D01*
X73405769Y-66757635D01*
X73640080Y-66803826D01*
X73907581Y-66810387D01*
X74167183Y-66779348D01*
X74377798Y-66712743D01*
X74384899Y-66709228D01*
X74573602Y-66588531D01*
X74757316Y-66429011D01*
X74901568Y-66262442D01*
X74944603Y-66193309D01*
X75027316Y-65966409D01*
X75076557Y-65685412D01*
X75087770Y-65389538D01*
X75064700Y-65159478D01*
X75047049Y-65080788D01*
X76434231Y-65080788D01*
X76480797Y-65092184D01*
X76611387Y-65102316D01*
X76812331Y-65110694D01*
X77069964Y-65116830D01*
X77370619Y-65120236D01*
X77552500Y-65120768D01*
X78670769Y-65120768D01*
X78624453Y-64914630D01*
X78512414Y-64613531D01*
X78334249Y-64371258D01*
X78105161Y-64192513D01*
X77840352Y-64081995D01*
X77555025Y-64044407D01*
X77264380Y-64084447D01*
X76983622Y-64206818D01*
X76795524Y-64349102D01*
X76620553Y-64547999D01*
X76515374Y-64768632D01*
X76507562Y-64793875D01*
X76466063Y-64940682D01*
X76439481Y-65048290D01*
X76434231Y-65080788D01*
X75047049Y-65080788D01*
X75008765Y-64910112D01*
X74934917Y-64722672D01*
X74825110Y-64561390D01*
X74691248Y-64419346D01*
X74437737Y-64237224D01*
X74142666Y-64134009D01*
X73821028Y-64108947D01*
X73487821Y-64161290D01*
X73158039Y-64290285D01*
X72846678Y-64495182D01*
X72825448Y-64512779D01*
X72670815Y-64642894D01*
X71943708Y-64642894D01*
X71944582Y-64508800D01*
X71947975Y-64236532D01*
X71952800Y-64023143D01*
X71959304Y-63860873D01*
X71967737Y-63741957D01*
X71978344Y-63658635D01*
X71991374Y-63603143D01*
X72007074Y-63567719D01*
X72025691Y-63544601D01*
X72029711Y-63540839D01*
X72139391Y-63484958D01*
X72283011Y-63460080D01*
X72290795Y-63459999D01*
X72472589Y-63501897D01*
X72602355Y-63625665D01*
X72663920Y-63772196D01*
X72697967Y-63899504D01*
X72941052Y-63726678D01*
X73290176Y-63534128D01*
X73660018Y-63429987D01*
X74038233Y-63410739D01*
X74412476Y-63472865D01*
X74770403Y-63612848D01*
X75099669Y-63827171D01*
X75387928Y-64112315D01*
X75622836Y-64464763D01*
X75638761Y-64495381D01*
X75714633Y-64634589D01*
X75770889Y-64719654D01*
X75796907Y-64734879D01*
X75797549Y-64729999D01*
X75830277Y-64593746D01*
X75912880Y-64412065D01*
X76029516Y-64211810D01*
X76164344Y-64019840D01*
X76301521Y-63863009D01*
X76318558Y-63846735D01*
X76530246Y-63673231D01*
X76745072Y-63553503D01*
X76987382Y-63479472D01*
X77281521Y-63443061D01*
X77557692Y-63435576D01*
X77802029Y-63438398D01*
X77978307Y-63450121D01*
X78116075Y-63475629D01*
X78244884Y-63519807D01*
X78349993Y-63566537D01*
X78671255Y-63768228D01*
X78949226Y-64042926D01*
X79168529Y-64370019D01*
X79313787Y-64728895D01*
X79353520Y-64911695D01*
X79367943Y-64980027D01*
X79380235Y-64976349D01*
X79391121Y-64894565D01*
X79401329Y-64728583D01*
X79411583Y-64472307D01*
X79413846Y-64405354D01*
X79427743Y-64077729D01*
X79448213Y-63835230D01*
X79480500Y-63665301D01*
X79529847Y-63555385D01*
X79601498Y-63492926D01*
X79700698Y-63465366D01*
X79808641Y-63459999D01*
X79989826Y-63502855D01*
X80121131Y-63621482D01*
X80189019Y-63800970D01*
X80195385Y-63885930D01*
X80195385Y-64054456D01*
X80419474Y-63857205D01*
X80696510Y-63645899D01*
X80972808Y-63511335D01*
X81283254Y-63439289D01*
X81490123Y-63420678D01*
X81860032Y-63433814D01*
X82170264Y-63518051D01*
X82431875Y-63677107D01*
X82534559Y-63771885D01*
X82688526Y-63930739D01*
X83285478Y-63326916D01*
X83511857Y-63100630D01*
X83682590Y-62937391D01*
X83808318Y-62828479D01*
X83899681Y-62765178D01*
X83967318Y-62738771D01*
X84004965Y-62737412D01*
X84068799Y-62751013D01*
G37*
G36*
X90455029Y-63448409D02*
G01*
X90820655Y-63561397D01*
X91113179Y-63726678D01*
X91356263Y-63899504D01*
X91390311Y-63772196D01*
X91475261Y-63602441D01*
X91608691Y-63493683D01*
X91766970Y-63454021D01*
X91926467Y-63491553D01*
X92016154Y-63557692D01*
X92040100Y-63584742D01*
X92059771Y-63619552D01*
X92075579Y-63671276D01*
X92087938Y-63749067D01*
X92097261Y-63862080D01*
X92103961Y-64019470D01*
X92108452Y-64230389D01*
X92111148Y-64503993D01*
X92112461Y-64849436D01*
X92112805Y-65275872D01*
X92112652Y-65694711D01*
X92111215Y-66168055D01*
X92107624Y-66607291D01*
X92102106Y-67002147D01*
X92094888Y-67342353D01*
X92086195Y-67617638D01*
X92076254Y-67817731D01*
X92065291Y-67932362D01*
X92063105Y-67943656D01*
X91930547Y-68332774D01*
X91728719Y-68668308D01*
X91466270Y-68938607D01*
X91196723Y-69110964D01*
X91066348Y-69170759D01*
X90947468Y-69210992D01*
X90814366Y-69236097D01*
X90641327Y-69250507D01*
X90402635Y-69258653D01*
X90330961Y-69260205D01*
X90025416Y-69261460D01*
X89785209Y-69249132D01*
X89578582Y-69220392D01*
X89387493Y-69176123D01*
X89132035Y-69095670D01*
X88898100Y-69000438D01*
X88703934Y-68899898D01*
X88567781Y-68803521D01*
X88507886Y-68720781D01*
X88507587Y-68719309D01*
X88515852Y-68534814D01*
X88601176Y-68375658D01*
X88669986Y-68315835D01*
X88732532Y-68280762D01*
X88797132Y-68268131D01*
X88886441Y-68281052D01*
X89023112Y-68322634D01*
X89215133Y-68390679D01*
X89639890Y-68515142D01*
X90039149Y-68575029D01*
X90401750Y-68570972D01*
X90716531Y-68503604D01*
X90972330Y-68373557D01*
X91074500Y-68285353D01*
X91230916Y-68072852D01*
X91329952Y-67810620D01*
X91376268Y-67483807D01*
X91381154Y-67308600D01*
X91381154Y-66919867D01*
X91197981Y-67063817D01*
X90843883Y-67284686D01*
X90465116Y-67411538D01*
X90065644Y-67443370D01*
X89808943Y-67414881D01*
X89402524Y-67295693D01*
X89047380Y-67101423D01*
X88748105Y-66842808D01*
X88509294Y-66530584D01*
X88335539Y-66175488D01*
X88231436Y-65788257D01*
X88202794Y-65396250D01*
X88953254Y-65396250D01*
X88979066Y-65749042D01*
X89080865Y-66065842D01*
X89252861Y-66335894D01*
X89489264Y-66548443D01*
X89784284Y-66692731D01*
X89931713Y-66731932D01*
X90220528Y-66755479D01*
X90523393Y-66721207D01*
X90792677Y-66634996D01*
X90818438Y-66622475D01*
X90984059Y-66525966D01*
X91155967Y-66407665D01*
X91196996Y-66375873D01*
X91381154Y-66227880D01*
X91381154Y-65435777D01*
X91381154Y-64643675D01*
X91188687Y-64469792D01*
X90997424Y-64309676D01*
X90828315Y-64206467D01*
X90649129Y-64148351D01*
X90427635Y-64123516D01*
X90233269Y-64119608D01*
X90007155Y-64123308D01*
X89847781Y-64138456D01*
X89724360Y-64170782D01*
X89606107Y-64226017D01*
X89578213Y-64241538D01*
X89321631Y-64433662D01*
X89136193Y-64683438D01*
X89013262Y-65002657D01*
X89009220Y-65018221D01*
X88953254Y-65396250D01*
X88202794Y-65396250D01*
X88201579Y-65379626D01*
X88250562Y-64960333D01*
X88382980Y-64541114D01*
X88486980Y-64325527D01*
X88710409Y-64011936D01*
X88996392Y-63760582D01*
X89329387Y-63575008D01*
X89693853Y-63458759D01*
X90074248Y-63415378D01*
X90455029Y-63448409D01*
G37*
G36*
X70215341Y-63440580D02*
G01*
X70399473Y-63470369D01*
X70561202Y-63520666D01*
X70738134Y-63600176D01*
X71098457Y-63829261D01*
X71391552Y-64123888D01*
X71612912Y-64474699D01*
X71758029Y-64872339D01*
X71822397Y-65307450D01*
X71801509Y-65770675D01*
X71797416Y-65799359D01*
X71688658Y-66250378D01*
X71506211Y-66639913D01*
X71251994Y-66965223D01*
X70927926Y-67223565D01*
X70723387Y-67334812D01*
X70558658Y-67406309D01*
X70410464Y-67452179D01*
X70245382Y-67479211D01*
X70029990Y-67494193D01*
X69917425Y-67498493D01*
X69652315Y-67502195D01*
X69450618Y-67490512D01*
X69278784Y-67459952D01*
X69131731Y-67416724D01*
X68743842Y-67238519D01*
X68418203Y-66985349D01*
X68156833Y-66659167D01*
X67976391Y-66300150D01*
X67906531Y-66042102D01*
X67867652Y-65724767D01*
X67861393Y-65454050D01*
X68599161Y-65454050D01*
X68599178Y-65460158D01*
X68622029Y-65804673D01*
X68693906Y-66083306D01*
X68823301Y-66319061D01*
X68983581Y-66501690D01*
X69236327Y-66682577D01*
X69535505Y-66793025D01*
X69855647Y-66828736D01*
X70171285Y-66785409D01*
X70328461Y-66728739D01*
X70624939Y-66549544D01*
X70843540Y-66314216D01*
X70985968Y-66019879D01*
X71053927Y-65663657D01*
X71060677Y-65492782D01*
X71049074Y-65183884D01*
X71007172Y-64943927D01*
X70925636Y-64746436D01*
X70795133Y-64564935D01*
X70696463Y-64459690D01*
X70454900Y-64259380D01*
X70202915Y-64142530D01*
X69911073Y-64096777D01*
X69828262Y-64094999D01*
X69482254Y-64139189D01*
X69179026Y-64268048D01*
X68927683Y-64476011D01*
X68737329Y-64757513D01*
X68734285Y-64763694D01*
X68663803Y-64922354D01*
X68622626Y-65065365D01*
X68603497Y-65230130D01*
X68599161Y-65454050D01*
X67861393Y-65454050D01*
X67859715Y-65381494D01*
X67882682Y-65045632D01*
X67936513Y-64750531D01*
X67978351Y-64619993D01*
X68177897Y-64231761D01*
X68441254Y-63916328D01*
X68764622Y-63675978D01*
X69144199Y-63512995D01*
X69576185Y-63429661D01*
X69971184Y-63422588D01*
X70215341Y-63440580D01*
G37*
G36*
X87908737Y-61888594D02*
G01*
X88070314Y-61987298D01*
X88106345Y-62027441D01*
X88188141Y-62195711D01*
X88188900Y-62365542D01*
X88123485Y-62519848D01*
X88006754Y-62641542D01*
X87853568Y-62713536D01*
X87678788Y-62718745D01*
X87546731Y-62670903D01*
X87438273Y-62592340D01*
X87387981Y-62540937D01*
X87342171Y-62424295D01*
X87330969Y-62265442D01*
X87354223Y-62113463D01*
X87389534Y-62039228D01*
X87539288Y-61915036D01*
X87722042Y-61864666D01*
X87908737Y-61888594D01*
G37*
%TO.C,JP2*%
G36*
X82000000Y-80025000D02*
G01*
X81700000Y-80025000D01*
X81700000Y-78525000D01*
X82000000Y-78525000D01*
X82000000Y-80025000D01*
G37*
%TO.C,JP1*%
G36*
X88950000Y-104350000D02*
G01*
X90450000Y-104350000D01*
X90450000Y-104050000D01*
X88950000Y-104050000D01*
X88950000Y-104350000D01*
G37*
%TD*%
D14*
%TO.C,J19*%
X59105000Y-132110000D03*
X59105000Y-137890000D03*
D15*
X60180000Y-131800000D03*
X60180000Y-132600000D03*
D16*
X60180000Y-133750000D03*
X60180000Y-134750000D03*
X60180000Y-135250000D03*
X60180000Y-136250000D03*
D15*
X60180000Y-137400000D03*
X60180000Y-138200000D03*
X60180000Y-138200000D03*
X60180000Y-137400000D03*
D16*
X60180000Y-136750000D03*
X60180000Y-135750000D03*
X60180000Y-134250000D03*
X60180000Y-133250000D03*
D15*
X60180000Y-132600000D03*
X60180000Y-131800000D03*
D17*
X59605000Y-130680000D03*
D18*
X55425000Y-130680000D03*
D17*
X59605000Y-139320000D03*
D18*
X55425000Y-139320000D03*
%TD*%
D19*
%TO.C,R107*%
X170590852Y-140860950D03*
X172209148Y-140539050D03*
%TD*%
D20*
%TO.C,TP39*%
X162500000Y-61750000D03*
%TD*%
D21*
%TO.C,R131*%
X201158345Y-120014038D03*
X200241655Y-121385962D03*
%TD*%
D22*
%TO.C,U36*%
X159385547Y-61200909D03*
X158139950Y-61448674D03*
X156894353Y-61696439D03*
X155648755Y-61944203D03*
X156614453Y-66799091D03*
X157860050Y-66551326D03*
X159105647Y-66303561D03*
X160351245Y-66055797D03*
%TD*%
D23*
%TO.C,TP12*%
X167500000Y-138250000D03*
%TD*%
D24*
%TO.C,J29*%
X169261294Y-143265656D03*
D25*
X167942873Y-144927888D03*
X170878667Y-144638738D03*
%TD*%
D26*
%TO.C,J35*%
X192580247Y-133606630D03*
D27*
X192407507Y-135721201D03*
X194687887Y-133849741D03*
%TD*%
D28*
%TO.C,J34*%
X177620128Y-58397019D03*
D29*
X179474299Y-57365855D03*
X176651325Y-56509515D03*
%TD*%
D30*
%TO.C,J37*%
X198606629Y-127580249D03*
D31*
X198849740Y-129687889D03*
X200721200Y-127407509D03*
%TD*%
D32*
%TO.C,U23*%
X152000000Y-74112500D03*
X152500000Y-74112500D03*
X153000000Y-74112500D03*
X153500000Y-74112500D03*
X154000000Y-74112500D03*
X154000000Y-69887500D03*
X153500000Y-69887500D03*
X153000000Y-69887500D03*
X152500000Y-69887500D03*
X152000000Y-69887500D03*
%TD*%
D33*
%TO.C,C113*%
X189620000Y-120000000D03*
X190580000Y-120000000D03*
%TD*%
%TO.C,C85*%
X189770000Y-110000000D03*
X190730000Y-110000000D03*
%TD*%
D34*
%TO.C,C20*%
X137025000Y-113500000D03*
X139975000Y-113500000D03*
%TD*%
D35*
%TO.C,R108*%
X189871924Y-67058345D03*
X188500000Y-66141655D03*
%TD*%
D36*
%TO.C,TP30*%
X193750000Y-74750000D03*
%TD*%
D37*
%TO.C,R91*%
X183500000Y-126500000D03*
X183500000Y-125480000D03*
%TD*%
%TO.C,R93*%
X171500000Y-131520000D03*
X171500000Y-130500000D03*
%TD*%
D38*
%TO.C,R104*%
X197241655Y-74114038D03*
X198158345Y-75485962D03*
%TD*%
D39*
%TO.C,R103*%
X160609148Y-141060950D03*
X158990852Y-140739050D03*
%TD*%
D40*
%TO.C,R113*%
X191510000Y-117500000D03*
X190490000Y-117500000D03*
%TD*%
D41*
%TO.C,U16*%
X178000000Y-125887500D03*
X177500000Y-125887500D03*
X177000000Y-125887500D03*
X176500000Y-125887500D03*
X176000000Y-125887500D03*
X176000000Y-130112500D03*
X176500000Y-130112500D03*
X177000000Y-130112500D03*
X177500000Y-130112500D03*
X178000000Y-130112500D03*
%TD*%
D40*
%TO.C,R105*%
X191510000Y-81500000D03*
X190490000Y-81500000D03*
%TD*%
%TO.C,R110*%
X196500000Y-94500000D03*
X195480000Y-94500000D03*
%TD*%
D33*
%TO.C,C102*%
X178020000Y-96000000D03*
X178980000Y-96000000D03*
%TD*%
D42*
%TO.C,R123*%
X158500000Y-68490000D03*
X158500000Y-69510000D03*
%TD*%
D43*
%TO.C,C99*%
X169000000Y-110980000D03*
X169000000Y-110020000D03*
%TD*%
D40*
%TO.C,R111*%
X196510000Y-105500000D03*
X195490000Y-105500000D03*
%TD*%
D44*
%TO.C,J26*%
X203341528Y-79506028D03*
D45*
X205381768Y-80087982D03*
X203991148Y-77486314D03*
%TD*%
D46*
%TO.C,C112*%
X197100000Y-100000000D03*
X199000000Y-100000000D03*
%TD*%
D47*
%TO.C,R97*%
X204639050Y-88590852D03*
X204960950Y-90209148D03*
%TD*%
D48*
%TO.C,TP20*%
X199250000Y-117000000D03*
%TD*%
D43*
%TO.C,C114*%
X160500000Y-68780000D03*
X160500000Y-67820000D03*
%TD*%
D33*
%TO.C,C13*%
X138020000Y-111000000D03*
X138980000Y-111000000D03*
%TD*%
D49*
%TO.C,J42*%
X144506028Y-61658472D03*
D50*
X145087982Y-59618232D03*
X142486314Y-61008852D03*
%TD*%
D51*
%TO.C,U29*%
X174137500Y-97075000D03*
X174137500Y-97725000D03*
X174137500Y-98375000D03*
X174137500Y-99025000D03*
X174137500Y-99675000D03*
X174137500Y-100325000D03*
X174137500Y-100975000D03*
X174137500Y-101625000D03*
X174137500Y-102275000D03*
X174137500Y-102925000D03*
X179862500Y-102925000D03*
X179862500Y-102275000D03*
X179862500Y-101625000D03*
X179862500Y-100975000D03*
X179862500Y-100325000D03*
X179862500Y-99675000D03*
X179862500Y-99025000D03*
X179862500Y-98375000D03*
X179862500Y-97725000D03*
X179862500Y-97075000D03*
%TD*%
D52*
%TO.C,R124*%
X197941655Y-124885962D03*
X198858345Y-123514038D03*
%TD*%
D53*
%TO.C,H5*%
X205000000Y-55000000D03*
D54*
X205000000Y-55000000D03*
%TD*%
D55*
%TO.C,C80*%
X179000000Y-124770000D03*
X179000000Y-125730000D03*
%TD*%
D34*
%TO.C,C91*%
X174525000Y-77000000D03*
X177475000Y-77000000D03*
%TD*%
D37*
%TO.C,R94*%
X170500000Y-131520000D03*
X170500000Y-130500000D03*
%TD*%
D55*
%TO.C,C98*%
X169000000Y-113020000D03*
X169000000Y-113980000D03*
%TD*%
D56*
%TO.C,TP15*%
X182000000Y-134250000D03*
%TD*%
D42*
%TO.C,R129*%
X182500000Y-73490000D03*
X182500000Y-74510000D03*
%TD*%
%TO.C,R130*%
X183500000Y-73490000D03*
X183500000Y-74510000D03*
%TD*%
D57*
%TO.C,TP41*%
X148000000Y-65500000D03*
%TD*%
D19*
%TO.C,R132*%
X153590852Y-60360950D03*
X155209148Y-60039050D03*
%TD*%
D58*
%TO.C,J32*%
X185493974Y-61658474D03*
D59*
X187513688Y-61008854D03*
X184912020Y-59618234D03*
%TD*%
D41*
%TO.C,U15*%
X154000000Y-125887500D03*
X153500000Y-125887500D03*
X153000000Y-125887500D03*
X152500000Y-125887500D03*
X152000000Y-125887500D03*
X152000000Y-130112500D03*
X152500000Y-130112500D03*
X153000000Y-130112500D03*
X153500000Y-130112500D03*
X154000000Y-130112500D03*
%TD*%
D32*
%TO.C,U21*%
X176000000Y-74112500D03*
X176500000Y-74112500D03*
X177000000Y-74112500D03*
X177500000Y-74112500D03*
X178000000Y-74112500D03*
X178000000Y-69887500D03*
X177500000Y-69887500D03*
X177000000Y-69887500D03*
X176500000Y-69887500D03*
X176000000Y-69887500D03*
%TD*%
D55*
%TO.C,C106*%
X169300000Y-131220000D03*
X169300000Y-132180000D03*
%TD*%
D60*
%TO.C,J25*%
X152379872Y-141602981D03*
D61*
X150525701Y-142634145D03*
X153348675Y-143490485D03*
%TD*%
D62*
%TO.C,U38*%
X144708913Y-66383751D03*
X143652947Y-67089326D03*
X142596980Y-67794900D03*
X141541014Y-68500474D03*
X144291087Y-72616249D03*
X145347053Y-71910674D03*
X146403020Y-71205100D03*
X147458986Y-70499526D03*
%TD*%
D63*
%TO.C,U31*%
X188458986Y-68500474D03*
X187403020Y-67794900D03*
X186347053Y-67089326D03*
X185291087Y-66383751D03*
X182541014Y-70499526D03*
X183596980Y-71205100D03*
X184652947Y-71910674D03*
X185708913Y-72616249D03*
%TD*%
D64*
%TO.C,U18*%
X190887500Y-111000000D03*
X190887500Y-111500000D03*
X190887500Y-112000000D03*
X190887500Y-112500000D03*
X190887500Y-113000000D03*
X195112500Y-113000000D03*
X195112500Y-112500000D03*
X195112500Y-112000000D03*
X195112500Y-111500000D03*
X195112500Y-111000000D03*
%TD*%
D40*
%TO.C,R106*%
X191510000Y-82500000D03*
X190490000Y-82500000D03*
%TD*%
D65*
%TO.C,J38*%
X160738706Y-56734344D03*
D66*
X162057127Y-55072112D03*
X159121333Y-55361262D03*
%TD*%
D40*
%TO.C,R112*%
X196510000Y-106500000D03*
X195490000Y-106500000D03*
%TD*%
D67*
%TO.C,TP4*%
X181000000Y-115000000D03*
%TD*%
D68*
%TO.C,J43*%
X208265656Y-104261297D03*
D69*
X209638738Y-105878670D03*
X209927888Y-102942876D03*
%TD*%
D42*
%TO.C,R122*%
X147500000Y-73490000D03*
X147500000Y-74510000D03*
%TD*%
D70*
%TO.C,R102*%
X200558345Y-78985962D03*
X199641655Y-77614038D03*
%TD*%
D71*
%TO.C,TP10*%
X162500000Y-138250000D03*
%TD*%
D55*
%TO.C,C104*%
X156800000Y-130440000D03*
X156800000Y-131400000D03*
%TD*%
D72*
%TO.C,TP23*%
X193000000Y-115000000D03*
%TD*%
D73*
%TO.C,J27*%
X160738703Y-143265656D03*
D74*
X159121330Y-144638738D03*
X162057124Y-144927888D03*
%TD*%
D75*
%TO.C,TP21*%
X201500000Y-112250000D03*
%TD*%
D76*
%TO.C,U34*%
X162075000Y-90862500D03*
X162725000Y-90862500D03*
X163375000Y-90862500D03*
X164025000Y-90862500D03*
X164675000Y-90862500D03*
X165325000Y-90862500D03*
X165975000Y-90862500D03*
X166625000Y-90862500D03*
X167275000Y-90862500D03*
X167925000Y-90862500D03*
X167925000Y-85137500D03*
X167275000Y-85137500D03*
X166625000Y-85137500D03*
X165975000Y-85137500D03*
X165325000Y-85137500D03*
X164675000Y-85137500D03*
X164025000Y-85137500D03*
X163375000Y-85137500D03*
X162725000Y-85137500D03*
X162075000Y-85137500D03*
%TD*%
D40*
%TO.C,R116*%
X191510000Y-118500000D03*
X190490000Y-118500000D03*
%TD*%
D43*
%TO.C,C17*%
X131600000Y-86980000D03*
X131600000Y-86020000D03*
%TD*%
D77*
%TO.C,R119*%
X190885962Y-132241655D03*
X189514038Y-133158345D03*
%TD*%
D33*
%TO.C,C21*%
X138020000Y-100000000D03*
X138980000Y-100000000D03*
%TD*%
D37*
%TO.C,R99*%
X147500000Y-126500000D03*
X147500000Y-125480000D03*
%TD*%
D78*
%TO.C,J33*%
X185493972Y-138341528D03*
D79*
X184912018Y-140381768D03*
X187513686Y-138991148D03*
%TD*%
D55*
%TO.C,C19*%
X133500000Y-113020000D03*
X133500000Y-113980000D03*
%TD*%
D42*
%TO.C,R128*%
X171500000Y-68490000D03*
X171500000Y-69510000D03*
%TD*%
D80*
%TO.C,R114*%
X176409148Y-139639050D03*
X174790852Y-139960950D03*
%TD*%
D33*
%TO.C,C3*%
X140720000Y-101400000D03*
X141680000Y-101400000D03*
%TD*%
D43*
%TO.C,C92*%
X175000000Y-75230000D03*
X175000000Y-74270000D03*
%TD*%
D37*
%TO.C,R100*%
X146500000Y-126500000D03*
X146500000Y-125480000D03*
%TD*%
D81*
%TO.C,TP37*%
X167500000Y-61750000D03*
%TD*%
D82*
%TO.C,TP8*%
X148000000Y-134500000D03*
%TD*%
D72*
%TO.C,TP11*%
X150000000Y-128000000D03*
%TD*%
D83*
%TO.C,J40*%
X152379875Y-58397018D03*
D84*
X153348678Y-56509514D03*
X150525704Y-57365854D03*
%TD*%
D85*
%TO.C,J28*%
X198606630Y-72419753D03*
D86*
X200721201Y-72592493D03*
X198849741Y-70312113D03*
%TD*%
D37*
%TO.C,R95*%
X159500000Y-131520000D03*
X159500000Y-130500000D03*
%TD*%
D87*
%TO.C,TP28*%
X201500000Y-87750000D03*
%TD*%
D75*
%TO.C,TP22*%
X203250000Y-102500000D03*
%TD*%
D55*
%TO.C,C109*%
X161000000Y-89020000D03*
X161000000Y-89980000D03*
%TD*%
D43*
%TO.C,C97*%
X151000000Y-75250000D03*
X151000000Y-74290000D03*
%TD*%
D88*
%TO.C,R89*%
X140114038Y-132941655D03*
X141485962Y-133858345D03*
%TD*%
D89*
%TO.C,C84*%
X188000000Y-109525000D03*
X188000000Y-112475000D03*
%TD*%
D82*
%TO.C,TP7*%
X139500000Y-128900000D03*
%TD*%
D33*
%TO.C,C5*%
X138020000Y-97500000D03*
X138980000Y-97500000D03*
%TD*%
%TO.C,C89*%
X189770000Y-86000000D03*
X190730000Y-86000000D03*
%TD*%
D37*
%TO.C,R92*%
X182500000Y-126500000D03*
X182500000Y-125480000D03*
%TD*%
D90*
%TO.C,TP33*%
X182000000Y-65500000D03*
%TD*%
D37*
%TO.C,R98*%
X158500000Y-131520000D03*
X158500000Y-130500000D03*
%TD*%
D53*
%TO.C,H6*%
X205000000Y-145000000D03*
D54*
X205000000Y-145000000D03*
%TD*%
D91*
%TO.C,R117*%
X186114038Y-135458345D03*
X187485962Y-134541655D03*
%TD*%
D55*
%TO.C,C77*%
X155000000Y-124770000D03*
X155000000Y-125730000D03*
%TD*%
D81*
%TO.C,TP35*%
X177250000Y-63500000D03*
%TD*%
D43*
%TO.C,C108*%
X161000000Y-86980000D03*
X161000000Y-86020000D03*
%TD*%
D92*
%TO.C,D7*%
X135000000Y-112950000D03*
X135000000Y-115050000D03*
%TD*%
D93*
%TO.C,R90*%
X205860950Y-94309148D03*
X205539050Y-92690852D03*
%TD*%
D40*
%TO.C,R109*%
X196500000Y-93500000D03*
X195480000Y-93500000D03*
%TD*%
D42*
%TO.C,R127*%
X170500000Y-68490000D03*
X170500000Y-69510000D03*
%TD*%
D94*
%TO.C,J44*%
X137419753Y-66393370D03*
D95*
X137592493Y-64278799D03*
X135312113Y-66150259D03*
%TD*%
D53*
%TO.C,H3*%
X137000000Y-145000000D03*
D54*
X137000000Y-145000000D03*
%TD*%
D57*
%TO.C,TP42*%
X139500000Y-71500000D03*
%TD*%
D33*
%TO.C,C101*%
X196220000Y-95700000D03*
X197180000Y-95700000D03*
%TD*%
%TO.C,C105*%
X192020000Y-83500000D03*
X192980000Y-83500000D03*
%TD*%
D96*
%TO.C,R133*%
X204939050Y-110209148D03*
X205260950Y-108590852D03*
%TD*%
D97*
%TO.C,J23*%
X144506026Y-138341526D03*
D98*
X142486312Y-138991146D03*
X145087980Y-140381766D03*
%TD*%
D72*
%TO.C,TP38*%
X180000000Y-72000000D03*
%TD*%
D99*
%TO.C,J22*%
X208265656Y-95738706D03*
D100*
X209927888Y-97057127D03*
X209638738Y-94121333D03*
%TD*%
D101*
%TO.C,U28*%
X198616249Y-79708913D03*
X197910674Y-78652947D03*
X197205100Y-77596980D03*
X196499526Y-76541014D03*
X192383751Y-79291087D03*
X193089326Y-80347053D03*
X193794900Y-81403020D03*
X194500474Y-82458986D03*
%TD*%
D102*
%TO.C,U30*%
X170614453Y-138799091D03*
X171860050Y-138551326D03*
X173105647Y-138303561D03*
X174351245Y-138055797D03*
X173385547Y-133200909D03*
X172139950Y-133448674D03*
X170894353Y-133696439D03*
X169648755Y-133944203D03*
%TD*%
D103*
%TO.C,R135*%
X206060950Y-104390852D03*
X205739050Y-106009148D03*
%TD*%
D43*
%TO.C,C107*%
X185000000Y-75400000D03*
X185000000Y-74440000D03*
%TD*%
D104*
%TO.C,U27*%
X155648755Y-138055797D03*
X156894353Y-138303561D03*
X158139950Y-138551326D03*
X159385547Y-138799091D03*
X160351245Y-133944203D03*
X159105647Y-133696439D03*
X157860050Y-133448674D03*
X156614453Y-133200909D03*
%TD*%
D33*
%TO.C,C115*%
X195440000Y-108200000D03*
X196400000Y-108200000D03*
%TD*%
D72*
%TO.C,TP31*%
X193000000Y-91000000D03*
%TD*%
D88*
%TO.C,R115*%
X185014038Y-63841655D03*
X186385962Y-64758345D03*
%TD*%
D42*
%TO.C,R126*%
X159500000Y-68490000D03*
X159500000Y-69510000D03*
%TD*%
D105*
%TO.C,J31*%
X177620125Y-141602982D03*
D106*
X176651322Y-143490486D03*
X179474296Y-142634146D03*
%TD*%
D107*
%TO.C,TP24*%
X181000000Y-85000000D03*
%TD*%
D108*
%TO.C,C103*%
X175980000Y-96000000D03*
X175020000Y-96000000D03*
%TD*%
D42*
%TO.C,R121*%
X146500000Y-73490000D03*
X146500000Y-74510000D03*
%TD*%
D20*
%TO.C,TP40*%
X152750000Y-63500000D03*
%TD*%
D23*
%TO.C,TP13*%
X177000000Y-136250000D03*
%TD*%
D80*
%TO.C,R125*%
X159409148Y-59139050D03*
X157790852Y-59460950D03*
%TD*%
D89*
%TO.C,C88*%
X188000000Y-87525000D03*
X188000000Y-90475000D03*
%TD*%
D34*
%TO.C,C96*%
X152525000Y-77000000D03*
X155475000Y-77000000D03*
%TD*%
D91*
%TO.C,R136*%
X139014038Y-67758345D03*
X140385962Y-66841655D03*
%TD*%
D109*
%TO.C,C79*%
X177475000Y-123000000D03*
X174525000Y-123000000D03*
%TD*%
D36*
%TO.C,TP29*%
X199250000Y-83000000D03*
%TD*%
D71*
%TO.C,TP9*%
X152750000Y-136250000D03*
%TD*%
D110*
%TO.C,J41*%
X206602981Y-112620128D03*
D111*
X207634145Y-114474299D03*
X208490485Y-111651325D03*
%TD*%
D64*
%TO.C,U20*%
X190887500Y-87000000D03*
X190887500Y-87500000D03*
X190887500Y-88000000D03*
X190887500Y-88500000D03*
X190887500Y-89000000D03*
X195112500Y-89000000D03*
X195112500Y-88500000D03*
X195112500Y-88000000D03*
X195112500Y-87500000D03*
X195112500Y-87000000D03*
%TD*%
D112*
%TO.C,J36*%
X169261297Y-56734344D03*
D113*
X170878670Y-55361262D03*
X167942876Y-55072112D03*
%TD*%
D114*
%TO.C,J21*%
X137419751Y-133606629D03*
D115*
X135312111Y-133849740D03*
X137592491Y-135721200D03*
%TD*%
D72*
%TO.C,TP43*%
X156000000Y-72000000D03*
%TD*%
D116*
%TO.C,R20*%
X137990000Y-99000000D03*
X139010000Y-99000000D03*
%TD*%
D56*
%TO.C,TP17*%
X190250000Y-128750000D03*
%TD*%
D117*
%TO.C,U26*%
X203799091Y-94385547D03*
X203551326Y-93139950D03*
X203303561Y-91894353D03*
X203055797Y-90648755D03*
X198200909Y-91614453D03*
X198448674Y-92860050D03*
X198696439Y-94105647D03*
X198944203Y-95351245D03*
%TD*%
D118*
%TO.C,U24*%
X167925000Y-109137500D03*
X167275000Y-109137500D03*
X166625000Y-109137500D03*
X165975000Y-109137500D03*
X165325000Y-109137500D03*
X164675000Y-109137500D03*
X164025000Y-109137500D03*
X163375000Y-109137500D03*
X162725000Y-109137500D03*
X162075000Y-109137500D03*
X162075000Y-114862500D03*
X162725000Y-114862500D03*
X163375000Y-114862500D03*
X164025000Y-114862500D03*
X164675000Y-114862500D03*
X165325000Y-114862500D03*
X165975000Y-114862500D03*
X166625000Y-114862500D03*
X167275000Y-114862500D03*
X167925000Y-114862500D03*
%TD*%
D119*
%TO.C,U32*%
X185291087Y-133616249D03*
X186347053Y-132910674D03*
X187403020Y-132205100D03*
X188458986Y-131499526D03*
X185708913Y-127383751D03*
X184652947Y-128089326D03*
X183596980Y-128794900D03*
X182541014Y-129500474D03*
%TD*%
D72*
%TO.C,TP18*%
X174000000Y-128000000D03*
%TD*%
D87*
%TO.C,TP26*%
X203250000Y-97500000D03*
%TD*%
D53*
%TO.C,H4*%
X137000000Y-55000000D03*
D54*
X137000000Y-55000000D03*
%TD*%
D48*
%TO.C,TP19*%
X193750000Y-125250000D03*
%TD*%
D55*
%TO.C,C110*%
X181500000Y-126920000D03*
X181500000Y-127880000D03*
%TD*%
D109*
%TO.C,C18*%
X139975000Y-86500000D03*
X137025000Y-86500000D03*
%TD*%
%TO.C,C76*%
X155475000Y-123000000D03*
X152525000Y-123000000D03*
%TD*%
D120*
%TO.C,R120*%
X169390852Y-58939050D03*
X171009148Y-59260950D03*
%TD*%
D39*
%TO.C,R118*%
X175109148Y-60060950D03*
X173490852Y-59739050D03*
%TD*%
D121*
%TO.C,U37*%
X203055797Y-109351245D03*
X203303561Y-108105647D03*
X203551326Y-106860050D03*
X203799091Y-105614453D03*
X198944203Y-104648755D03*
X198696439Y-105894353D03*
X198448674Y-107139950D03*
X198200909Y-108385547D03*
%TD*%
D43*
%TO.C,C116*%
X148500000Y-72980000D03*
X148500000Y-72020000D03*
%TD*%
D122*
%TO.C,U25*%
X141541014Y-131499526D03*
X142596980Y-132205100D03*
X143652947Y-132910674D03*
X144708913Y-133616249D03*
X147458986Y-129500474D03*
X146403020Y-128794900D03*
X145347053Y-128089326D03*
X144291087Y-127383751D03*
%TD*%
D120*
%TO.C,R101*%
X154890852Y-139939050D03*
X156509148Y-140260950D03*
%TD*%
D123*
%TO.C,J24*%
X206602982Y-87379875D03*
D124*
X208490486Y-88348678D03*
X207634146Y-85525704D03*
%TD*%
D43*
%TO.C,C111*%
X173200000Y-69500000D03*
X173200000Y-68540000D03*
%TD*%
D125*
%TO.C,J39*%
X203341526Y-120493974D03*
D126*
X203991146Y-122513688D03*
X205381766Y-119912020D03*
%TD*%
D55*
%TO.C,C100*%
X145000000Y-124620000D03*
X145000000Y-125580000D03*
%TD*%
D127*
%TO.C,U33*%
X174351245Y-61944203D03*
X173105647Y-61696439D03*
X171860050Y-61448674D03*
X170614453Y-61200909D03*
X169648755Y-66055797D03*
X170894353Y-66303561D03*
X172139950Y-66551326D03*
X173385547Y-66799091D03*
%TD*%
D128*
%TO.C,J30*%
X192580249Y-66393371D03*
D129*
X194687889Y-66150260D03*
X192407509Y-64278800D03*
%TD*%
D35*
%TO.C,R96*%
X145085962Y-136258345D03*
X143714038Y-135341655D03*
%TD*%
D77*
%TO.C,R134*%
X143885962Y-64541655D03*
X142514038Y-65458345D03*
%TD*%
D90*
%TO.C,TP32*%
X190250000Y-71250000D03*
%TD*%
D130*
%TO.C,U35*%
X196499526Y-123458986D03*
X197205100Y-122403020D03*
X197910674Y-121347053D03*
X198616249Y-120291087D03*
X194500474Y-117541014D03*
X193794900Y-118596980D03*
X193089326Y-119652947D03*
X192383751Y-120708913D03*
%TD*%
D14*
%TO.C,J20*%
X59105000Y-62110000D03*
X59105000Y-67890000D03*
D15*
X60180000Y-61800000D03*
X60180000Y-62600000D03*
D16*
X60180000Y-63750000D03*
X60180000Y-64750000D03*
X60180000Y-65250000D03*
X60180000Y-66250000D03*
D15*
X60180000Y-67400000D03*
X60180000Y-68200000D03*
X60180000Y-68200000D03*
X60180000Y-67400000D03*
D16*
X60180000Y-66750000D03*
X60180000Y-65750000D03*
X60180000Y-64250000D03*
X60180000Y-63250000D03*
D15*
X60180000Y-62600000D03*
X60180000Y-61800000D03*
D17*
X59605000Y-60680000D03*
D18*
X55425000Y-60680000D03*
D17*
X59605000Y-69320000D03*
D18*
X55425000Y-69320000D03*
%TD*%
D131*
%TO.C,D26*%
X111020000Y-60812500D03*
X111020000Y-62687500D03*
%TD*%
D37*
%TO.C,R56*%
X77500000Y-135510000D03*
X77500000Y-134490000D03*
%TD*%
%TO.C,R28*%
X88800000Y-101560000D03*
X88800000Y-100540000D03*
%TD*%
D132*
%TO.C,D30*%
X102000000Y-77062500D03*
X102000000Y-75187500D03*
%TD*%
D55*
%TO.C,C81*%
X102000000Y-136020000D03*
X102000000Y-136980000D03*
%TD*%
D131*
%TO.C,D36*%
X98020000Y-60812500D03*
X98020000Y-62687500D03*
%TD*%
D40*
%TO.C,R64*%
X114410000Y-73750000D03*
X113390000Y-73750000D03*
%TD*%
D131*
%TO.C,D35*%
X100020000Y-60812500D03*
X100020000Y-62687500D03*
%TD*%
D133*
%TO.C,C95*%
X111500000Y-124050000D03*
X111500000Y-125950000D03*
%TD*%
D132*
%TO.C,D33*%
X96000000Y-77062500D03*
X96000000Y-75187500D03*
%TD*%
D40*
%TO.C,R83*%
X96510000Y-73750000D03*
X95490000Y-73750000D03*
%TD*%
D33*
%TO.C,C55*%
X61520000Y-118500000D03*
X62480000Y-118500000D03*
%TD*%
D131*
%TO.C,D19*%
X117920000Y-60812500D03*
X117920000Y-62687500D03*
%TD*%
D55*
%TO.C,C12*%
X125500000Y-113020000D03*
X125500000Y-113980000D03*
%TD*%
%TO.C,C4*%
X124500000Y-113020000D03*
X124500000Y-113980000D03*
%TD*%
D134*
%TO.C,SW1*%
X79695000Y-132560000D03*
X79695000Y-135100000D03*
X79695000Y-137640000D03*
X88305000Y-137640000D03*
X88305000Y-135100000D03*
X88305000Y-132560000D03*
%TD*%
D33*
%TO.C,C36*%
X70770000Y-101300000D03*
X71730000Y-101300000D03*
%TD*%
D135*
%TO.C,U3*%
X78750000Y-81370000D03*
X78750000Y-82640000D03*
X78750000Y-83910000D03*
X78750000Y-85180000D03*
X84150000Y-85180000D03*
X84150000Y-83910000D03*
X84150000Y-82640000D03*
X84150000Y-81370000D03*
D136*
X81450000Y-83275000D03*
%TD*%
D40*
%TO.C,R81*%
X100510000Y-73750000D03*
X99490000Y-73750000D03*
%TD*%
D46*
%TO.C,C47*%
X90750000Y-126790000D03*
X92650000Y-126790000D03*
%TD*%
D40*
%TO.C,R46*%
X76410000Y-112500000D03*
X75390000Y-112500000D03*
%TD*%
%TO.C,R72*%
X107500000Y-73750000D03*
X106480000Y-73750000D03*
%TD*%
D137*
%TO.C,R43*%
X64500000Y-115825000D03*
X64500000Y-114175000D03*
%TD*%
D40*
%TO.C,R18*%
X129510000Y-73700000D03*
X128490000Y-73700000D03*
%TD*%
D55*
%TO.C,C59*%
X77400000Y-114520000D03*
X77400000Y-115480000D03*
%TD*%
%TO.C,C24*%
X86900000Y-100570000D03*
X86900000Y-101530000D03*
%TD*%
D40*
%TO.C,R38*%
X67310000Y-113500000D03*
X66290000Y-113500000D03*
%TD*%
D138*
%TO.C,C64*%
X75000000Y-119125000D03*
X75000000Y-120675000D03*
%TD*%
D116*
%TO.C,R12*%
X126490000Y-64200000D03*
X127510000Y-64200000D03*
%TD*%
D139*
%TO.C,SW6*%
X106305000Y-118540000D03*
X106305000Y-116000000D03*
X106305000Y-113460000D03*
X97695000Y-113460000D03*
X97695000Y-116000000D03*
X97695000Y-118540000D03*
%TD*%
D140*
%TO.C,SW3*%
X114960000Y-143805000D03*
X117500000Y-143805000D03*
X120040000Y-143805000D03*
X120040000Y-135195000D03*
X117500000Y-135195000D03*
X114960000Y-135195000D03*
%TD*%
D141*
%TO.C,J8*%
X105000000Y-90025000D03*
D142*
X106475000Y-88500000D03*
X103525000Y-88500000D03*
%TD*%
D133*
%TO.C,C68*%
X121500000Y-68050000D03*
X121500000Y-69950000D03*
%TD*%
D141*
%TO.C,J4*%
X126500000Y-115975000D03*
D142*
X125025000Y-117500000D03*
X127975000Y-117500000D03*
%TD*%
D116*
%TO.C,R34*%
X110990000Y-109250000D03*
X112010000Y-109250000D03*
%TD*%
D108*
%TO.C,C44*%
X67280000Y-112500000D03*
X66320000Y-112500000D03*
%TD*%
D143*
%TO.C,D10*%
X62000000Y-132425000D03*
X62000000Y-131175000D03*
%TD*%
D55*
%TO.C,C31*%
X85900000Y-100570000D03*
X85900000Y-101530000D03*
%TD*%
D144*
%TO.C,U17*%
X104025000Y-134595000D03*
X104025000Y-135865000D03*
X104025000Y-137135000D03*
X104025000Y-138405000D03*
X108975000Y-138405000D03*
X108975000Y-137135000D03*
X108975000Y-135865000D03*
X108975000Y-134595000D03*
%TD*%
D131*
%TO.C,D27*%
X109020000Y-60812500D03*
X109020000Y-62687500D03*
%TD*%
D138*
%TO.C,C58*%
X58000000Y-119125000D03*
X58000000Y-120675000D03*
%TD*%
D133*
%TO.C,C94*%
X100500000Y-124050000D03*
X100500000Y-125950000D03*
%TD*%
D132*
%TO.C,D16*%
X115900000Y-77062500D03*
X115900000Y-75187500D03*
%TD*%
D140*
%TO.C,SW5*%
X114960000Y-131805000D03*
X117500000Y-131805000D03*
X120040000Y-131805000D03*
X120040000Y-123195000D03*
X117500000Y-123195000D03*
X114960000Y-123195000D03*
%TD*%
D109*
%TO.C,C16*%
X112975000Y-86500000D03*
X110025000Y-86500000D03*
%TD*%
D108*
%TO.C,C62*%
X76380000Y-111500000D03*
X75420000Y-111500000D03*
%TD*%
D55*
%TO.C,C6*%
X129520000Y-113040000D03*
X129520000Y-114000000D03*
%TD*%
D145*
%TO.C,U5*%
X69550000Y-116137500D03*
X70500000Y-116137500D03*
X71450000Y-116137500D03*
X71450000Y-113862500D03*
X70500000Y-113862500D03*
X69550000Y-113862500D03*
%TD*%
D141*
%TO.C,J5*%
X99000000Y-83525000D03*
D142*
X100475000Y-82000000D03*
X97525000Y-82000000D03*
%TD*%
D144*
%TO.C,U14*%
X104025000Y-140595000D03*
X104025000Y-141865000D03*
X104025000Y-143135000D03*
X104025000Y-144405000D03*
X108975000Y-144405000D03*
X108975000Y-143135000D03*
X108975000Y-141865000D03*
X108975000Y-140595000D03*
%TD*%
D40*
%TO.C,R16*%
X127510000Y-73700000D03*
X126490000Y-73700000D03*
%TD*%
D116*
%TO.C,R66*%
X117400000Y-64250000D03*
X118420000Y-64250000D03*
%TD*%
D43*
%TO.C,C33*%
X88000000Y-89000000D03*
X88000000Y-88040000D03*
%TD*%
D116*
%TO.C,R74*%
X110490000Y-64250000D03*
X111510000Y-64250000D03*
%TD*%
D109*
%TO.C,C2*%
X112975000Y-113500000D03*
X110025000Y-113500000D03*
%TD*%
D116*
%TO.C,R22*%
X78490000Y-93400000D03*
X79510000Y-93400000D03*
%TD*%
D40*
%TO.C,R62*%
X118390000Y-73750000D03*
X117370000Y-73750000D03*
%TD*%
D116*
%TO.C,R65*%
X119390000Y-64250000D03*
X120410000Y-64250000D03*
%TD*%
D146*
%TO.C,C66*%
X63950000Y-129650000D03*
X62050000Y-129650000D03*
%TD*%
D43*
%TO.C,C34*%
X89000000Y-88980000D03*
X89000000Y-88020000D03*
%TD*%
D147*
%TO.C,U7*%
X88090000Y-112637500D03*
X87440000Y-112637500D03*
X86790000Y-112637500D03*
X86140000Y-112637500D03*
X85490000Y-112637500D03*
D148*
X84427500Y-113700000D03*
X84427500Y-114350000D03*
X84427500Y-115000000D03*
X84427500Y-115650000D03*
X84427500Y-116300000D03*
D147*
X85490000Y-117362500D03*
X86140000Y-117362500D03*
X86790000Y-117362500D03*
X87440000Y-117362500D03*
X88090000Y-117362500D03*
D148*
X89152500Y-116300000D03*
X89152500Y-115650000D03*
X89152500Y-115000000D03*
X89152500Y-114350000D03*
X89152500Y-113700000D03*
D149*
X86790000Y-115000000D03*
%TD*%
D42*
%TO.C,R26*%
X87000000Y-87990000D03*
X87000000Y-89010000D03*
%TD*%
D33*
%TO.C,C28*%
X91040000Y-95800000D03*
X92000000Y-95800000D03*
%TD*%
D55*
%TO.C,C51*%
X59800000Y-114520000D03*
X59800000Y-115480000D03*
%TD*%
D43*
%TO.C,C32*%
X84150000Y-80055000D03*
X84150000Y-79095000D03*
%TD*%
D132*
%TO.C,D22*%
X111000000Y-77062500D03*
X111000000Y-75187500D03*
%TD*%
D108*
%TO.C,C26*%
X79480000Y-91400000D03*
X78520000Y-91400000D03*
%TD*%
D116*
%TO.C,R31*%
X111000000Y-105750000D03*
X112020000Y-105750000D03*
%TD*%
D72*
%TO.C,J16*%
X56750000Y-96050000D03*
X56750000Y-104050000D03*
D150*
X67750000Y-103250000D03*
X67750000Y-102150000D03*
X67750000Y-101050000D03*
X67750000Y-99950000D03*
X67750000Y-98850000D03*
X67750000Y-97750000D03*
X67750000Y-96650000D03*
X67750000Y-95550000D03*
X67750000Y-94450000D03*
D151*
X66450000Y-93250000D03*
D152*
X57150000Y-93250000D03*
D153*
X66700000Y-107850000D03*
D152*
X57150000Y-108750000D03*
%TD*%
D108*
%TO.C,C56*%
X58780000Y-112500000D03*
X57820000Y-112500000D03*
%TD*%
D140*
%TO.C,SW4*%
X124960000Y-131805000D03*
X127500000Y-131805000D03*
X130040000Y-131805000D03*
X130040000Y-123195000D03*
X127500000Y-123195000D03*
X124960000Y-123195000D03*
%TD*%
D138*
%TO.C,C45*%
X67000000Y-119125000D03*
X67000000Y-120675000D03*
%TD*%
%TO.C,C46*%
X65500000Y-119125000D03*
X65500000Y-120675000D03*
%TD*%
D141*
%TO.C,J9*%
X105000000Y-96525000D03*
D142*
X106475000Y-95000000D03*
X103525000Y-95000000D03*
%TD*%
D137*
%TO.C,R47*%
X82100000Y-115825000D03*
X82100000Y-114175000D03*
%TD*%
D116*
%TO.C,R84*%
X101490000Y-64250000D03*
X102510000Y-64250000D03*
%TD*%
D76*
%TO.C,U2*%
X123075000Y-71862500D03*
X123725000Y-71862500D03*
X124375000Y-71862500D03*
X125025000Y-71862500D03*
X125675000Y-71862500D03*
X126325000Y-71862500D03*
X126975000Y-71862500D03*
X127625000Y-71862500D03*
X128275000Y-71862500D03*
X128925000Y-71862500D03*
X128925000Y-66137500D03*
X128275000Y-66137500D03*
X127625000Y-66137500D03*
X126975000Y-66137500D03*
X126325000Y-66137500D03*
X125675000Y-66137500D03*
X125025000Y-66137500D03*
X124375000Y-66137500D03*
X123725000Y-66137500D03*
X123075000Y-66137500D03*
%TD*%
D131*
%TO.C,D2*%
X125000000Y-60762500D03*
X125000000Y-62637500D03*
%TD*%
D37*
%TO.C,R1*%
X118500000Y-114010000D03*
X118500000Y-112990000D03*
%TD*%
%TO.C,R2*%
X119500000Y-114010000D03*
X119500000Y-112990000D03*
%TD*%
D154*
%TO.C,C10*%
X130500000Y-69950000D03*
X130500000Y-68050000D03*
%TD*%
D155*
%TO.C,D13*%
X65137500Y-61500000D03*
X63262500Y-61500000D03*
%TD*%
D34*
%TO.C,C65*%
X64000000Y-139700000D03*
X66950000Y-139700000D03*
%TD*%
D43*
%TO.C,C1*%
X119100000Y-86980000D03*
X119100000Y-86020000D03*
%TD*%
D55*
%TO.C,C39*%
X82200000Y-103620000D03*
X82200000Y-104580000D03*
%TD*%
D144*
%TO.C,U22*%
X104025000Y-122595000D03*
X104025000Y-123865000D03*
X104025000Y-125135000D03*
X104025000Y-126405000D03*
X108975000Y-126405000D03*
X108975000Y-125135000D03*
X108975000Y-123865000D03*
X108975000Y-122595000D03*
%TD*%
D131*
%TO.C,D4*%
X129000000Y-60762500D03*
X129000000Y-62637500D03*
%TD*%
D133*
%TO.C,C82*%
X100500000Y-136050000D03*
X100500000Y-137950000D03*
%TD*%
D156*
%TO.C,JP2*%
X82500000Y-79275000D03*
D157*
X81200000Y-79275000D03*
%TD*%
D37*
%TO.C,R45*%
X58800000Y-115500000D03*
X58800000Y-114480000D03*
%TD*%
D158*
%TO.C,Y1*%
X83700000Y-104900000D03*
X85900000Y-104900000D03*
X85900000Y-103300000D03*
X83700000Y-103300000D03*
%TD*%
D108*
%TO.C,C27*%
X79480000Y-96000000D03*
X78520000Y-96000000D03*
%TD*%
D132*
%TO.C,D24*%
X107000000Y-77062500D03*
X107000000Y-75187500D03*
%TD*%
D40*
%TO.C,R59*%
X63010000Y-63500000D03*
X61990000Y-63500000D03*
%TD*%
D159*
%TO.C,TP44*%
X98400000Y-109700000D03*
%TD*%
D40*
%TO.C,R82*%
X98510000Y-73750000D03*
X97490000Y-73750000D03*
%TD*%
D116*
%TO.C,R7*%
X111000000Y-101750000D03*
X112020000Y-101750000D03*
%TD*%
D147*
%TO.C,U6*%
X88090000Y-122637500D03*
X87440000Y-122637500D03*
X86790000Y-122637500D03*
X86140000Y-122637500D03*
X85490000Y-122637500D03*
D148*
X84427500Y-123700000D03*
X84427500Y-124350000D03*
X84427500Y-125000000D03*
X84427500Y-125650000D03*
X84427500Y-126300000D03*
D147*
X85490000Y-127362500D03*
X86140000Y-127362500D03*
X86790000Y-127362500D03*
X87440000Y-127362500D03*
X88090000Y-127362500D03*
D148*
X89152500Y-126300000D03*
X89152500Y-125650000D03*
X89152500Y-125000000D03*
X89152500Y-124350000D03*
X89152500Y-123700000D03*
D149*
X86790000Y-125000000D03*
%TD*%
D160*
%TO.C,C37*%
X71250000Y-81725000D03*
X71250000Y-78775000D03*
%TD*%
D116*
%TO.C,R75*%
X108500000Y-64250000D03*
X109520000Y-64250000D03*
%TD*%
D108*
%TO.C,C8*%
X111980000Y-110250000D03*
X111020000Y-110250000D03*
%TD*%
D145*
%TO.C,U8*%
X61050000Y-116137500D03*
X62000000Y-116137500D03*
X62950000Y-116137500D03*
X62950000Y-113862500D03*
X62000000Y-113862500D03*
X61050000Y-113862500D03*
%TD*%
D108*
%TO.C,C22*%
X111980000Y-99750000D03*
X111020000Y-99750000D03*
%TD*%
D42*
%TO.C,R51*%
X74500000Y-130500000D03*
X74500000Y-131520000D03*
%TD*%
D116*
%TO.C,R11*%
X124490000Y-64200000D03*
X125510000Y-64200000D03*
%TD*%
D40*
%TO.C,R48*%
X76410000Y-113500000D03*
X75390000Y-113500000D03*
%TD*%
D116*
%TO.C,R23*%
X78490000Y-92400000D03*
X79510000Y-92400000D03*
%TD*%
D132*
%TO.C,D17*%
X113900000Y-77062500D03*
X113900000Y-75187500D03*
%TD*%
D138*
%TO.C,C57*%
X56500000Y-119125000D03*
X56500000Y-120675000D03*
%TD*%
D141*
%TO.C,J7*%
X98900000Y-96525000D03*
D142*
X100375000Y-95000000D03*
X97425000Y-95000000D03*
%TD*%
D141*
%TO.C,J6*%
X99000000Y-90025000D03*
D142*
X100475000Y-88500000D03*
X97525000Y-88500000D03*
%TD*%
D140*
%TO.C,SW2*%
X124960000Y-143805000D03*
X127500000Y-143805000D03*
X130040000Y-143805000D03*
X130040000Y-135195000D03*
X127500000Y-135195000D03*
X124960000Y-135195000D03*
%TD*%
D116*
%TO.C,R6*%
X110990000Y-97750000D03*
X112010000Y-97750000D03*
%TD*%
D33*
%TO.C,C11*%
X121020000Y-66400000D03*
X121980000Y-66400000D03*
%TD*%
D37*
%TO.C,R88*%
X94500000Y-76635000D03*
X94500000Y-75615000D03*
%TD*%
D116*
%TO.C,R8*%
X110990000Y-96750000D03*
X112010000Y-96750000D03*
%TD*%
D34*
%TO.C,C49*%
X90825000Y-122790000D03*
X93775000Y-122790000D03*
%TD*%
D40*
%TO.C,R15*%
X125510000Y-73700000D03*
X124490000Y-73700000D03*
%TD*%
D55*
%TO.C,C93*%
X102000000Y-124020000D03*
X102000000Y-124980000D03*
%TD*%
D133*
%TO.C,C72*%
X103500000Y-68175000D03*
X103500000Y-70075000D03*
%TD*%
D116*
%TO.C,R5*%
X110990000Y-92250000D03*
X112010000Y-92250000D03*
%TD*%
%TO.C,R67*%
X115410000Y-64250000D03*
X116430000Y-64250000D03*
%TD*%
D37*
%TO.C,R4*%
X126500000Y-114010000D03*
X126500000Y-112990000D03*
%TD*%
D33*
%TO.C,C29*%
X91020000Y-91500000D03*
X91980000Y-91500000D03*
%TD*%
D132*
%TO.C,D14*%
X119900000Y-77062500D03*
X119900000Y-75187500D03*
%TD*%
D33*
%TO.C,C61*%
X79120000Y-118500000D03*
X80080000Y-118500000D03*
%TD*%
D161*
%TO.C,U4*%
X81862500Y-92200000D03*
X81862500Y-92600000D03*
X81862500Y-93000000D03*
X81862500Y-93400000D03*
X81862500Y-93800000D03*
X81862500Y-94200000D03*
X81862500Y-94600000D03*
X81862500Y-95000000D03*
X81862500Y-95400000D03*
X81862500Y-95800000D03*
X81862500Y-96200000D03*
X81862500Y-96600000D03*
X81862500Y-97000000D03*
X81862500Y-97400000D03*
D162*
X82700000Y-98237500D03*
X83100000Y-98237500D03*
X83500000Y-98237500D03*
X83900000Y-98237500D03*
X84300000Y-98237500D03*
X84700000Y-98237500D03*
X85100000Y-98237500D03*
X85500000Y-98237500D03*
X85900000Y-98237500D03*
X86300000Y-98237500D03*
X86700000Y-98237500D03*
X87100000Y-98237500D03*
X87500000Y-98237500D03*
X87900000Y-98237500D03*
D161*
X88737500Y-97400000D03*
X88737500Y-97000000D03*
X88737500Y-96600000D03*
X88737500Y-96200000D03*
X88737500Y-95800000D03*
X88737500Y-95400000D03*
X88737500Y-95000000D03*
X88737500Y-94600000D03*
X88737500Y-94200000D03*
X88737500Y-93800000D03*
X88737500Y-93400000D03*
X88737500Y-93000000D03*
X88737500Y-92600000D03*
X88737500Y-92200000D03*
D162*
X87900000Y-91362500D03*
X87500000Y-91362500D03*
X87100000Y-91362500D03*
X86700000Y-91362500D03*
X86300000Y-91362500D03*
X85900000Y-91362500D03*
X85500000Y-91362500D03*
X85100000Y-91362500D03*
X84700000Y-91362500D03*
X84300000Y-91362500D03*
X83900000Y-91362500D03*
X83500000Y-91362500D03*
X83100000Y-91362500D03*
X82700000Y-91362500D03*
D163*
X85300000Y-94800000D03*
%TD*%
D133*
%TO.C,C70*%
X112500000Y-68175000D03*
X112500000Y-70075000D03*
%TD*%
D118*
%TO.C,U11*%
X119925000Y-66137500D03*
X119275000Y-66137500D03*
X118625000Y-66137500D03*
X117975000Y-66137500D03*
X117325000Y-66137500D03*
X116675000Y-66137500D03*
X116025000Y-66137500D03*
X115375000Y-66137500D03*
X114725000Y-66137500D03*
X114075000Y-66137500D03*
X114075000Y-71862500D03*
X114725000Y-71862500D03*
X115375000Y-71862500D03*
X116025000Y-71862500D03*
X116675000Y-71862500D03*
X117325000Y-71862500D03*
X117975000Y-71862500D03*
X118625000Y-71862500D03*
X119275000Y-71862500D03*
X119925000Y-71862500D03*
%TD*%
D116*
%TO.C,R85*%
X99470000Y-64250000D03*
X100490000Y-64250000D03*
%TD*%
D132*
%TO.C,D12*%
X73000000Y-133937500D03*
X73000000Y-132062500D03*
%TD*%
D109*
%TO.C,C42*%
X71975000Y-120200000D03*
X69025000Y-120200000D03*
%TD*%
D37*
%TO.C,R37*%
X84900000Y-101560000D03*
X84900000Y-100540000D03*
%TD*%
D132*
%TO.C,D15*%
X117900000Y-77062500D03*
X117900000Y-75187500D03*
%TD*%
D42*
%TO.C,R58*%
X61937500Y-60990000D03*
X61937500Y-62010000D03*
%TD*%
D108*
%TO.C,C73*%
X104000000Y-71625000D03*
X103040000Y-71625000D03*
%TD*%
D40*
%TO.C,R42*%
X58810000Y-113500000D03*
X57790000Y-113500000D03*
%TD*%
%TO.C,R73*%
X105510000Y-73750000D03*
X104490000Y-73750000D03*
%TD*%
D131*
%TO.C,D28*%
X107020000Y-60812500D03*
X107020000Y-62687500D03*
%TD*%
D53*
%TO.C,H2*%
X60000000Y-145000000D03*
D54*
X60000000Y-145000000D03*
%TD*%
D146*
%TO.C,C52*%
X87450000Y-129190000D03*
X85550000Y-129190000D03*
%TD*%
D116*
%TO.C,R53*%
X75490000Y-130500000D03*
X76510000Y-130500000D03*
%TD*%
D55*
%TO.C,C74*%
X102000000Y-142040000D03*
X102000000Y-143000000D03*
%TD*%
D43*
%TO.C,C25*%
X84000000Y-88980000D03*
X84000000Y-88020000D03*
%TD*%
D137*
%TO.C,R39*%
X73000000Y-115825000D03*
X73000000Y-114175000D03*
%TD*%
D34*
%TO.C,C50*%
X90777500Y-112700000D03*
X93727500Y-112700000D03*
%TD*%
D133*
%TO.C,C78*%
X111500000Y-142050000D03*
X111500000Y-143950000D03*
%TD*%
D132*
%TO.C,D23*%
X109000000Y-77062500D03*
X109000000Y-75187500D03*
%TD*%
D53*
%TO.C,H1*%
X60000000Y-55000000D03*
D54*
X60000000Y-55000000D03*
%TD*%
D108*
%TO.C,C71*%
X112980000Y-71625000D03*
X112020000Y-71625000D03*
%TD*%
D164*
%TO.C,J45*%
X129540000Y-56000000D03*
D165*
X127000000Y-56000000D03*
X124460000Y-56000000D03*
X121920000Y-56000000D03*
X119380000Y-56000000D03*
X116840000Y-56000000D03*
X114300000Y-56000000D03*
X111760000Y-56000000D03*
X109220000Y-56000000D03*
X106680000Y-56000000D03*
X104140000Y-56000000D03*
X101600000Y-56000000D03*
X99060000Y-56000000D03*
X96520000Y-56000000D03*
X93980000Y-56000000D03*
X91440000Y-56000000D03*
X88900000Y-56000000D03*
X86360000Y-56000000D03*
X83820000Y-56000000D03*
X81280000Y-56000000D03*
X78740000Y-56000000D03*
X76200000Y-56000000D03*
X73660000Y-56000000D03*
X71120000Y-56000000D03*
%TD*%
D37*
%TO.C,R40*%
X66290000Y-115500000D03*
X66290000Y-114480000D03*
%TD*%
D132*
%TO.C,D11*%
X76000000Y-133937500D03*
X76000000Y-132062500D03*
%TD*%
D131*
%TO.C,D37*%
X96020000Y-60812500D03*
X96020000Y-62687500D03*
%TD*%
D37*
%TO.C,R69*%
X112450000Y-76635000D03*
X112450000Y-75615000D03*
%TD*%
D40*
%TO.C,R14*%
X123510000Y-73700000D03*
X122490000Y-73700000D03*
%TD*%
D42*
%TO.C,R35*%
X69750000Y-75240000D03*
X69750000Y-76260000D03*
%TD*%
D132*
%TO.C,D25*%
X105000000Y-77062500D03*
X105000000Y-75187500D03*
%TD*%
D145*
%TO.C,U9*%
X78650000Y-116137500D03*
X79600000Y-116137500D03*
X80550000Y-116137500D03*
X80550000Y-113862500D03*
X79600000Y-113862500D03*
X78650000Y-113862500D03*
%TD*%
D146*
%TO.C,C53*%
X87502500Y-119200000D03*
X85602500Y-119200000D03*
%TD*%
D33*
%TO.C,C43*%
X70040000Y-118500000D03*
X71000000Y-118500000D03*
%TD*%
D42*
%TO.C,R32*%
X69750000Y-93470000D03*
X69750000Y-94490000D03*
%TD*%
D43*
%TO.C,C30*%
X85000000Y-88980000D03*
X85000000Y-88020000D03*
%TD*%
D116*
%TO.C,R9*%
X110990000Y-100750000D03*
X112010000Y-100750000D03*
%TD*%
D138*
%TO.C,C63*%
X76500000Y-119125000D03*
X76500000Y-120675000D03*
%TD*%
D116*
%TO.C,R54*%
X72490000Y-130500000D03*
X73510000Y-130500000D03*
%TD*%
D37*
%TO.C,R78*%
X103500000Y-76635000D03*
X103500000Y-75615000D03*
%TD*%
D116*
%TO.C,R10*%
X122490000Y-64200000D03*
X123510000Y-64200000D03*
%TD*%
D132*
%TO.C,D31*%
X100000000Y-77062500D03*
X100000000Y-75187500D03*
%TD*%
D40*
%TO.C,R17*%
X108750000Y-97500000D03*
X107730000Y-97500000D03*
%TD*%
D116*
%TO.C,R3*%
X110990000Y-91250000D03*
X112010000Y-91250000D03*
%TD*%
D131*
%TO.C,D1*%
X123000000Y-60762500D03*
X123000000Y-62637500D03*
%TD*%
D166*
%TO.C,L2*%
X63025000Y-125000000D03*
X56975000Y-125000000D03*
%TD*%
D40*
%TO.C,R21*%
X79760000Y-79975000D03*
X78740000Y-79975000D03*
%TD*%
D132*
%TO.C,D32*%
X98000000Y-77062500D03*
X98000000Y-75187500D03*
%TD*%
D131*
%TO.C,D3*%
X127000000Y-60762500D03*
X127000000Y-62637500D03*
%TD*%
D40*
%TO.C,R80*%
X102510000Y-73750000D03*
X101490000Y-73750000D03*
%TD*%
D164*
%TO.C,J17*%
X82760000Y-107700000D03*
D165*
X85300000Y-107700000D03*
X87840000Y-107700000D03*
%TD*%
D40*
%TO.C,R63*%
X116400000Y-73750000D03*
X115380000Y-73750000D03*
%TD*%
D37*
%TO.C,R36*%
X70750000Y-76250000D03*
X70750000Y-75230000D03*
%TD*%
D133*
%TO.C,C75*%
X100500000Y-142050000D03*
X100500000Y-143950000D03*
%TD*%
D108*
%TO.C,C7*%
X111980000Y-102750000D03*
X111020000Y-102750000D03*
%TD*%
D116*
%TO.C,R87*%
X95490000Y-64250000D03*
X96510000Y-64250000D03*
%TD*%
D37*
%TO.C,R44*%
X57800000Y-115500000D03*
X57800000Y-114480000D03*
%TD*%
D166*
%TO.C,L1*%
X72025000Y-125000000D03*
X65975000Y-125000000D03*
%TD*%
D116*
%TO.C,R77*%
X104490000Y-64250000D03*
X105510000Y-64250000D03*
%TD*%
D131*
%TO.C,D20*%
X115920000Y-60812500D03*
X115920000Y-62687500D03*
%TD*%
D37*
%TO.C,R49*%
X76400000Y-115510000D03*
X76400000Y-114490000D03*
%TD*%
D109*
%TO.C,C54*%
X63475000Y-120200000D03*
X60525000Y-120200000D03*
%TD*%
D37*
%TO.C,R50*%
X75400000Y-115510000D03*
X75400000Y-114490000D03*
%TD*%
D167*
%TO.C,U1*%
X133750000Y-89337500D03*
X133250000Y-89337500D03*
X132750000Y-89337500D03*
X132250000Y-89337500D03*
X131750000Y-89337500D03*
X131250000Y-89337500D03*
X130750000Y-89337500D03*
X130250000Y-89337500D03*
X129750000Y-89337500D03*
X129250000Y-89337500D03*
X128750000Y-89337500D03*
X128250000Y-89337500D03*
X127750000Y-89337500D03*
X127250000Y-89337500D03*
X126750000Y-89337500D03*
X126250000Y-89337500D03*
X125750000Y-89337500D03*
X125250000Y-89337500D03*
X124750000Y-89337500D03*
X124250000Y-89337500D03*
X123750000Y-89337500D03*
X123250000Y-89337500D03*
X122750000Y-89337500D03*
X122250000Y-89337500D03*
X121750000Y-89337500D03*
X121250000Y-89337500D03*
X120750000Y-89337500D03*
X120250000Y-89337500D03*
X119750000Y-89337500D03*
X119250000Y-89337500D03*
X118750000Y-89337500D03*
X118250000Y-89337500D03*
X117750000Y-89337500D03*
X117250000Y-89337500D03*
X116750000Y-89337500D03*
X116250000Y-89337500D03*
D168*
X114337500Y-91250000D03*
X114337500Y-91750000D03*
X114337500Y-92250000D03*
X114337500Y-92750000D03*
X114337500Y-93250000D03*
X114337500Y-93750000D03*
X114337500Y-94250000D03*
X114337500Y-94750000D03*
X114337500Y-95250000D03*
X114337500Y-95750000D03*
X114337500Y-96250000D03*
X114337500Y-96750000D03*
X114337500Y-97250000D03*
X114337500Y-97750000D03*
X114337500Y-98250000D03*
X114337500Y-98750000D03*
X114337500Y-99250000D03*
X114337500Y-99750000D03*
X114337500Y-100250000D03*
X114337500Y-100750000D03*
X114337500Y-101250000D03*
X114337500Y-101750000D03*
X114337500Y-102250000D03*
X114337500Y-102750000D03*
X114337500Y-103250000D03*
X114337500Y-103750000D03*
X114337500Y-104250000D03*
X114337500Y-104750000D03*
X114337500Y-105250000D03*
X114337500Y-105750000D03*
X114337500Y-106250000D03*
X114337500Y-106750000D03*
X114337500Y-107250000D03*
X114337500Y-107750000D03*
X114337500Y-108250000D03*
X114337500Y-108750000D03*
D167*
X116250000Y-110662500D03*
X116750000Y-110662500D03*
X117250000Y-110662500D03*
X117750000Y-110662500D03*
X118250000Y-110662500D03*
X118750000Y-110662500D03*
X119250000Y-110662500D03*
X119750000Y-110662500D03*
X120250000Y-110662500D03*
X120750000Y-110662500D03*
X121250000Y-110662500D03*
X121750000Y-110662500D03*
X122250000Y-110662500D03*
X122750000Y-110662500D03*
X123250000Y-110662500D03*
X123750000Y-110662500D03*
X124250000Y-110662500D03*
X124750000Y-110662500D03*
X125250000Y-110662500D03*
X125750000Y-110662500D03*
X126250000Y-110662500D03*
X126750000Y-110662500D03*
X127250000Y-110662500D03*
X127750000Y-110662500D03*
X128250000Y-110662500D03*
X128750000Y-110662500D03*
X129250000Y-110662500D03*
X129750000Y-110662500D03*
X130250000Y-110662500D03*
X130750000Y-110662500D03*
X131250000Y-110662500D03*
X131750000Y-110662500D03*
X132250000Y-110662500D03*
X132750000Y-110662500D03*
X133250000Y-110662500D03*
X133750000Y-110662500D03*
D168*
X135662500Y-108750000D03*
X135662500Y-108250000D03*
X135662500Y-107750000D03*
X135662500Y-107250000D03*
X135662500Y-106750000D03*
X135662500Y-106250000D03*
X135662500Y-105750000D03*
X135662500Y-105250000D03*
X135662500Y-104750000D03*
X135662500Y-104250000D03*
X135662500Y-103750000D03*
X135662500Y-103250000D03*
X135662500Y-102750000D03*
X135662500Y-102250000D03*
X135662500Y-101750000D03*
X135662500Y-101250000D03*
X135662500Y-100750000D03*
X135662500Y-100250000D03*
X135662500Y-99750000D03*
X135662500Y-99250000D03*
X135662500Y-98750000D03*
X135662500Y-98250000D03*
X135662500Y-97750000D03*
X135662500Y-97250000D03*
X135662500Y-96750000D03*
X135662500Y-96250000D03*
X135662500Y-95750000D03*
X135662500Y-95250000D03*
X135662500Y-94750000D03*
X135662500Y-94250000D03*
X135662500Y-93750000D03*
X135662500Y-93250000D03*
X135662500Y-92750000D03*
X135662500Y-92250000D03*
X135662500Y-91750000D03*
X135662500Y-91250000D03*
%TD*%
D131*
%TO.C,D18*%
X119920000Y-60812500D03*
X119920000Y-62687500D03*
%TD*%
D169*
%TO.C,U10*%
X65362500Y-133000000D03*
X65362500Y-134000000D03*
X65362500Y-135000000D03*
X65362500Y-136000000D03*
X65362500Y-137000000D03*
X70637500Y-137000000D03*
X70637500Y-136000000D03*
X70637500Y-135000000D03*
X70637500Y-134000000D03*
X70637500Y-133000000D03*
D170*
X68000000Y-135000000D03*
%TD*%
D40*
%TO.C,R27*%
X79760000Y-78975000D03*
X78740000Y-78975000D03*
%TD*%
D42*
%TO.C,R25*%
X85990000Y-87990000D03*
X85990000Y-89010000D03*
%TD*%
D118*
%TO.C,U12*%
X110925000Y-66137500D03*
X110275000Y-66137500D03*
X109625000Y-66137500D03*
X108975000Y-66137500D03*
X108325000Y-66137500D03*
X107675000Y-66137500D03*
X107025000Y-66137500D03*
X106375000Y-66137500D03*
X105725000Y-66137500D03*
X105075000Y-66137500D03*
X105075000Y-71862500D03*
X105725000Y-71862500D03*
X106375000Y-71862500D03*
X107025000Y-71862500D03*
X107675000Y-71862500D03*
X108325000Y-71862500D03*
X108975000Y-71862500D03*
X109625000Y-71862500D03*
X110275000Y-71862500D03*
X110925000Y-71862500D03*
%TD*%
D133*
%TO.C,C83*%
X111500000Y-136050000D03*
X111500000Y-137950000D03*
%TD*%
%TO.C,C90*%
X111500000Y-130050000D03*
X111500000Y-131950000D03*
%TD*%
D132*
%TO.C,D5*%
X123000000Y-76937500D03*
X123000000Y-75062500D03*
%TD*%
D141*
%TO.C,J1*%
X116475000Y-115975000D03*
D142*
X115000000Y-117500000D03*
X117950000Y-117500000D03*
%TD*%
D132*
%TO.C,D6*%
X125000000Y-76937500D03*
X125000000Y-75062500D03*
%TD*%
D109*
%TO.C,C60*%
X81075000Y-120200000D03*
X78125000Y-120200000D03*
%TD*%
D131*
%TO.C,D34*%
X102020000Y-60812500D03*
X102020000Y-62687500D03*
%TD*%
%TO.C,D21*%
X113920000Y-60812500D03*
X113920000Y-62687500D03*
%TD*%
D116*
%TO.C,R60*%
X61990000Y-67000000D03*
X63010000Y-67000000D03*
%TD*%
D171*
%TO.C,JP1*%
X89700000Y-104850000D03*
D172*
X89700000Y-103550000D03*
%TD*%
D141*
%TO.C,J2*%
X121500000Y-115975000D03*
D142*
X120025000Y-117500000D03*
X122975000Y-117500000D03*
%TD*%
D55*
%TO.C,C41*%
X68300000Y-114520000D03*
X68300000Y-115480000D03*
%TD*%
D108*
%TO.C,C69*%
X121980000Y-71625000D03*
X121020000Y-71625000D03*
%TD*%
D40*
%TO.C,R71*%
X109510000Y-73750000D03*
X108490000Y-73750000D03*
%TD*%
D108*
%TO.C,C9*%
X111980000Y-95750000D03*
X111020000Y-95750000D03*
%TD*%
D116*
%TO.C,R76*%
X106510000Y-64250000D03*
X107530000Y-64250000D03*
%TD*%
D37*
%TO.C,R29*%
X83550000Y-101550000D03*
X83550000Y-100530000D03*
%TD*%
%TO.C,R19*%
X121500000Y-76520000D03*
X121500000Y-75500000D03*
%TD*%
D144*
%TO.C,U19*%
X104025000Y-128595000D03*
X104025000Y-129865000D03*
X104025000Y-131135000D03*
X104025000Y-132405000D03*
X108975000Y-132405000D03*
X108975000Y-131135000D03*
X108975000Y-129865000D03*
X108975000Y-128595000D03*
%TD*%
D33*
%TO.C,C38*%
X70770000Y-83050000D03*
X71730000Y-83050000D03*
%TD*%
D160*
%TO.C,C35*%
X71250000Y-99975000D03*
X71250000Y-97025000D03*
%TD*%
D132*
%TO.C,D8*%
X127000000Y-76937500D03*
X127000000Y-75062500D03*
%TD*%
D40*
%TO.C,R61*%
X120380000Y-73750000D03*
X119360000Y-73750000D03*
%TD*%
D37*
%TO.C,R41*%
X67300000Y-115500000D03*
X67300000Y-114480000D03*
%TD*%
D116*
%TO.C,R52*%
X64500000Y-131500000D03*
X65520000Y-131500000D03*
%TD*%
D108*
%TO.C,C14*%
X111980000Y-93250000D03*
X111020000Y-93250000D03*
%TD*%
D116*
%TO.C,R86*%
X97490000Y-64250000D03*
X98510000Y-64250000D03*
%TD*%
D118*
%TO.C,U13*%
X101925000Y-66137500D03*
X101275000Y-66137500D03*
X100625000Y-66137500D03*
X99975000Y-66137500D03*
X99325000Y-66137500D03*
X98675000Y-66137500D03*
X98025000Y-66137500D03*
X97375000Y-66137500D03*
X96725000Y-66137500D03*
X96075000Y-66137500D03*
X96075000Y-71862500D03*
X96725000Y-71862500D03*
X97375000Y-71862500D03*
X98025000Y-71862500D03*
X98675000Y-71862500D03*
X99325000Y-71862500D03*
X99975000Y-71862500D03*
X100625000Y-71862500D03*
X101275000Y-71862500D03*
X101925000Y-71862500D03*
%TD*%
D55*
%TO.C,C86*%
X102000000Y-130020000D03*
X102000000Y-130980000D03*
%TD*%
D132*
%TO.C,D9*%
X129000000Y-76937500D03*
X129000000Y-75062500D03*
%TD*%
D42*
%TO.C,R24*%
X91500000Y-103580000D03*
X91500000Y-104600000D03*
%TD*%
D37*
%TO.C,R55*%
X77500000Y-133020000D03*
X77500000Y-132000000D03*
%TD*%
%TO.C,R33*%
X70750000Y-94500000D03*
X70750000Y-93480000D03*
%TD*%
D133*
%TO.C,C87*%
X100500000Y-130050000D03*
X100500000Y-131950000D03*
%TD*%
D116*
%TO.C,R68*%
X113480000Y-64250000D03*
X114500000Y-64250000D03*
%TD*%
D166*
%TO.C,L3*%
X80925000Y-125000000D03*
X74875000Y-125000000D03*
%TD*%
D40*
%TO.C,R70*%
X111510000Y-73750000D03*
X110490000Y-73750000D03*
%TD*%
D43*
%TO.C,C40*%
X87400000Y-104560000D03*
X87400000Y-103600000D03*
%TD*%
D37*
%TO.C,R30*%
X82550000Y-101570000D03*
X82550000Y-100550000D03*
%TD*%
D46*
%TO.C,C67*%
X67050000Y-131000000D03*
X68950000Y-131000000D03*
%TD*%
%TO.C,C48*%
X90702500Y-116700000D03*
X92602500Y-116700000D03*
%TD*%
D37*
%TO.C,R57*%
X77500000Y-138010000D03*
X77500000Y-136990000D03*
%TD*%
D141*
%TO.C,J3*%
X105000000Y-83525000D03*
D142*
X106475000Y-82000000D03*
X103525000Y-82000000D03*
%TD*%
D34*
%TO.C,C23*%
X106525000Y-99300000D03*
X109475000Y-99300000D03*
%TD*%
D72*
%TO.C,J18*%
X56750000Y-78050000D03*
X56750000Y-86050000D03*
D150*
X67750000Y-85250000D03*
X67750000Y-84150000D03*
X67750000Y-83050000D03*
X67750000Y-81950000D03*
X67750000Y-80850000D03*
X67750000Y-79750000D03*
X67750000Y-78650000D03*
X67750000Y-77550000D03*
X67750000Y-76450000D03*
D151*
X66450000Y-75250000D03*
D152*
X57150000Y-75250000D03*
D153*
X66700000Y-89850000D03*
D152*
X57150000Y-90750000D03*
%TD*%
D116*
%TO.C,R13*%
X128490000Y-64200000D03*
X129510000Y-64200000D03*
%TD*%
D131*
%TO.C,D29*%
X105020000Y-60812500D03*
X105020000Y-62687500D03*
%TD*%
D43*
%TO.C,C15*%
X120900000Y-86980000D03*
X120900000Y-86020000D03*
%TD*%
M02*
