%TF.GenerationSoftware,KiCad,Pcbnew,9.0.2-9.0.2-0~ubuntu24.04.1*%
%TF.CreationDate,2025-07-21T15:48:50-04:00*%
%TF.ProjectId,digital,64696769-7461-46c2-9e6b-696361645f70,rev?*%
%TF.SameCoordinates,Original*%
%TF.FileFunction,Drillmap*%
%TF.FilePolarity,Positive*%
%FSLAX45Y45*%
G04 Gerber Fmt 4.5, Leading zero omitted, Abs format (unit mm)*
G04 Created by KiCad (PCBNEW 9.0.2-9.0.2-0~ubuntu24.04.1) date 2025-07-21 15:48:50*
%MOMM*%
%LPD*%
G01*
G04 APERTURE LIST*
%ADD10C,0.050000*%
%ADD11C,0.200000*%
%ADD12C,0.100000*%
G04 APERTURE END LIST*
D10*
X6280000Y-15000000D02*
X20500000Y-15000000D01*
X5340000Y-10700000D02*
G75*
G02*
X5310000Y-10730000I-30000J0D01*
G01*
X5280000Y-6000000D02*
G75*
G02*
X6280000Y-5000000I1000000J0D01*
G01*
X6280000Y-15000000D02*
G75*
G02*
X5280000Y-14000000I0J1000000D01*
G01*
X5280000Y-6000000D02*
X5280000Y-7530000D01*
X5280000Y-10760000D02*
G75*
G02*
X5310000Y-10730000I30000J0D01*
G01*
X5310000Y-7560000D02*
G75*
G02*
X5280000Y-7530000I0J30000D01*
G01*
X5340000Y-8900000D02*
G75*
G02*
X5310000Y-8930000I-30000J0D01*
G01*
X5340000Y-7590000D02*
X5340000Y-8900000D01*
X20500000Y-5000000D02*
X6280000Y-5000000D01*
X5280000Y-10760000D02*
X5280000Y-14000000D01*
X20500000Y-5000000D02*
G75*
G02*
X21500000Y-6000000I0J-1000000D01*
G01*
X5280000Y-8960000D02*
G75*
G02*
X5310000Y-8930000I30000J0D01*
G01*
X5310000Y-9360000D02*
G75*
G02*
X5340000Y-9390000I0J-30000D01*
G01*
X5280000Y-8960000D02*
X5280000Y-9330000D01*
X21500000Y-14000000D02*
X21500000Y-6000000D01*
X5340000Y-9390000D02*
X5340000Y-10700000D01*
X21500000Y-14000000D02*
G75*
G02*
X20500000Y-15000000I-1000000J0D01*
G01*
X5310000Y-7560000D02*
G75*
G02*
X5340000Y-7590000I0J-30000D01*
G01*
X5310000Y-9360000D02*
G75*
G02*
X5280000Y-9330000I0J30000D01*
G01*
D11*
D12*
X5878000Y-6178500D02*
X5943000Y-6243500D01*
X5943000Y-6178500D02*
X5878000Y-6243500D01*
X5878000Y-6756500D02*
X5943000Y-6821500D01*
X5943000Y-6756500D02*
X5878000Y-6821500D01*
X5878000Y-13178500D02*
X5943000Y-13243500D01*
X5943000Y-13178500D02*
X5878000Y-13243500D01*
X5878000Y-13756500D02*
X5943000Y-13821500D01*
X5943000Y-13756500D02*
X5878000Y-13821500D01*
X5725000Y-7805000D02*
G75*
G02*
X5625000Y-7805000I-50000J0D01*
G01*
X5625000Y-7805000D02*
G75*
G02*
X5725000Y-7805000I50000J0D01*
G01*
X5725000Y-8605000D02*
G75*
G02*
X5625000Y-8605000I-50000J0D01*
G01*
X5625000Y-8605000D02*
G75*
G02*
X5725000Y-8605000I50000J0D01*
G01*
X5725000Y-9605000D02*
G75*
G02*
X5625000Y-9605000I-50000J0D01*
G01*
X5625000Y-9605000D02*
G75*
G02*
X5725000Y-9605000I50000J0D01*
G01*
X5725000Y-10405000D02*
G75*
G02*
X5625000Y-10405000I-50000J0D01*
G01*
X5625000Y-10405000D02*
G75*
G02*
X5725000Y-10405000I50000J0D01*
G01*
D11*
X5538277Y-15313984D02*
X5538277Y-15113984D01*
X5538277Y-15113984D02*
X5585896Y-15113984D01*
X5585896Y-15113984D02*
X5614467Y-15123508D01*
X5614467Y-15123508D02*
X5633515Y-15142555D01*
X5633515Y-15142555D02*
X5643039Y-15161603D01*
X5643039Y-15161603D02*
X5652562Y-15199698D01*
X5652562Y-15199698D02*
X5652562Y-15228269D01*
X5652562Y-15228269D02*
X5643039Y-15266365D01*
X5643039Y-15266365D02*
X5633515Y-15285412D01*
X5633515Y-15285412D02*
X5614467Y-15304460D01*
X5614467Y-15304460D02*
X5585896Y-15313984D01*
X5585896Y-15313984D02*
X5538277Y-15313984D01*
X5738277Y-15313984D02*
X5738277Y-15180650D01*
X5738277Y-15218746D02*
X5747801Y-15199698D01*
X5747801Y-15199698D02*
X5757324Y-15190174D01*
X5757324Y-15190174D02*
X5776372Y-15180650D01*
X5776372Y-15180650D02*
X5795420Y-15180650D01*
X5862086Y-15313984D02*
X5862086Y-15180650D01*
X5862086Y-15113984D02*
X5852562Y-15123508D01*
X5852562Y-15123508D02*
X5862086Y-15133031D01*
X5862086Y-15133031D02*
X5871610Y-15123508D01*
X5871610Y-15123508D02*
X5862086Y-15113984D01*
X5862086Y-15113984D02*
X5862086Y-15133031D01*
X5985896Y-15313984D02*
X5966848Y-15304460D01*
X5966848Y-15304460D02*
X5957324Y-15285412D01*
X5957324Y-15285412D02*
X5957324Y-15113984D01*
X6090658Y-15313984D02*
X6071610Y-15304460D01*
X6071610Y-15304460D02*
X6062086Y-15285412D01*
X6062086Y-15285412D02*
X6062086Y-15113984D01*
X6319229Y-15313984D02*
X6319229Y-15113984D01*
X6319229Y-15113984D02*
X6385896Y-15256841D01*
X6385896Y-15256841D02*
X6452562Y-15113984D01*
X6452562Y-15113984D02*
X6452562Y-15313984D01*
X6633515Y-15313984D02*
X6633515Y-15209222D01*
X6633515Y-15209222D02*
X6623991Y-15190174D01*
X6623991Y-15190174D02*
X6604943Y-15180650D01*
X6604943Y-15180650D02*
X6566848Y-15180650D01*
X6566848Y-15180650D02*
X6547801Y-15190174D01*
X6633515Y-15304460D02*
X6614467Y-15313984D01*
X6614467Y-15313984D02*
X6566848Y-15313984D01*
X6566848Y-15313984D02*
X6547801Y-15304460D01*
X6547801Y-15304460D02*
X6538277Y-15285412D01*
X6538277Y-15285412D02*
X6538277Y-15266365D01*
X6538277Y-15266365D02*
X6547801Y-15247317D01*
X6547801Y-15247317D02*
X6566848Y-15237793D01*
X6566848Y-15237793D02*
X6614467Y-15237793D01*
X6614467Y-15237793D02*
X6633515Y-15228269D01*
X6728753Y-15180650D02*
X6728753Y-15380650D01*
X6728753Y-15190174D02*
X6747801Y-15180650D01*
X6747801Y-15180650D02*
X6785896Y-15180650D01*
X6785896Y-15180650D02*
X6804943Y-15190174D01*
X6804943Y-15190174D02*
X6814467Y-15199698D01*
X6814467Y-15199698D02*
X6823991Y-15218746D01*
X6823991Y-15218746D02*
X6823991Y-15275888D01*
X6823991Y-15275888D02*
X6814467Y-15294936D01*
X6814467Y-15294936D02*
X6804943Y-15304460D01*
X6804943Y-15304460D02*
X6785896Y-15313984D01*
X6785896Y-15313984D02*
X6747801Y-15313984D01*
X6747801Y-15313984D02*
X6728753Y-15304460D01*
X6909705Y-15294936D02*
X6919229Y-15304460D01*
X6919229Y-15304460D02*
X6909705Y-15313984D01*
X6909705Y-15313984D02*
X6900182Y-15304460D01*
X6900182Y-15304460D02*
X6909705Y-15294936D01*
X6909705Y-15294936D02*
X6909705Y-15313984D01*
X6909705Y-15190174D02*
X6919229Y-15199698D01*
X6919229Y-15199698D02*
X6909705Y-15209222D01*
X6909705Y-15209222D02*
X6900182Y-15199698D01*
X6900182Y-15199698D02*
X6909705Y-15190174D01*
X6909705Y-15190174D02*
X6909705Y-15209222D01*
D12*
X5212500Y-15610000D02*
X5277500Y-15675000D01*
X5277500Y-15610000D02*
X5212500Y-15675000D01*
D11*
X5576372Y-15533984D02*
X5595420Y-15533984D01*
X5595420Y-15533984D02*
X5614467Y-15543508D01*
X5614467Y-15543508D02*
X5623991Y-15553031D01*
X5623991Y-15553031D02*
X5633515Y-15572079D01*
X5633515Y-15572079D02*
X5643039Y-15610174D01*
X5643039Y-15610174D02*
X5643039Y-15657793D01*
X5643039Y-15657793D02*
X5633515Y-15695888D01*
X5633515Y-15695888D02*
X5623991Y-15714936D01*
X5623991Y-15714936D02*
X5614467Y-15724460D01*
X5614467Y-15724460D02*
X5595420Y-15733984D01*
X5595420Y-15733984D02*
X5576372Y-15733984D01*
X5576372Y-15733984D02*
X5557324Y-15724460D01*
X5557324Y-15724460D02*
X5547801Y-15714936D01*
X5547801Y-15714936D02*
X5538277Y-15695888D01*
X5538277Y-15695888D02*
X5528753Y-15657793D01*
X5528753Y-15657793D02*
X5528753Y-15610174D01*
X5528753Y-15610174D02*
X5538277Y-15572079D01*
X5538277Y-15572079D02*
X5547801Y-15553031D01*
X5547801Y-15553031D02*
X5557324Y-15543508D01*
X5557324Y-15543508D02*
X5576372Y-15533984D01*
X5728753Y-15714936D02*
X5738277Y-15724460D01*
X5738277Y-15724460D02*
X5728753Y-15733984D01*
X5728753Y-15733984D02*
X5719229Y-15724460D01*
X5719229Y-15724460D02*
X5728753Y-15714936D01*
X5728753Y-15714936D02*
X5728753Y-15733984D01*
X5909705Y-15533984D02*
X5871610Y-15533984D01*
X5871610Y-15533984D02*
X5852562Y-15543508D01*
X5852562Y-15543508D02*
X5843039Y-15553031D01*
X5843039Y-15553031D02*
X5823991Y-15581603D01*
X5823991Y-15581603D02*
X5814467Y-15619698D01*
X5814467Y-15619698D02*
X5814467Y-15695888D01*
X5814467Y-15695888D02*
X5823991Y-15714936D01*
X5823991Y-15714936D02*
X5833515Y-15724460D01*
X5833515Y-15724460D02*
X5852562Y-15733984D01*
X5852562Y-15733984D02*
X5890658Y-15733984D01*
X5890658Y-15733984D02*
X5909705Y-15724460D01*
X5909705Y-15724460D02*
X5919229Y-15714936D01*
X5919229Y-15714936D02*
X5928753Y-15695888D01*
X5928753Y-15695888D02*
X5928753Y-15648269D01*
X5928753Y-15648269D02*
X5919229Y-15629222D01*
X5919229Y-15629222D02*
X5909705Y-15619698D01*
X5909705Y-15619698D02*
X5890658Y-15610174D01*
X5890658Y-15610174D02*
X5852562Y-15610174D01*
X5852562Y-15610174D02*
X5833515Y-15619698D01*
X5833515Y-15619698D02*
X5823991Y-15629222D01*
X5823991Y-15629222D02*
X5814467Y-15648269D01*
X6109705Y-15533984D02*
X6014467Y-15533984D01*
X6014467Y-15533984D02*
X6004943Y-15629222D01*
X6004943Y-15629222D02*
X6014467Y-15619698D01*
X6014467Y-15619698D02*
X6033515Y-15610174D01*
X6033515Y-15610174D02*
X6081134Y-15610174D01*
X6081134Y-15610174D02*
X6100182Y-15619698D01*
X6100182Y-15619698D02*
X6109705Y-15629222D01*
X6109705Y-15629222D02*
X6119229Y-15648269D01*
X6119229Y-15648269D02*
X6119229Y-15695888D01*
X6119229Y-15695888D02*
X6109705Y-15714936D01*
X6109705Y-15714936D02*
X6100182Y-15724460D01*
X6100182Y-15724460D02*
X6081134Y-15733984D01*
X6081134Y-15733984D02*
X6033515Y-15733984D01*
X6033515Y-15733984D02*
X6014467Y-15724460D01*
X6014467Y-15724460D02*
X6004943Y-15714936D01*
X6243039Y-15533984D02*
X6262086Y-15533984D01*
X6262086Y-15533984D02*
X6281134Y-15543508D01*
X6281134Y-15543508D02*
X6290658Y-15553031D01*
X6290658Y-15553031D02*
X6300182Y-15572079D01*
X6300182Y-15572079D02*
X6309705Y-15610174D01*
X6309705Y-15610174D02*
X6309705Y-15657793D01*
X6309705Y-15657793D02*
X6300182Y-15695888D01*
X6300182Y-15695888D02*
X6290658Y-15714936D01*
X6290658Y-15714936D02*
X6281134Y-15724460D01*
X6281134Y-15724460D02*
X6262086Y-15733984D01*
X6262086Y-15733984D02*
X6243039Y-15733984D01*
X6243039Y-15733984D02*
X6223991Y-15724460D01*
X6223991Y-15724460D02*
X6214467Y-15714936D01*
X6214467Y-15714936D02*
X6204943Y-15695888D01*
X6204943Y-15695888D02*
X6195420Y-15657793D01*
X6195420Y-15657793D02*
X6195420Y-15610174D01*
X6195420Y-15610174D02*
X6204943Y-15572079D01*
X6204943Y-15572079D02*
X6214467Y-15553031D01*
X6214467Y-15553031D02*
X6223991Y-15543508D01*
X6223991Y-15543508D02*
X6243039Y-15533984D01*
X6395420Y-15733984D02*
X6395420Y-15600650D01*
X6395420Y-15619698D02*
X6404943Y-15610174D01*
X6404943Y-15610174D02*
X6423991Y-15600650D01*
X6423991Y-15600650D02*
X6452563Y-15600650D01*
X6452563Y-15600650D02*
X6471610Y-15610174D01*
X6471610Y-15610174D02*
X6481134Y-15629222D01*
X6481134Y-15629222D02*
X6481134Y-15733984D01*
X6481134Y-15629222D02*
X6490658Y-15610174D01*
X6490658Y-15610174D02*
X6509705Y-15600650D01*
X6509705Y-15600650D02*
X6538277Y-15600650D01*
X6538277Y-15600650D02*
X6557324Y-15610174D01*
X6557324Y-15610174D02*
X6566848Y-15629222D01*
X6566848Y-15629222D02*
X6566848Y-15733984D01*
X6662086Y-15733984D02*
X6662086Y-15600650D01*
X6662086Y-15619698D02*
X6671610Y-15610174D01*
X6671610Y-15610174D02*
X6690658Y-15600650D01*
X6690658Y-15600650D02*
X6719229Y-15600650D01*
X6719229Y-15600650D02*
X6738277Y-15610174D01*
X6738277Y-15610174D02*
X6747801Y-15629222D01*
X6747801Y-15629222D02*
X6747801Y-15733984D01*
X6747801Y-15629222D02*
X6757324Y-15610174D01*
X6757324Y-15610174D02*
X6776372Y-15600650D01*
X6776372Y-15600650D02*
X6804943Y-15600650D01*
X6804943Y-15600650D02*
X6823991Y-15610174D01*
X6823991Y-15610174D02*
X6833515Y-15629222D01*
X6833515Y-15629222D02*
X6833515Y-15733984D01*
X7223991Y-15524460D02*
X7052563Y-15781603D01*
X7481134Y-15533984D02*
X7500182Y-15533984D01*
X7500182Y-15533984D02*
X7519229Y-15543508D01*
X7519229Y-15543508D02*
X7528753Y-15553031D01*
X7528753Y-15553031D02*
X7538277Y-15572079D01*
X7538277Y-15572079D02*
X7547801Y-15610174D01*
X7547801Y-15610174D02*
X7547801Y-15657793D01*
X7547801Y-15657793D02*
X7538277Y-15695888D01*
X7538277Y-15695888D02*
X7528753Y-15714936D01*
X7528753Y-15714936D02*
X7519229Y-15724460D01*
X7519229Y-15724460D02*
X7500182Y-15733984D01*
X7500182Y-15733984D02*
X7481134Y-15733984D01*
X7481134Y-15733984D02*
X7462086Y-15724460D01*
X7462086Y-15724460D02*
X7452563Y-15714936D01*
X7452563Y-15714936D02*
X7443039Y-15695888D01*
X7443039Y-15695888D02*
X7433515Y-15657793D01*
X7433515Y-15657793D02*
X7433515Y-15610174D01*
X7433515Y-15610174D02*
X7443039Y-15572079D01*
X7443039Y-15572079D02*
X7452563Y-15553031D01*
X7452563Y-15553031D02*
X7462086Y-15543508D01*
X7462086Y-15543508D02*
X7481134Y-15533984D01*
X7633515Y-15714936D02*
X7643039Y-15724460D01*
X7643039Y-15724460D02*
X7633515Y-15733984D01*
X7633515Y-15733984D02*
X7623991Y-15724460D01*
X7623991Y-15724460D02*
X7633515Y-15714936D01*
X7633515Y-15714936D02*
X7633515Y-15733984D01*
X7766848Y-15533984D02*
X7785896Y-15533984D01*
X7785896Y-15533984D02*
X7804944Y-15543508D01*
X7804944Y-15543508D02*
X7814467Y-15553031D01*
X7814467Y-15553031D02*
X7823991Y-15572079D01*
X7823991Y-15572079D02*
X7833515Y-15610174D01*
X7833515Y-15610174D02*
X7833515Y-15657793D01*
X7833515Y-15657793D02*
X7823991Y-15695888D01*
X7823991Y-15695888D02*
X7814467Y-15714936D01*
X7814467Y-15714936D02*
X7804944Y-15724460D01*
X7804944Y-15724460D02*
X7785896Y-15733984D01*
X7785896Y-15733984D02*
X7766848Y-15733984D01*
X7766848Y-15733984D02*
X7747801Y-15724460D01*
X7747801Y-15724460D02*
X7738277Y-15714936D01*
X7738277Y-15714936D02*
X7728753Y-15695888D01*
X7728753Y-15695888D02*
X7719229Y-15657793D01*
X7719229Y-15657793D02*
X7719229Y-15610174D01*
X7719229Y-15610174D02*
X7728753Y-15572079D01*
X7728753Y-15572079D02*
X7738277Y-15553031D01*
X7738277Y-15553031D02*
X7747801Y-15543508D01*
X7747801Y-15543508D02*
X7766848Y-15533984D01*
X7909706Y-15553031D02*
X7919229Y-15543508D01*
X7919229Y-15543508D02*
X7938277Y-15533984D01*
X7938277Y-15533984D02*
X7985896Y-15533984D01*
X7985896Y-15533984D02*
X8004944Y-15543508D01*
X8004944Y-15543508D02*
X8014467Y-15553031D01*
X8014467Y-15553031D02*
X8023991Y-15572079D01*
X8023991Y-15572079D02*
X8023991Y-15591127D01*
X8023991Y-15591127D02*
X8014467Y-15619698D01*
X8014467Y-15619698D02*
X7900182Y-15733984D01*
X7900182Y-15733984D02*
X8023991Y-15733984D01*
X8204944Y-15533984D02*
X8109706Y-15533984D01*
X8109706Y-15533984D02*
X8100182Y-15629222D01*
X8100182Y-15629222D02*
X8109706Y-15619698D01*
X8109706Y-15619698D02*
X8128753Y-15610174D01*
X8128753Y-15610174D02*
X8176372Y-15610174D01*
X8176372Y-15610174D02*
X8195420Y-15619698D01*
X8195420Y-15619698D02*
X8204944Y-15629222D01*
X8204944Y-15629222D02*
X8214467Y-15648269D01*
X8214467Y-15648269D02*
X8214467Y-15695888D01*
X8214467Y-15695888D02*
X8204944Y-15714936D01*
X8204944Y-15714936D02*
X8195420Y-15724460D01*
X8195420Y-15724460D02*
X8176372Y-15733984D01*
X8176372Y-15733984D02*
X8128753Y-15733984D01*
X8128753Y-15733984D02*
X8109706Y-15724460D01*
X8109706Y-15724460D02*
X8100182Y-15714936D01*
X8385896Y-15533984D02*
X8347801Y-15533984D01*
X8347801Y-15533984D02*
X8328753Y-15543508D01*
X8328753Y-15543508D02*
X8319229Y-15553031D01*
X8319229Y-15553031D02*
X8300182Y-15581603D01*
X8300182Y-15581603D02*
X8290658Y-15619698D01*
X8290658Y-15619698D02*
X8290658Y-15695888D01*
X8290658Y-15695888D02*
X8300182Y-15714936D01*
X8300182Y-15714936D02*
X8309706Y-15724460D01*
X8309706Y-15724460D02*
X8328753Y-15733984D01*
X8328753Y-15733984D02*
X8366848Y-15733984D01*
X8366848Y-15733984D02*
X8385896Y-15724460D01*
X8385896Y-15724460D02*
X8395420Y-15714936D01*
X8395420Y-15714936D02*
X8404944Y-15695888D01*
X8404944Y-15695888D02*
X8404944Y-15648269D01*
X8404944Y-15648269D02*
X8395420Y-15629222D01*
X8395420Y-15629222D02*
X8385896Y-15619698D01*
X8385896Y-15619698D02*
X8366848Y-15610174D01*
X8366848Y-15610174D02*
X8328753Y-15610174D01*
X8328753Y-15610174D02*
X8309706Y-15619698D01*
X8309706Y-15619698D02*
X8300182Y-15629222D01*
X8300182Y-15629222D02*
X8290658Y-15648269D01*
X8481134Y-15533984D02*
X8481134Y-15572079D01*
X8557325Y-15533984D02*
X8557325Y-15572079D01*
X8852563Y-15810174D02*
X8843039Y-15800650D01*
X8843039Y-15800650D02*
X8823991Y-15772079D01*
X8823991Y-15772079D02*
X8814468Y-15753031D01*
X8814468Y-15753031D02*
X8804944Y-15724460D01*
X8804944Y-15724460D02*
X8795420Y-15676841D01*
X8795420Y-15676841D02*
X8795420Y-15638746D01*
X8795420Y-15638746D02*
X8804944Y-15591127D01*
X8804944Y-15591127D02*
X8814468Y-15562555D01*
X8814468Y-15562555D02*
X8823991Y-15543508D01*
X8823991Y-15543508D02*
X8843039Y-15514936D01*
X8843039Y-15514936D02*
X8852563Y-15505412D01*
X9014468Y-15600650D02*
X9014468Y-15733984D01*
X8966849Y-15524460D02*
X8919230Y-15667317D01*
X8919230Y-15667317D02*
X9043039Y-15667317D01*
X9271611Y-15733984D02*
X9271611Y-15533984D01*
X9357325Y-15733984D02*
X9357325Y-15629222D01*
X9357325Y-15629222D02*
X9347801Y-15610174D01*
X9347801Y-15610174D02*
X9328753Y-15600650D01*
X9328753Y-15600650D02*
X9300182Y-15600650D01*
X9300182Y-15600650D02*
X9281134Y-15610174D01*
X9281134Y-15610174D02*
X9271611Y-15619698D01*
X9481134Y-15733984D02*
X9462087Y-15724460D01*
X9462087Y-15724460D02*
X9452563Y-15714936D01*
X9452563Y-15714936D02*
X9443039Y-15695888D01*
X9443039Y-15695888D02*
X9443039Y-15638746D01*
X9443039Y-15638746D02*
X9452563Y-15619698D01*
X9452563Y-15619698D02*
X9462087Y-15610174D01*
X9462087Y-15610174D02*
X9481134Y-15600650D01*
X9481134Y-15600650D02*
X9509706Y-15600650D01*
X9509706Y-15600650D02*
X9528753Y-15610174D01*
X9528753Y-15610174D02*
X9538277Y-15619698D01*
X9538277Y-15619698D02*
X9547801Y-15638746D01*
X9547801Y-15638746D02*
X9547801Y-15695888D01*
X9547801Y-15695888D02*
X9538277Y-15714936D01*
X9538277Y-15714936D02*
X9528753Y-15724460D01*
X9528753Y-15724460D02*
X9509706Y-15733984D01*
X9509706Y-15733984D02*
X9481134Y-15733984D01*
X9662087Y-15733984D02*
X9643039Y-15724460D01*
X9643039Y-15724460D02*
X9633515Y-15705412D01*
X9633515Y-15705412D02*
X9633515Y-15533984D01*
X9814468Y-15724460D02*
X9795420Y-15733984D01*
X9795420Y-15733984D02*
X9757325Y-15733984D01*
X9757325Y-15733984D02*
X9738277Y-15724460D01*
X9738277Y-15724460D02*
X9728753Y-15705412D01*
X9728753Y-15705412D02*
X9728753Y-15629222D01*
X9728753Y-15629222D02*
X9738277Y-15610174D01*
X9738277Y-15610174D02*
X9757325Y-15600650D01*
X9757325Y-15600650D02*
X9795420Y-15600650D01*
X9795420Y-15600650D02*
X9814468Y-15610174D01*
X9814468Y-15610174D02*
X9823992Y-15629222D01*
X9823992Y-15629222D02*
X9823992Y-15648269D01*
X9823992Y-15648269D02*
X9728753Y-15667317D01*
X9900182Y-15724460D02*
X9919230Y-15733984D01*
X9919230Y-15733984D02*
X9957325Y-15733984D01*
X9957325Y-15733984D02*
X9976373Y-15724460D01*
X9976373Y-15724460D02*
X9985896Y-15705412D01*
X9985896Y-15705412D02*
X9985896Y-15695888D01*
X9985896Y-15695888D02*
X9976373Y-15676841D01*
X9976373Y-15676841D02*
X9957325Y-15667317D01*
X9957325Y-15667317D02*
X9928753Y-15667317D01*
X9928753Y-15667317D02*
X9909706Y-15657793D01*
X9909706Y-15657793D02*
X9900182Y-15638746D01*
X9900182Y-15638746D02*
X9900182Y-15629222D01*
X9900182Y-15629222D02*
X9909706Y-15610174D01*
X9909706Y-15610174D02*
X9928753Y-15600650D01*
X9928753Y-15600650D02*
X9957325Y-15600650D01*
X9957325Y-15600650D02*
X9976373Y-15610174D01*
X10052563Y-15810174D02*
X10062087Y-15800650D01*
X10062087Y-15800650D02*
X10081134Y-15772079D01*
X10081134Y-15772079D02*
X10090658Y-15753031D01*
X10090658Y-15753031D02*
X10100182Y-15724460D01*
X10100182Y-15724460D02*
X10109706Y-15676841D01*
X10109706Y-15676841D02*
X10109706Y-15638746D01*
X10109706Y-15638746D02*
X10100182Y-15591127D01*
X10100182Y-15591127D02*
X10090658Y-15562555D01*
X10090658Y-15562555D02*
X10081134Y-15543508D01*
X10081134Y-15543508D02*
X10062087Y-15514936D01*
X10062087Y-15514936D02*
X10052563Y-15505412D01*
X10414468Y-15810174D02*
X10404944Y-15800650D01*
X10404944Y-15800650D02*
X10385896Y-15772079D01*
X10385896Y-15772079D02*
X10376373Y-15753031D01*
X10376373Y-15753031D02*
X10366849Y-15724460D01*
X10366849Y-15724460D02*
X10357325Y-15676841D01*
X10357325Y-15676841D02*
X10357325Y-15638746D01*
X10357325Y-15638746D02*
X10366849Y-15591127D01*
X10366849Y-15591127D02*
X10376373Y-15562555D01*
X10376373Y-15562555D02*
X10385896Y-15543508D01*
X10385896Y-15543508D02*
X10404944Y-15514936D01*
X10404944Y-15514936D02*
X10414468Y-15505412D01*
X10490658Y-15600650D02*
X10490658Y-15733984D01*
X10490658Y-15619698D02*
X10500182Y-15610174D01*
X10500182Y-15610174D02*
X10519230Y-15600650D01*
X10519230Y-15600650D02*
X10547801Y-15600650D01*
X10547801Y-15600650D02*
X10566849Y-15610174D01*
X10566849Y-15610174D02*
X10576373Y-15629222D01*
X10576373Y-15629222D02*
X10576373Y-15733984D01*
X10700182Y-15733984D02*
X10681134Y-15724460D01*
X10681134Y-15724460D02*
X10671611Y-15714936D01*
X10671611Y-15714936D02*
X10662087Y-15695888D01*
X10662087Y-15695888D02*
X10662087Y-15638746D01*
X10662087Y-15638746D02*
X10671611Y-15619698D01*
X10671611Y-15619698D02*
X10681134Y-15610174D01*
X10681134Y-15610174D02*
X10700182Y-15600650D01*
X10700182Y-15600650D02*
X10728754Y-15600650D01*
X10728754Y-15600650D02*
X10747801Y-15610174D01*
X10747801Y-15610174D02*
X10757325Y-15619698D01*
X10757325Y-15619698D02*
X10766849Y-15638746D01*
X10766849Y-15638746D02*
X10766849Y-15695888D01*
X10766849Y-15695888D02*
X10757325Y-15714936D01*
X10757325Y-15714936D02*
X10747801Y-15724460D01*
X10747801Y-15724460D02*
X10728754Y-15733984D01*
X10728754Y-15733984D02*
X10700182Y-15733984D01*
X10823992Y-15600650D02*
X10900182Y-15600650D01*
X10852563Y-15533984D02*
X10852563Y-15705412D01*
X10852563Y-15705412D02*
X10862087Y-15724460D01*
X10862087Y-15724460D02*
X10881134Y-15733984D01*
X10881134Y-15733984D02*
X10900182Y-15733984D01*
X11119230Y-15600650D02*
X11119230Y-15800650D01*
X11119230Y-15610174D02*
X11138277Y-15600650D01*
X11138277Y-15600650D02*
X11176373Y-15600650D01*
X11176373Y-15600650D02*
X11195420Y-15610174D01*
X11195420Y-15610174D02*
X11204944Y-15619698D01*
X11204944Y-15619698D02*
X11214468Y-15638746D01*
X11214468Y-15638746D02*
X11214468Y-15695888D01*
X11214468Y-15695888D02*
X11204944Y-15714936D01*
X11204944Y-15714936D02*
X11195420Y-15724460D01*
X11195420Y-15724460D02*
X11176373Y-15733984D01*
X11176373Y-15733984D02*
X11138277Y-15733984D01*
X11138277Y-15733984D02*
X11119230Y-15724460D01*
X11328753Y-15733984D02*
X11309706Y-15724460D01*
X11309706Y-15724460D02*
X11300182Y-15705412D01*
X11300182Y-15705412D02*
X11300182Y-15533984D01*
X11490658Y-15733984D02*
X11490658Y-15629222D01*
X11490658Y-15629222D02*
X11481134Y-15610174D01*
X11481134Y-15610174D02*
X11462087Y-15600650D01*
X11462087Y-15600650D02*
X11423992Y-15600650D01*
X11423992Y-15600650D02*
X11404944Y-15610174D01*
X11490658Y-15724460D02*
X11471611Y-15733984D01*
X11471611Y-15733984D02*
X11423992Y-15733984D01*
X11423992Y-15733984D02*
X11404944Y-15724460D01*
X11404944Y-15724460D02*
X11395420Y-15705412D01*
X11395420Y-15705412D02*
X11395420Y-15686365D01*
X11395420Y-15686365D02*
X11404944Y-15667317D01*
X11404944Y-15667317D02*
X11423992Y-15657793D01*
X11423992Y-15657793D02*
X11471611Y-15657793D01*
X11471611Y-15657793D02*
X11490658Y-15648269D01*
X11557325Y-15600650D02*
X11633515Y-15600650D01*
X11585896Y-15533984D02*
X11585896Y-15705412D01*
X11585896Y-15705412D02*
X11595420Y-15724460D01*
X11595420Y-15724460D02*
X11614468Y-15733984D01*
X11614468Y-15733984D02*
X11633515Y-15733984D01*
X11776373Y-15724460D02*
X11757325Y-15733984D01*
X11757325Y-15733984D02*
X11719230Y-15733984D01*
X11719230Y-15733984D02*
X11700182Y-15724460D01*
X11700182Y-15724460D02*
X11690658Y-15705412D01*
X11690658Y-15705412D02*
X11690658Y-15629222D01*
X11690658Y-15629222D02*
X11700182Y-15610174D01*
X11700182Y-15610174D02*
X11719230Y-15600650D01*
X11719230Y-15600650D02*
X11757325Y-15600650D01*
X11757325Y-15600650D02*
X11776373Y-15610174D01*
X11776373Y-15610174D02*
X11785896Y-15629222D01*
X11785896Y-15629222D02*
X11785896Y-15648269D01*
X11785896Y-15648269D02*
X11690658Y-15667317D01*
X11957325Y-15733984D02*
X11957325Y-15533984D01*
X11957325Y-15724460D02*
X11938277Y-15733984D01*
X11938277Y-15733984D02*
X11900182Y-15733984D01*
X11900182Y-15733984D02*
X11881134Y-15724460D01*
X11881134Y-15724460D02*
X11871611Y-15714936D01*
X11871611Y-15714936D02*
X11862087Y-15695888D01*
X11862087Y-15695888D02*
X11862087Y-15638746D01*
X11862087Y-15638746D02*
X11871611Y-15619698D01*
X11871611Y-15619698D02*
X11881134Y-15610174D01*
X11881134Y-15610174D02*
X11900182Y-15600650D01*
X11900182Y-15600650D02*
X11938277Y-15600650D01*
X11938277Y-15600650D02*
X11957325Y-15610174D01*
X12033515Y-15810174D02*
X12043039Y-15800650D01*
X12043039Y-15800650D02*
X12062087Y-15772079D01*
X12062087Y-15772079D02*
X12071611Y-15753031D01*
X12071611Y-15753031D02*
X12081134Y-15724460D01*
X12081134Y-15724460D02*
X12090658Y-15676841D01*
X12090658Y-15676841D02*
X12090658Y-15638746D01*
X12090658Y-15638746D02*
X12081134Y-15591127D01*
X12081134Y-15591127D02*
X12071611Y-15562555D01*
X12071611Y-15562555D02*
X12062087Y-15543508D01*
X12062087Y-15543508D02*
X12043039Y-15514936D01*
X12043039Y-15514936D02*
X12033515Y-15505412D01*
D12*
X5277500Y-15906500D02*
G75*
G02*
X5177500Y-15906500I-50000J0D01*
G01*
X5177500Y-15906500D02*
G75*
G02*
X5277500Y-15906500I50000J0D01*
G01*
D11*
X5643039Y-15997984D02*
X5528753Y-15997984D01*
X5585896Y-15997984D02*
X5585896Y-15797984D01*
X5585896Y-15797984D02*
X5566848Y-15826555D01*
X5566848Y-15826555D02*
X5547801Y-15845603D01*
X5547801Y-15845603D02*
X5528753Y-15855127D01*
X5728753Y-15978936D02*
X5738277Y-15988460D01*
X5738277Y-15988460D02*
X5728753Y-15997984D01*
X5728753Y-15997984D02*
X5719229Y-15988460D01*
X5719229Y-15988460D02*
X5728753Y-15978936D01*
X5728753Y-15978936D02*
X5728753Y-15997984D01*
X5862086Y-15797984D02*
X5881134Y-15797984D01*
X5881134Y-15797984D02*
X5900182Y-15807508D01*
X5900182Y-15807508D02*
X5909705Y-15817031D01*
X5909705Y-15817031D02*
X5919229Y-15836079D01*
X5919229Y-15836079D02*
X5928753Y-15874174D01*
X5928753Y-15874174D02*
X5928753Y-15921793D01*
X5928753Y-15921793D02*
X5919229Y-15959888D01*
X5919229Y-15959888D02*
X5909705Y-15978936D01*
X5909705Y-15978936D02*
X5900182Y-15988460D01*
X5900182Y-15988460D02*
X5881134Y-15997984D01*
X5881134Y-15997984D02*
X5862086Y-15997984D01*
X5862086Y-15997984D02*
X5843039Y-15988460D01*
X5843039Y-15988460D02*
X5833515Y-15978936D01*
X5833515Y-15978936D02*
X5823991Y-15959888D01*
X5823991Y-15959888D02*
X5814467Y-15921793D01*
X5814467Y-15921793D02*
X5814467Y-15874174D01*
X5814467Y-15874174D02*
X5823991Y-15836079D01*
X5823991Y-15836079D02*
X5833515Y-15817031D01*
X5833515Y-15817031D02*
X5843039Y-15807508D01*
X5843039Y-15807508D02*
X5862086Y-15797984D01*
X6052562Y-15797984D02*
X6071610Y-15797984D01*
X6071610Y-15797984D02*
X6090658Y-15807508D01*
X6090658Y-15807508D02*
X6100182Y-15817031D01*
X6100182Y-15817031D02*
X6109705Y-15836079D01*
X6109705Y-15836079D02*
X6119229Y-15874174D01*
X6119229Y-15874174D02*
X6119229Y-15921793D01*
X6119229Y-15921793D02*
X6109705Y-15959888D01*
X6109705Y-15959888D02*
X6100182Y-15978936D01*
X6100182Y-15978936D02*
X6090658Y-15988460D01*
X6090658Y-15988460D02*
X6071610Y-15997984D01*
X6071610Y-15997984D02*
X6052562Y-15997984D01*
X6052562Y-15997984D02*
X6033515Y-15988460D01*
X6033515Y-15988460D02*
X6023991Y-15978936D01*
X6023991Y-15978936D02*
X6014467Y-15959888D01*
X6014467Y-15959888D02*
X6004943Y-15921793D01*
X6004943Y-15921793D02*
X6004943Y-15874174D01*
X6004943Y-15874174D02*
X6014467Y-15836079D01*
X6014467Y-15836079D02*
X6023991Y-15817031D01*
X6023991Y-15817031D02*
X6033515Y-15807508D01*
X6033515Y-15807508D02*
X6052562Y-15797984D01*
X6243039Y-15797984D02*
X6262086Y-15797984D01*
X6262086Y-15797984D02*
X6281134Y-15807508D01*
X6281134Y-15807508D02*
X6290658Y-15817031D01*
X6290658Y-15817031D02*
X6300182Y-15836079D01*
X6300182Y-15836079D02*
X6309705Y-15874174D01*
X6309705Y-15874174D02*
X6309705Y-15921793D01*
X6309705Y-15921793D02*
X6300182Y-15959888D01*
X6300182Y-15959888D02*
X6290658Y-15978936D01*
X6290658Y-15978936D02*
X6281134Y-15988460D01*
X6281134Y-15988460D02*
X6262086Y-15997984D01*
X6262086Y-15997984D02*
X6243039Y-15997984D01*
X6243039Y-15997984D02*
X6223991Y-15988460D01*
X6223991Y-15988460D02*
X6214467Y-15978936D01*
X6214467Y-15978936D02*
X6204943Y-15959888D01*
X6204943Y-15959888D02*
X6195420Y-15921793D01*
X6195420Y-15921793D02*
X6195420Y-15874174D01*
X6195420Y-15874174D02*
X6204943Y-15836079D01*
X6204943Y-15836079D02*
X6214467Y-15817031D01*
X6214467Y-15817031D02*
X6223991Y-15807508D01*
X6223991Y-15807508D02*
X6243039Y-15797984D01*
X6395420Y-15997984D02*
X6395420Y-15864650D01*
X6395420Y-15883698D02*
X6404943Y-15874174D01*
X6404943Y-15874174D02*
X6423991Y-15864650D01*
X6423991Y-15864650D02*
X6452563Y-15864650D01*
X6452563Y-15864650D02*
X6471610Y-15874174D01*
X6471610Y-15874174D02*
X6481134Y-15893222D01*
X6481134Y-15893222D02*
X6481134Y-15997984D01*
X6481134Y-15893222D02*
X6490658Y-15874174D01*
X6490658Y-15874174D02*
X6509705Y-15864650D01*
X6509705Y-15864650D02*
X6538277Y-15864650D01*
X6538277Y-15864650D02*
X6557324Y-15874174D01*
X6557324Y-15874174D02*
X6566848Y-15893222D01*
X6566848Y-15893222D02*
X6566848Y-15997984D01*
X6662086Y-15997984D02*
X6662086Y-15864650D01*
X6662086Y-15883698D02*
X6671610Y-15874174D01*
X6671610Y-15874174D02*
X6690658Y-15864650D01*
X6690658Y-15864650D02*
X6719229Y-15864650D01*
X6719229Y-15864650D02*
X6738277Y-15874174D01*
X6738277Y-15874174D02*
X6747801Y-15893222D01*
X6747801Y-15893222D02*
X6747801Y-15997984D01*
X6747801Y-15893222D02*
X6757324Y-15874174D01*
X6757324Y-15874174D02*
X6776372Y-15864650D01*
X6776372Y-15864650D02*
X6804943Y-15864650D01*
X6804943Y-15864650D02*
X6823991Y-15874174D01*
X6823991Y-15874174D02*
X6833515Y-15893222D01*
X6833515Y-15893222D02*
X6833515Y-15997984D01*
X7223991Y-15788460D02*
X7052563Y-16045603D01*
X7481134Y-15797984D02*
X7500182Y-15797984D01*
X7500182Y-15797984D02*
X7519229Y-15807508D01*
X7519229Y-15807508D02*
X7528753Y-15817031D01*
X7528753Y-15817031D02*
X7538277Y-15836079D01*
X7538277Y-15836079D02*
X7547801Y-15874174D01*
X7547801Y-15874174D02*
X7547801Y-15921793D01*
X7547801Y-15921793D02*
X7538277Y-15959888D01*
X7538277Y-15959888D02*
X7528753Y-15978936D01*
X7528753Y-15978936D02*
X7519229Y-15988460D01*
X7519229Y-15988460D02*
X7500182Y-15997984D01*
X7500182Y-15997984D02*
X7481134Y-15997984D01*
X7481134Y-15997984D02*
X7462086Y-15988460D01*
X7462086Y-15988460D02*
X7452563Y-15978936D01*
X7452563Y-15978936D02*
X7443039Y-15959888D01*
X7443039Y-15959888D02*
X7433515Y-15921793D01*
X7433515Y-15921793D02*
X7433515Y-15874174D01*
X7433515Y-15874174D02*
X7443039Y-15836079D01*
X7443039Y-15836079D02*
X7452563Y-15817031D01*
X7452563Y-15817031D02*
X7462086Y-15807508D01*
X7462086Y-15807508D02*
X7481134Y-15797984D01*
X7633515Y-15978936D02*
X7643039Y-15988460D01*
X7643039Y-15988460D02*
X7633515Y-15997984D01*
X7633515Y-15997984D02*
X7623991Y-15988460D01*
X7623991Y-15988460D02*
X7633515Y-15978936D01*
X7633515Y-15978936D02*
X7633515Y-15997984D01*
X7766848Y-15797984D02*
X7785896Y-15797984D01*
X7785896Y-15797984D02*
X7804944Y-15807508D01*
X7804944Y-15807508D02*
X7814467Y-15817031D01*
X7814467Y-15817031D02*
X7823991Y-15836079D01*
X7823991Y-15836079D02*
X7833515Y-15874174D01*
X7833515Y-15874174D02*
X7833515Y-15921793D01*
X7833515Y-15921793D02*
X7823991Y-15959888D01*
X7823991Y-15959888D02*
X7814467Y-15978936D01*
X7814467Y-15978936D02*
X7804944Y-15988460D01*
X7804944Y-15988460D02*
X7785896Y-15997984D01*
X7785896Y-15997984D02*
X7766848Y-15997984D01*
X7766848Y-15997984D02*
X7747801Y-15988460D01*
X7747801Y-15988460D02*
X7738277Y-15978936D01*
X7738277Y-15978936D02*
X7728753Y-15959888D01*
X7728753Y-15959888D02*
X7719229Y-15921793D01*
X7719229Y-15921793D02*
X7719229Y-15874174D01*
X7719229Y-15874174D02*
X7728753Y-15836079D01*
X7728753Y-15836079D02*
X7738277Y-15817031D01*
X7738277Y-15817031D02*
X7747801Y-15807508D01*
X7747801Y-15807508D02*
X7766848Y-15797984D01*
X7900182Y-15797984D02*
X8023991Y-15797984D01*
X8023991Y-15797984D02*
X7957325Y-15874174D01*
X7957325Y-15874174D02*
X7985896Y-15874174D01*
X7985896Y-15874174D02*
X8004944Y-15883698D01*
X8004944Y-15883698D02*
X8014467Y-15893222D01*
X8014467Y-15893222D02*
X8023991Y-15912269D01*
X8023991Y-15912269D02*
X8023991Y-15959888D01*
X8023991Y-15959888D02*
X8014467Y-15978936D01*
X8014467Y-15978936D02*
X8004944Y-15988460D01*
X8004944Y-15988460D02*
X7985896Y-15997984D01*
X7985896Y-15997984D02*
X7928753Y-15997984D01*
X7928753Y-15997984D02*
X7909706Y-15988460D01*
X7909706Y-15988460D02*
X7900182Y-15978936D01*
X8119229Y-15997984D02*
X8157325Y-15997984D01*
X8157325Y-15997984D02*
X8176372Y-15988460D01*
X8176372Y-15988460D02*
X8185896Y-15978936D01*
X8185896Y-15978936D02*
X8204944Y-15950365D01*
X8204944Y-15950365D02*
X8214467Y-15912269D01*
X8214467Y-15912269D02*
X8214467Y-15836079D01*
X8214467Y-15836079D02*
X8204944Y-15817031D01*
X8204944Y-15817031D02*
X8195420Y-15807508D01*
X8195420Y-15807508D02*
X8176372Y-15797984D01*
X8176372Y-15797984D02*
X8138277Y-15797984D01*
X8138277Y-15797984D02*
X8119229Y-15807508D01*
X8119229Y-15807508D02*
X8109706Y-15817031D01*
X8109706Y-15817031D02*
X8100182Y-15836079D01*
X8100182Y-15836079D02*
X8100182Y-15883698D01*
X8100182Y-15883698D02*
X8109706Y-15902746D01*
X8109706Y-15902746D02*
X8119229Y-15912269D01*
X8119229Y-15912269D02*
X8138277Y-15921793D01*
X8138277Y-15921793D02*
X8176372Y-15921793D01*
X8176372Y-15921793D02*
X8195420Y-15912269D01*
X8195420Y-15912269D02*
X8204944Y-15902746D01*
X8204944Y-15902746D02*
X8214467Y-15883698D01*
X8385896Y-15864650D02*
X8385896Y-15997984D01*
X8338277Y-15788460D02*
X8290658Y-15931317D01*
X8290658Y-15931317D02*
X8414468Y-15931317D01*
X8481134Y-15797984D02*
X8481134Y-15836079D01*
X8557325Y-15797984D02*
X8557325Y-15836079D01*
X8852563Y-16074174D02*
X8843039Y-16064650D01*
X8843039Y-16064650D02*
X8823991Y-16036079D01*
X8823991Y-16036079D02*
X8814468Y-16017031D01*
X8814468Y-16017031D02*
X8804944Y-15988460D01*
X8804944Y-15988460D02*
X8795420Y-15940841D01*
X8795420Y-15940841D02*
X8795420Y-15902746D01*
X8795420Y-15902746D02*
X8804944Y-15855127D01*
X8804944Y-15855127D02*
X8814468Y-15826555D01*
X8814468Y-15826555D02*
X8823991Y-15807508D01*
X8823991Y-15807508D02*
X8843039Y-15778936D01*
X8843039Y-15778936D02*
X8852563Y-15769412D01*
X9014468Y-15864650D02*
X9014468Y-15997984D01*
X8966849Y-15788460D02*
X8919230Y-15931317D01*
X8919230Y-15931317D02*
X9043039Y-15931317D01*
X9271611Y-15997984D02*
X9271611Y-15797984D01*
X9357325Y-15997984D02*
X9357325Y-15893222D01*
X9357325Y-15893222D02*
X9347801Y-15874174D01*
X9347801Y-15874174D02*
X9328753Y-15864650D01*
X9328753Y-15864650D02*
X9300182Y-15864650D01*
X9300182Y-15864650D02*
X9281134Y-15874174D01*
X9281134Y-15874174D02*
X9271611Y-15883698D01*
X9481134Y-15997984D02*
X9462087Y-15988460D01*
X9462087Y-15988460D02*
X9452563Y-15978936D01*
X9452563Y-15978936D02*
X9443039Y-15959888D01*
X9443039Y-15959888D02*
X9443039Y-15902746D01*
X9443039Y-15902746D02*
X9452563Y-15883698D01*
X9452563Y-15883698D02*
X9462087Y-15874174D01*
X9462087Y-15874174D02*
X9481134Y-15864650D01*
X9481134Y-15864650D02*
X9509706Y-15864650D01*
X9509706Y-15864650D02*
X9528753Y-15874174D01*
X9528753Y-15874174D02*
X9538277Y-15883698D01*
X9538277Y-15883698D02*
X9547801Y-15902746D01*
X9547801Y-15902746D02*
X9547801Y-15959888D01*
X9547801Y-15959888D02*
X9538277Y-15978936D01*
X9538277Y-15978936D02*
X9528753Y-15988460D01*
X9528753Y-15988460D02*
X9509706Y-15997984D01*
X9509706Y-15997984D02*
X9481134Y-15997984D01*
X9662087Y-15997984D02*
X9643039Y-15988460D01*
X9643039Y-15988460D02*
X9633515Y-15969412D01*
X9633515Y-15969412D02*
X9633515Y-15797984D01*
X9814468Y-15988460D02*
X9795420Y-15997984D01*
X9795420Y-15997984D02*
X9757325Y-15997984D01*
X9757325Y-15997984D02*
X9738277Y-15988460D01*
X9738277Y-15988460D02*
X9728753Y-15969412D01*
X9728753Y-15969412D02*
X9728753Y-15893222D01*
X9728753Y-15893222D02*
X9738277Y-15874174D01*
X9738277Y-15874174D02*
X9757325Y-15864650D01*
X9757325Y-15864650D02*
X9795420Y-15864650D01*
X9795420Y-15864650D02*
X9814468Y-15874174D01*
X9814468Y-15874174D02*
X9823992Y-15893222D01*
X9823992Y-15893222D02*
X9823992Y-15912269D01*
X9823992Y-15912269D02*
X9728753Y-15931317D01*
X9900182Y-15988460D02*
X9919230Y-15997984D01*
X9919230Y-15997984D02*
X9957325Y-15997984D01*
X9957325Y-15997984D02*
X9976373Y-15988460D01*
X9976373Y-15988460D02*
X9985896Y-15969412D01*
X9985896Y-15969412D02*
X9985896Y-15959888D01*
X9985896Y-15959888D02*
X9976373Y-15940841D01*
X9976373Y-15940841D02*
X9957325Y-15931317D01*
X9957325Y-15931317D02*
X9928753Y-15931317D01*
X9928753Y-15931317D02*
X9909706Y-15921793D01*
X9909706Y-15921793D02*
X9900182Y-15902746D01*
X9900182Y-15902746D02*
X9900182Y-15893222D01*
X9900182Y-15893222D02*
X9909706Y-15874174D01*
X9909706Y-15874174D02*
X9928753Y-15864650D01*
X9928753Y-15864650D02*
X9957325Y-15864650D01*
X9957325Y-15864650D02*
X9976373Y-15874174D01*
X10052563Y-16074174D02*
X10062087Y-16064650D01*
X10062087Y-16064650D02*
X10081134Y-16036079D01*
X10081134Y-16036079D02*
X10090658Y-16017031D01*
X10090658Y-16017031D02*
X10100182Y-15988460D01*
X10100182Y-15988460D02*
X10109706Y-15940841D01*
X10109706Y-15940841D02*
X10109706Y-15902746D01*
X10109706Y-15902746D02*
X10100182Y-15855127D01*
X10100182Y-15855127D02*
X10090658Y-15826555D01*
X10090658Y-15826555D02*
X10081134Y-15807508D01*
X10081134Y-15807508D02*
X10062087Y-15778936D01*
X10062087Y-15778936D02*
X10052563Y-15769412D01*
X10414468Y-16074174D02*
X10404944Y-16064650D01*
X10404944Y-16064650D02*
X10385896Y-16036079D01*
X10385896Y-16036079D02*
X10376373Y-16017031D01*
X10376373Y-16017031D02*
X10366849Y-15988460D01*
X10366849Y-15988460D02*
X10357325Y-15940841D01*
X10357325Y-15940841D02*
X10357325Y-15902746D01*
X10357325Y-15902746D02*
X10366849Y-15855127D01*
X10366849Y-15855127D02*
X10376373Y-15826555D01*
X10376373Y-15826555D02*
X10385896Y-15807508D01*
X10385896Y-15807508D02*
X10404944Y-15778936D01*
X10404944Y-15778936D02*
X10414468Y-15769412D01*
X10490658Y-15864650D02*
X10490658Y-15997984D01*
X10490658Y-15883698D02*
X10500182Y-15874174D01*
X10500182Y-15874174D02*
X10519230Y-15864650D01*
X10519230Y-15864650D02*
X10547801Y-15864650D01*
X10547801Y-15864650D02*
X10566849Y-15874174D01*
X10566849Y-15874174D02*
X10576373Y-15893222D01*
X10576373Y-15893222D02*
X10576373Y-15997984D01*
X10700182Y-15997984D02*
X10681134Y-15988460D01*
X10681134Y-15988460D02*
X10671611Y-15978936D01*
X10671611Y-15978936D02*
X10662087Y-15959888D01*
X10662087Y-15959888D02*
X10662087Y-15902746D01*
X10662087Y-15902746D02*
X10671611Y-15883698D01*
X10671611Y-15883698D02*
X10681134Y-15874174D01*
X10681134Y-15874174D02*
X10700182Y-15864650D01*
X10700182Y-15864650D02*
X10728754Y-15864650D01*
X10728754Y-15864650D02*
X10747801Y-15874174D01*
X10747801Y-15874174D02*
X10757325Y-15883698D01*
X10757325Y-15883698D02*
X10766849Y-15902746D01*
X10766849Y-15902746D02*
X10766849Y-15959888D01*
X10766849Y-15959888D02*
X10757325Y-15978936D01*
X10757325Y-15978936D02*
X10747801Y-15988460D01*
X10747801Y-15988460D02*
X10728754Y-15997984D01*
X10728754Y-15997984D02*
X10700182Y-15997984D01*
X10823992Y-15864650D02*
X10900182Y-15864650D01*
X10852563Y-15797984D02*
X10852563Y-15969412D01*
X10852563Y-15969412D02*
X10862087Y-15988460D01*
X10862087Y-15988460D02*
X10881134Y-15997984D01*
X10881134Y-15997984D02*
X10900182Y-15997984D01*
X11119230Y-15864650D02*
X11119230Y-16064650D01*
X11119230Y-15874174D02*
X11138277Y-15864650D01*
X11138277Y-15864650D02*
X11176373Y-15864650D01*
X11176373Y-15864650D02*
X11195420Y-15874174D01*
X11195420Y-15874174D02*
X11204944Y-15883698D01*
X11204944Y-15883698D02*
X11214468Y-15902746D01*
X11214468Y-15902746D02*
X11214468Y-15959888D01*
X11214468Y-15959888D02*
X11204944Y-15978936D01*
X11204944Y-15978936D02*
X11195420Y-15988460D01*
X11195420Y-15988460D02*
X11176373Y-15997984D01*
X11176373Y-15997984D02*
X11138277Y-15997984D01*
X11138277Y-15997984D02*
X11119230Y-15988460D01*
X11328753Y-15997984D02*
X11309706Y-15988460D01*
X11309706Y-15988460D02*
X11300182Y-15969412D01*
X11300182Y-15969412D02*
X11300182Y-15797984D01*
X11490658Y-15997984D02*
X11490658Y-15893222D01*
X11490658Y-15893222D02*
X11481134Y-15874174D01*
X11481134Y-15874174D02*
X11462087Y-15864650D01*
X11462087Y-15864650D02*
X11423992Y-15864650D01*
X11423992Y-15864650D02*
X11404944Y-15874174D01*
X11490658Y-15988460D02*
X11471611Y-15997984D01*
X11471611Y-15997984D02*
X11423992Y-15997984D01*
X11423992Y-15997984D02*
X11404944Y-15988460D01*
X11404944Y-15988460D02*
X11395420Y-15969412D01*
X11395420Y-15969412D02*
X11395420Y-15950365D01*
X11395420Y-15950365D02*
X11404944Y-15931317D01*
X11404944Y-15931317D02*
X11423992Y-15921793D01*
X11423992Y-15921793D02*
X11471611Y-15921793D01*
X11471611Y-15921793D02*
X11490658Y-15912269D01*
X11557325Y-15864650D02*
X11633515Y-15864650D01*
X11585896Y-15797984D02*
X11585896Y-15969412D01*
X11585896Y-15969412D02*
X11595420Y-15988460D01*
X11595420Y-15988460D02*
X11614468Y-15997984D01*
X11614468Y-15997984D02*
X11633515Y-15997984D01*
X11776373Y-15988460D02*
X11757325Y-15997984D01*
X11757325Y-15997984D02*
X11719230Y-15997984D01*
X11719230Y-15997984D02*
X11700182Y-15988460D01*
X11700182Y-15988460D02*
X11690658Y-15969412D01*
X11690658Y-15969412D02*
X11690658Y-15893222D01*
X11690658Y-15893222D02*
X11700182Y-15874174D01*
X11700182Y-15874174D02*
X11719230Y-15864650D01*
X11719230Y-15864650D02*
X11757325Y-15864650D01*
X11757325Y-15864650D02*
X11776373Y-15874174D01*
X11776373Y-15874174D02*
X11785896Y-15893222D01*
X11785896Y-15893222D02*
X11785896Y-15912269D01*
X11785896Y-15912269D02*
X11690658Y-15931317D01*
X11957325Y-15997984D02*
X11957325Y-15797984D01*
X11957325Y-15988460D02*
X11938277Y-15997984D01*
X11938277Y-15997984D02*
X11900182Y-15997984D01*
X11900182Y-15997984D02*
X11881134Y-15988460D01*
X11881134Y-15988460D02*
X11871611Y-15978936D01*
X11871611Y-15978936D02*
X11862087Y-15959888D01*
X11862087Y-15959888D02*
X11862087Y-15902746D01*
X11862087Y-15902746D02*
X11871611Y-15883698D01*
X11871611Y-15883698D02*
X11881134Y-15874174D01*
X11881134Y-15874174D02*
X11900182Y-15864650D01*
X11900182Y-15864650D02*
X11938277Y-15864650D01*
X11938277Y-15864650D02*
X11957325Y-15874174D01*
X12033515Y-16074174D02*
X12043039Y-16064650D01*
X12043039Y-16064650D02*
X12062087Y-16036079D01*
X12062087Y-16036079D02*
X12071611Y-16017031D01*
X12071611Y-16017031D02*
X12081134Y-15988460D01*
X12081134Y-15988460D02*
X12090658Y-15940841D01*
X12090658Y-15940841D02*
X12090658Y-15902746D01*
X12090658Y-15902746D02*
X12081134Y-15855127D01*
X12081134Y-15855127D02*
X12071611Y-15826555D01*
X12071611Y-15826555D02*
X12062087Y-15807508D01*
X12062087Y-15807508D02*
X12043039Y-15778936D01*
X12043039Y-15778936D02*
X12033515Y-15769412D01*
M02*
