%TF.GenerationSoftware,KiCad,Pcbnew,9.0.2-9.0.2-0~ubuntu24.04.1*%
%TF.CreationDate,2025-07-21T15:48:30-04:00*%
%TF.ProjectId,digital,64696769-7461-46c2-9e6b-696361645f70,rev?*%
%TF.SameCoordinates,Original*%
%TF.FileFunction,Paste,Top*%
%TF.FilePolarity,Positive*%
%FSLAX46Y46*%
G04 Gerber Fmt 4.6, Leading zero omitted, Abs format (unit mm)*
G04 Created by KiCad (PCBNEW 9.0.2-9.0.2-0~ubuntu24.04.1) date 2025-07-21 15:48:30*
%MOMM*%
%LPD*%
G01*
G04 APERTURE LIST*
G04 Aperture macros list*
%AMRoundRect*
0 Rectangle with rounded corners*
0 $1 Rounding radius*
0 $2 $3 $4 $5 $6 $7 $8 $9 X,Y pos of 4 corners*
0 Add a 4 corners polygon primitive as box body*
4,1,4,$2,$3,$4,$5,$6,$7,$8,$9,$2,$3,0*
0 Add four circle primitives for the rounded corners*
1,1,$1+$1,$2,$3*
1,1,$1+$1,$4,$5*
1,1,$1+$1,$6,$7*
1,1,$1+$1,$8,$9*
0 Add four rect primitives between the rounded corners*
20,1,$1+$1,$2,$3,$4,$5,0*
20,1,$1+$1,$4,$5,$6,$7,0*
20,1,$1+$1,$6,$7,$8,$9,0*
20,1,$1+$1,$8,$9,$2,$3,0*%
%AMRotRect*
0 Rectangle, with rotation*
0 The origin of the aperture is its center*
0 $1 length*
0 $2 width*
0 $3 Rotation angle, in degrees counterclockwise*
0 Add horizontal line*
21,1,$1,$2,0,0,$3*%
G04 Aperture macros list end*
%ADD10RoundRect,0.150000X-0.425000X0.150000X-0.425000X-0.150000X0.425000X-0.150000X0.425000X0.150000X0*%
%ADD11RoundRect,0.075000X-0.500000X0.075000X-0.500000X-0.075000X0.500000X-0.075000X0.500000X0.075000X0*%
%ADD12O,2.100000X1.000000*%
%ADD13O,1.800000X1.000000*%
%ADD14RoundRect,0.200000X-0.142507X-0.308734X0.249807X-0.230698X0.142507X0.308734X-0.249807X0.230698X0*%
%ADD15RoundRect,0.250000X-1.295330X-0.920391X1.548947X-0.354629X1.295330X0.920391X-1.548947X0.354629X0*%
%ADD16RoundRect,0.200000X-0.117540X0.319076X-0.339768X-0.013512X0.117540X-0.319076X0.339768X0.013512X0*%
%ADD17RoundRect,0.150000X-0.308067X0.779884X0.013832X-0.838411X0.308067X-0.779884X-0.013832X0.838411X0*%
%ADD18RoundRect,0.250000X1.295330X0.920391X-1.548947X0.354629X-1.295330X-0.920391X1.548947X-0.354629X0*%
%ADD19RotRect,1.000000X1.050000X5.625000*%
%ADD20RotRect,1.050000X2.200000X5.625000*%
%ADD21RotRect,1.000000X1.050000X39.375000*%
%ADD22RotRect,1.050000X2.200000X39.375000*%
%ADD23RotRect,1.000000X1.050000X163.125000*%
%ADD24RotRect,1.050000X2.200000X163.125000*%
%ADD25RotRect,1.000000X1.050000X50.625000*%
%ADD26RotRect,1.050000X2.200000X50.625000*%
%ADD27RoundRect,0.087500X0.087500X-0.725000X0.087500X0.725000X-0.087500X0.725000X-0.087500X-0.725000X0*%
%ADD28RoundRect,0.140000X-0.140000X-0.170000X0.140000X-0.170000X0.140000X0.170000X-0.140000X0.170000X0*%
%ADD29RoundRect,0.250000X-0.325000X-0.650000X0.325000X-0.650000X0.325000X0.650000X-0.325000X0.650000X0*%
%ADD30RoundRect,0.200000X0.319076X0.117540X-0.013512X0.339768X-0.319076X-0.117540X0.013512X-0.339768X0*%
%ADD31RoundRect,0.250000X-1.346032X0.844510X0.265122X-1.566752X1.346032X-0.844510X-0.265122X1.566752X0*%
%ADD32RoundRect,0.135000X0.185000X-0.135000X0.185000X0.135000X-0.185000X0.135000X-0.185000X-0.135000X0*%
%ADD33RoundRect,0.200000X-0.339768X0.013512X-0.117540X-0.319076X0.339768X-0.013512X0.117540X0.319076X0*%
%ADD34RoundRect,0.200000X0.249807X0.230698X-0.142507X0.308734X-0.249807X-0.230698X0.142507X-0.308734X0*%
%ADD35RoundRect,0.135000X0.135000X0.185000X-0.135000X0.185000X-0.135000X-0.185000X0.135000X-0.185000X0*%
%ADD36RoundRect,0.087500X-0.087500X0.725000X-0.087500X-0.725000X0.087500X-0.725000X0.087500X0.725000X0*%
%ADD37RoundRect,0.135000X-0.185000X0.135000X-0.185000X-0.135000X0.185000X-0.135000X0.185000X0.135000X0*%
%ADD38RoundRect,0.140000X0.170000X-0.140000X0.170000X0.140000X-0.170000X0.140000X-0.170000X-0.140000X0*%
%ADD39RotRect,1.000000X1.050000X118.125000*%
%ADD40RotRect,1.050000X2.200000X118.125000*%
%ADD41RoundRect,0.250000X-0.250000X-0.475000X0.250000X-0.475000X0.250000X0.475000X-0.250000X0.475000X0*%
%ADD42RoundRect,0.200000X-0.308734X0.142507X-0.230698X-0.249807X0.308734X-0.142507X0.230698X0.249807X0*%
%ADD43RoundRect,0.250000X0.265122X1.566752X-1.346032X-0.844510X-0.265122X-1.566752X1.346032X0.844510X0*%
%ADD44RotRect,1.000000X1.050000X208.125000*%
%ADD45RotRect,1.050000X2.200000X208.125000*%
%ADD46RoundRect,0.100000X-0.637500X-0.100000X0.637500X-0.100000X0.637500X0.100000X-0.637500X0.100000X0*%
%ADD47RoundRect,0.200000X0.117540X-0.319076X0.339768X0.013512X-0.117540X0.319076X-0.339768X-0.013512X0*%
%ADD48RoundRect,0.140000X-0.170000X0.140000X-0.170000X-0.140000X0.170000X-0.140000X0.170000X0.140000X0*%
%ADD49RoundRect,0.250000X0.844510X1.346032X-1.566752X-0.265122X-0.844510X-1.346032X1.566752X0.265122X0*%
%ADD50RoundRect,0.250000X-0.844510X-1.346032X1.566752X0.265122X0.844510X1.346032X-1.566752X-0.265122X0*%
%ADD51RotRect,1.000000X1.050000X151.875000*%
%ADD52RotRect,1.050000X2.200000X151.875000*%
%ADD53RotRect,1.000000X1.050000X343.125000*%
%ADD54RotRect,1.050000X2.200000X343.125000*%
%ADD55RoundRect,0.150000X-0.583066X0.602627X0.333625X-0.769298X0.583066X-0.602627X-0.333625X0.769298X0*%
%ADD56RoundRect,0.150000X0.333625X0.769298X-0.583066X-0.602627X-0.333625X-0.769298X0.583066X0.602627X0*%
%ADD57RoundRect,0.087500X-0.725000X-0.087500X0.725000X-0.087500X0.725000X0.087500X-0.725000X0.087500X0*%
%ADD58RotRect,1.000000X1.050000X185.625000*%
%ADD59RotRect,1.050000X2.200000X185.625000*%
%ADD60RoundRect,0.250000X0.650000X-1.450000X0.650000X1.450000X-0.650000X1.450000X-0.650000X-1.450000X0*%
%ADD61RotRect,1.000000X1.050000X84.375000*%
%ADD62RotRect,1.050000X2.200000X84.375000*%
%ADD63RoundRect,0.200000X0.339768X-0.013512X0.117540X0.319076X-0.339768X0.013512X-0.117540X-0.319076X0*%
%ADD64RoundRect,0.250000X1.548947X0.354629X-1.295330X0.920391X-1.548947X-0.354629X1.295330X-0.920391X0*%
%ADD65RotRect,1.000000X1.050000X354.375000*%
%ADD66RotRect,1.050000X2.200000X354.375000*%
%ADD67RoundRect,0.250000X-0.354629X1.548947X-0.920391X-1.295330X0.354629X-1.548947X0.920391X1.295330X0*%
%ADD68RoundRect,0.100000X0.100000X-0.637500X0.100000X0.637500X-0.100000X0.637500X-0.100000X-0.637500X0*%
%ADD69RoundRect,0.200000X0.013512X0.339768X-0.319076X0.117540X-0.013512X-0.339768X0.319076X-0.117540X0*%
%ADD70RotRect,1.000000X1.050000X28.125000*%
%ADD71RotRect,1.050000X2.200000X28.125000*%
%ADD72RoundRect,0.200000X0.142507X0.308734X-0.249807X0.230698X-0.142507X-0.308734X0.249807X-0.230698X0*%
%ADD73RoundRect,0.250000X-1.548947X-0.354629X1.295330X-0.920391X1.548947X0.354629X-1.295330X0.920391X0*%
%ADD74RoundRect,0.250000X1.566752X-0.265122X-0.844510X1.346032X-1.566752X0.265122X0.844510X-1.346032X0*%
%ADD75RotRect,1.000000X1.050000X196.875000*%
%ADD76RotRect,1.050000X2.200000X196.875000*%
%ADD77RotRect,1.000000X1.050000X129.375000*%
%ADD78RotRect,1.050000X2.200000X129.375000*%
%ADD79RoundRect,0.250000X-0.920391X1.295330X-0.354629X-1.548947X0.920391X-1.295330X0.354629X1.548947X0*%
%ADD80RoundRect,0.200000X-0.319076X-0.117540X0.013512X-0.339768X0.319076X0.117540X-0.013512X0.339768X0*%
%ADD81RoundRect,0.250000X-0.650000X0.325000X-0.650000X-0.325000X0.650000X-0.325000X0.650000X0.325000X0*%
%ADD82RoundRect,0.250000X-1.566752X0.265122X0.844510X-1.346032X1.566752X-0.265122X-0.844510X1.346032X0*%
%ADD83RoundRect,0.200000X-0.013512X-0.339768X0.319076X-0.117540X0.013512X0.339768X-0.319076X0.117540X0*%
%ADD84RoundRect,0.112500X-0.112500X0.187500X-0.112500X-0.187500X0.112500X-0.187500X0.112500X0.187500X0*%
%ADD85RoundRect,0.200000X0.308734X-0.142507X0.230698X0.249807X-0.308734X0.142507X-0.230698X-0.249807X0*%
%ADD86RotRect,1.000000X1.050000X219.375000*%
%ADD87RotRect,1.050000X2.200000X219.375000*%
%ADD88RoundRect,0.200000X0.230698X-0.249807X0.308734X0.142507X-0.230698X0.249807X-0.308734X-0.142507X0*%
%ADD89RotRect,1.000000X1.050000X331.875000*%
%ADD90RotRect,1.050000X2.200000X331.875000*%
%ADD91RotRect,1.000000X1.050000X95.625000*%
%ADD92RotRect,1.050000X2.200000X95.625000*%
%ADD93RoundRect,0.150000X0.602627X0.583066X-0.769298X-0.333625X-0.602627X-0.583066X0.769298X0.333625X0*%
%ADD94RoundRect,0.150000X0.308067X-0.779884X-0.013832X0.838411X-0.308067X0.779884X0.013832X-0.838411X0*%
%ADD95RoundRect,0.200000X-0.230698X0.249807X-0.308734X-0.142507X0.230698X-0.249807X0.308734X0.142507X0*%
%ADD96RoundRect,0.150000X-0.013832X-0.838411X0.308067X0.779884X0.013832X0.838411X-0.308067X-0.779884X0*%
%ADD97RotRect,1.000000X1.050000X16.875000*%
%ADD98RotRect,1.050000X2.200000X16.875000*%
%ADD99RoundRect,0.250000X-0.650000X1.450000X-0.650000X-1.450000X0.650000X-1.450000X0.650000X1.450000X0*%
%ADD100RoundRect,0.140000X0.140000X0.170000X-0.140000X0.170000X-0.140000X-0.170000X0.140000X-0.170000X0*%
%ADD101RoundRect,0.250000X0.325000X0.650000X-0.325000X0.650000X-0.325000X-0.650000X0.325000X-0.650000X0*%
%ADD102RotRect,1.000000X1.050000X73.125000*%
%ADD103RotRect,1.050000X2.200000X73.125000*%
%ADD104RotRect,1.000000X1.050000X174.375000*%
%ADD105RotRect,1.050000X2.200000X174.375000*%
%ADD106RotRect,1.000000X1.050000X320.625000*%
%ADD107RotRect,1.050000X2.200000X320.625000*%
%ADD108RoundRect,0.135000X-0.135000X-0.185000X0.135000X-0.185000X0.135000X0.185000X-0.135000X0.185000X0*%
%ADD109RoundRect,0.150000X0.779884X0.308067X-0.838411X-0.013832X-0.779884X-0.308067X0.838411X0.013832X0*%
%ADD110RoundRect,0.100000X-0.100000X0.637500X-0.100000X-0.637500X0.100000X-0.637500X0.100000X0.637500X0*%
%ADD111RoundRect,0.150000X0.583066X-0.602627X-0.333625X0.769298X-0.583066X0.602627X0.333625X-0.769298X0*%
%ADD112RoundRect,0.200000X-0.249807X-0.230698X0.142507X-0.308734X0.249807X0.230698X-0.142507X0.308734X0*%
%ADD113RoundRect,0.150000X0.838411X-0.013832X-0.779884X0.308067X-0.838411X0.013832X0.779884X-0.308067X0*%
%ADD114RoundRect,0.150000X-0.333625X-0.769298X0.583066X0.602627X0.333625X0.769298X-0.583066X-0.602627X0*%
%ADD115RotRect,1.000000X1.050000X106.875000*%
%ADD116RotRect,1.050000X2.200000X106.875000*%
%ADD117RotRect,1.000000X1.050000X61.875000*%
%ADD118RotRect,1.050000X2.200000X61.875000*%
%ADD119RoundRect,0.150000X0.013832X0.838411X-0.308067X-0.779884X-0.013832X-0.838411X0.308067X0.779884X0*%
%ADD120RotRect,1.000000X1.050000X140.625000*%
%ADD121RotRect,1.050000X2.200000X140.625000*%
%ADD122RoundRect,0.150000X0.769298X-0.333625X-0.602627X0.583066X-0.769298X0.333625X0.602627X-0.583066X0*%
%ADD123RoundRect,0.243750X-0.456250X0.243750X-0.456250X-0.243750X0.456250X-0.243750X0.456250X0.243750X0*%
%ADD124RoundRect,0.243750X0.456250X-0.243750X0.456250X0.243750X-0.456250X0.243750X-0.456250X-0.243750X0*%
%ADD125RoundRect,0.250000X-0.475000X0.250000X-0.475000X-0.250000X0.475000X-0.250000X0.475000X0.250000X0*%
%ADD126RoundRect,0.250000X-0.970000X-0.310000X0.970000X-0.310000X0.970000X0.310000X-0.970000X0.310000X0*%
%ADD127RoundRect,0.250000X-0.435000X-0.615000X0.435000X-0.615000X0.435000X0.615000X-0.435000X0.615000X0*%
%ADD128RoundRect,0.125000X-0.250000X-0.125000X0.250000X-0.125000X0.250000X0.125000X-0.250000X0.125000X0*%
%ADD129RoundRect,0.200000X0.275000X-0.200000X0.275000X0.200000X-0.275000X0.200000X-0.275000X-0.200000X0*%
%ADD130RoundRect,0.225000X-0.250000X0.225000X-0.250000X-0.225000X0.250000X-0.225000X0.250000X0.225000X0*%
%ADD131RoundRect,0.250000X0.970000X0.310000X-0.970000X0.310000X-0.970000X-0.310000X0.970000X-0.310000X0*%
%ADD132RoundRect,0.250000X0.310000X-0.970000X0.310000X0.970000X-0.310000X0.970000X-0.310000X-0.970000X0*%
%ADD133R,1.000000X1.050000*%
%ADD134R,1.050000X2.200000*%
%ADD135RoundRect,0.050000X0.350000X-0.225000X0.350000X0.225000X-0.350000X0.225000X-0.350000X-0.225000X0*%
%ADD136RoundRect,0.150000X-0.825000X-0.150000X0.825000X-0.150000X0.825000X0.150000X-0.825000X0.150000X0*%
%ADD137RoundRect,0.150000X0.150000X-0.512500X0.150000X0.512500X-0.150000X0.512500X-0.150000X-0.512500X0*%
%ADD138RoundRect,0.250000X0.250000X0.475000X-0.250000X0.475000X-0.250000X-0.475000X0.250000X-0.475000X0*%
%ADD139RoundRect,0.250000X-0.385000X0.385000X-0.385000X-0.385000X0.385000X-0.385000X0.385000X0.385000X0*%
%ADD140RoundRect,0.087500X-0.087500X0.425000X-0.087500X-0.425000X0.087500X-0.425000X0.087500X0.425000X0*%
%ADD141RoundRect,0.087500X-0.425000X0.087500X-0.425000X-0.087500X0.425000X-0.087500X0.425000X0.087500X0*%
%ADD142R,1.600000X0.700000*%
%ADD143R,1.800000X1.200000*%
%ADD144R,2.200000X1.200000*%
%ADD145R,1.500000X1.600000*%
%ADD146RoundRect,0.250000X0.475000X-0.250000X0.475000X0.250000X-0.475000X0.250000X-0.475000X-0.250000X0*%
%ADD147RoundRect,0.243750X0.243750X0.456250X-0.243750X0.456250X-0.243750X-0.456250X0.243750X-0.456250X0*%
%ADD148R,1.400000X1.200000*%
%ADD149RoundRect,0.250000X-1.450000X-0.650000X1.450000X-0.650000X1.450000X0.650000X-1.450000X0.650000X0*%
%ADD150RoundRect,0.250000X0.650000X-0.325000X0.650000X0.325000X-0.650000X0.325000X-0.650000X-0.325000X0*%
%ADD151RoundRect,0.249999X-0.395001X-0.395001X0.395001X-0.395001X0.395001X0.395001X-0.395001X0.395001X0*%
%ADD152RoundRect,0.050000X-0.387500X-0.050000X0.387500X-0.050000X0.387500X0.050000X-0.387500X0.050000X0*%
%ADD153RoundRect,0.050000X-0.050000X-0.387500X0.050000X-0.387500X0.050000X0.387500X-0.050000X0.387500X0*%
%ADD154RoundRect,0.250000X0.925000X1.500000X-0.925000X1.500000X-0.925000X-1.500000X0.925000X-1.500000X0*%
%ADD155RoundRect,0.075000X-0.075000X0.662500X-0.075000X-0.662500X0.075000X-0.662500X0.075000X0.662500X0*%
%ADD156RoundRect,0.075000X-0.662500X0.075000X-0.662500X-0.075000X0.662500X-0.075000X0.662500X0.075000X0*%
%ADD157RoundRect,0.250000X-0.595000X-1.080000X0.595000X-1.080000X0.595000X1.080000X-0.595000X1.080000X0*%
%ADD158RoundRect,0.150000X-0.687500X-0.150000X0.687500X-0.150000X0.687500X0.150000X-0.687500X0.150000X0*%
G04 APERTURE END LIST*
D10*
%TO.C,J19*%
X60180000Y-131800000D03*
X60180000Y-132600000D03*
D11*
X60180000Y-133750000D03*
X60180000Y-134750000D03*
X60180000Y-135250000D03*
X60180000Y-136250000D03*
D10*
X60180000Y-137400000D03*
X60180000Y-138200000D03*
X60180000Y-138200000D03*
X60180000Y-137400000D03*
D11*
X60180000Y-136750000D03*
X60180000Y-135750000D03*
X60180000Y-134250000D03*
X60180000Y-133250000D03*
D10*
X60180000Y-132600000D03*
X60180000Y-131800000D03*
D12*
X59605000Y-130680000D03*
D13*
X55425000Y-130680000D03*
D12*
X59605000Y-139320000D03*
D13*
X55425000Y-139320000D03*
%TD*%
D14*
%TO.C,R107*%
X170590852Y-140860950D03*
X172209148Y-140539050D03*
%TD*%
D15*
%TO.C,TP39*%
X162500000Y-61750000D03*
%TD*%
D16*
%TO.C,R131*%
X201158345Y-120014038D03*
X200241655Y-121385962D03*
%TD*%
D17*
%TO.C,U36*%
X159385547Y-61200909D03*
X158139950Y-61448674D03*
X156894353Y-61696439D03*
X155648755Y-61944203D03*
X156614453Y-66799091D03*
X157860050Y-66551326D03*
X159105647Y-66303561D03*
X160351245Y-66055797D03*
%TD*%
D18*
%TO.C,TP12*%
X167500000Y-138250000D03*
%TD*%
D19*
%TO.C,J29*%
X169261294Y-143265656D03*
D20*
X167942873Y-144927888D03*
X170878667Y-144638738D03*
%TD*%
D21*
%TO.C,J35*%
X192580247Y-133606630D03*
D22*
X192407507Y-135721201D03*
X194687887Y-133849741D03*
%TD*%
D23*
%TO.C,J34*%
X177620128Y-58397019D03*
D24*
X179474299Y-57365855D03*
X176651325Y-56509515D03*
%TD*%
D25*
%TO.C,J37*%
X198606629Y-127580249D03*
D26*
X198849740Y-129687889D03*
X200721200Y-127407509D03*
%TD*%
D27*
%TO.C,U23*%
X152000000Y-74112500D03*
X152500000Y-74112500D03*
X153000000Y-74112500D03*
X153500000Y-74112500D03*
X154000000Y-74112500D03*
X154000000Y-69887500D03*
X153500000Y-69887500D03*
X153000000Y-69887500D03*
X152500000Y-69887500D03*
X152000000Y-69887500D03*
%TD*%
D28*
%TO.C,C113*%
X189620000Y-120000000D03*
X190580000Y-120000000D03*
%TD*%
%TO.C,C85*%
X189770000Y-110000000D03*
X190730000Y-110000000D03*
%TD*%
D29*
%TO.C,C20*%
X137025000Y-113500000D03*
X139975000Y-113500000D03*
%TD*%
D30*
%TO.C,R108*%
X189871924Y-67058345D03*
X188500000Y-66141655D03*
%TD*%
D31*
%TO.C,TP30*%
X193750000Y-74750000D03*
%TD*%
D32*
%TO.C,R91*%
X183500000Y-126500000D03*
X183500000Y-125480000D03*
%TD*%
%TO.C,R93*%
X171500000Y-131520000D03*
X171500000Y-130500000D03*
%TD*%
D33*
%TO.C,R104*%
X197241655Y-74114038D03*
X198158345Y-75485962D03*
%TD*%
D34*
%TO.C,R103*%
X160609148Y-141060950D03*
X158990852Y-140739050D03*
%TD*%
D35*
%TO.C,R113*%
X191510000Y-117500000D03*
X190490000Y-117500000D03*
%TD*%
D36*
%TO.C,U16*%
X178000000Y-125887500D03*
X177500000Y-125887500D03*
X177000000Y-125887500D03*
X176500000Y-125887500D03*
X176000000Y-125887500D03*
X176000000Y-130112500D03*
X176500000Y-130112500D03*
X177000000Y-130112500D03*
X177500000Y-130112500D03*
X178000000Y-130112500D03*
%TD*%
D35*
%TO.C,R105*%
X191510000Y-81500000D03*
X190490000Y-81500000D03*
%TD*%
%TO.C,R110*%
X196500000Y-94500000D03*
X195480000Y-94500000D03*
%TD*%
D28*
%TO.C,C102*%
X178020000Y-96000000D03*
X178980000Y-96000000D03*
%TD*%
D37*
%TO.C,R123*%
X158500000Y-68490000D03*
X158500000Y-69510000D03*
%TD*%
D38*
%TO.C,C99*%
X169000000Y-110980000D03*
X169000000Y-110020000D03*
%TD*%
D35*
%TO.C,R111*%
X196510000Y-105500000D03*
X195490000Y-105500000D03*
%TD*%
D39*
%TO.C,J26*%
X203341528Y-79506028D03*
D40*
X205381768Y-80087982D03*
X203991148Y-77486314D03*
%TD*%
D41*
%TO.C,C112*%
X197100000Y-100000000D03*
X199000000Y-100000000D03*
%TD*%
D42*
%TO.C,R97*%
X204639050Y-88590852D03*
X204960950Y-90209148D03*
%TD*%
D43*
%TO.C,TP20*%
X199250000Y-117000000D03*
%TD*%
D38*
%TO.C,C114*%
X160500000Y-68780000D03*
X160500000Y-67820000D03*
%TD*%
D28*
%TO.C,C13*%
X138020000Y-111000000D03*
X138980000Y-111000000D03*
%TD*%
D44*
%TO.C,J42*%
X144506028Y-61658472D03*
D45*
X145087982Y-59618232D03*
X142486314Y-61008852D03*
%TD*%
D46*
%TO.C,U29*%
X174137500Y-97075000D03*
X174137500Y-97725000D03*
X174137500Y-98375000D03*
X174137500Y-99025000D03*
X174137500Y-99675000D03*
X174137500Y-100325000D03*
X174137500Y-100975000D03*
X174137500Y-101625000D03*
X174137500Y-102275000D03*
X174137500Y-102925000D03*
X179862500Y-102925000D03*
X179862500Y-102275000D03*
X179862500Y-101625000D03*
X179862500Y-100975000D03*
X179862500Y-100325000D03*
X179862500Y-99675000D03*
X179862500Y-99025000D03*
X179862500Y-98375000D03*
X179862500Y-97725000D03*
X179862500Y-97075000D03*
%TD*%
D47*
%TO.C,R124*%
X197941655Y-124885962D03*
X198858345Y-123514038D03*
%TD*%
D48*
%TO.C,C80*%
X179000000Y-124770000D03*
X179000000Y-125730000D03*
%TD*%
D29*
%TO.C,C91*%
X174525000Y-77000000D03*
X177475000Y-77000000D03*
%TD*%
D32*
%TO.C,R94*%
X170500000Y-131520000D03*
X170500000Y-130500000D03*
%TD*%
D48*
%TO.C,C98*%
X169000000Y-113020000D03*
X169000000Y-113980000D03*
%TD*%
D49*
%TO.C,TP15*%
X182000000Y-134250000D03*
%TD*%
D37*
%TO.C,R129*%
X182500000Y-73490000D03*
X182500000Y-74510000D03*
%TD*%
%TO.C,R130*%
X183500000Y-73490000D03*
X183500000Y-74510000D03*
%TD*%
D50*
%TO.C,TP41*%
X148000000Y-65500000D03*
%TD*%
D14*
%TO.C,R132*%
X153590852Y-60360950D03*
X155209148Y-60039050D03*
%TD*%
D51*
%TO.C,J32*%
X185493974Y-61658474D03*
D52*
X187513688Y-61008854D03*
X184912020Y-59618234D03*
%TD*%
D36*
%TO.C,U15*%
X154000000Y-125887500D03*
X153500000Y-125887500D03*
X153000000Y-125887500D03*
X152500000Y-125887500D03*
X152000000Y-125887500D03*
X152000000Y-130112500D03*
X152500000Y-130112500D03*
X153000000Y-130112500D03*
X153500000Y-130112500D03*
X154000000Y-130112500D03*
%TD*%
D27*
%TO.C,U21*%
X176000000Y-74112500D03*
X176500000Y-74112500D03*
X177000000Y-74112500D03*
X177500000Y-74112500D03*
X178000000Y-74112500D03*
X178000000Y-69887500D03*
X177500000Y-69887500D03*
X177000000Y-69887500D03*
X176500000Y-69887500D03*
X176000000Y-69887500D03*
%TD*%
D48*
%TO.C,C106*%
X169300000Y-131220000D03*
X169300000Y-132180000D03*
%TD*%
D53*
%TO.C,J25*%
X152379872Y-141602981D03*
D54*
X150525701Y-142634145D03*
X153348675Y-143490485D03*
%TD*%
D55*
%TO.C,U38*%
X144708913Y-66383751D03*
X143652947Y-67089326D03*
X142596980Y-67794900D03*
X141541014Y-68500474D03*
X144291087Y-72616249D03*
X145347053Y-71910674D03*
X146403020Y-71205100D03*
X147458986Y-70499526D03*
%TD*%
D56*
%TO.C,U31*%
X188458986Y-68500474D03*
X187403020Y-67794900D03*
X186347053Y-67089326D03*
X185291087Y-66383751D03*
X182541014Y-70499526D03*
X183596980Y-71205100D03*
X184652947Y-71910674D03*
X185708913Y-72616249D03*
%TD*%
D57*
%TO.C,U18*%
X190887500Y-111000000D03*
X190887500Y-111500000D03*
X190887500Y-112000000D03*
X190887500Y-112500000D03*
X190887500Y-113000000D03*
X195112500Y-113000000D03*
X195112500Y-112500000D03*
X195112500Y-112000000D03*
X195112500Y-111500000D03*
X195112500Y-111000000D03*
%TD*%
D35*
%TO.C,R106*%
X191510000Y-82500000D03*
X190490000Y-82500000D03*
%TD*%
D58*
%TO.C,J38*%
X160738706Y-56734344D03*
D59*
X162057127Y-55072112D03*
X159121333Y-55361262D03*
%TD*%
D35*
%TO.C,R112*%
X196510000Y-106500000D03*
X195490000Y-106500000D03*
%TD*%
D60*
%TO.C,TP4*%
X181000000Y-115000000D03*
%TD*%
D61*
%TO.C,J43*%
X208265656Y-104261297D03*
D62*
X209638738Y-105878670D03*
X209927888Y-102942876D03*
%TD*%
D37*
%TO.C,R122*%
X147500000Y-73490000D03*
X147500000Y-74510000D03*
%TD*%
D63*
%TO.C,R102*%
X200558345Y-78985962D03*
X199641655Y-77614038D03*
%TD*%
D64*
%TO.C,TP10*%
X162500000Y-138250000D03*
%TD*%
D48*
%TO.C,C104*%
X156800000Y-130440000D03*
X156800000Y-131400000D03*
%TD*%
D65*
%TO.C,J27*%
X160738703Y-143265656D03*
D66*
X159121330Y-144638738D03*
X162057124Y-144927888D03*
%TD*%
D67*
%TO.C,TP21*%
X201500000Y-112250000D03*
%TD*%
D68*
%TO.C,U34*%
X162075000Y-90862500D03*
X162725000Y-90862500D03*
X163375000Y-90862500D03*
X164025000Y-90862500D03*
X164675000Y-90862500D03*
X165325000Y-90862500D03*
X165975000Y-90862500D03*
X166625000Y-90862500D03*
X167275000Y-90862500D03*
X167925000Y-90862500D03*
X167925000Y-85137500D03*
X167275000Y-85137500D03*
X166625000Y-85137500D03*
X165975000Y-85137500D03*
X165325000Y-85137500D03*
X164675000Y-85137500D03*
X164025000Y-85137500D03*
X163375000Y-85137500D03*
X162725000Y-85137500D03*
X162075000Y-85137500D03*
%TD*%
D35*
%TO.C,R116*%
X191510000Y-118500000D03*
X190490000Y-118500000D03*
%TD*%
D38*
%TO.C,C17*%
X131600000Y-86980000D03*
X131600000Y-86020000D03*
%TD*%
D69*
%TO.C,R119*%
X190885962Y-132241655D03*
X189514038Y-133158345D03*
%TD*%
D28*
%TO.C,C21*%
X138020000Y-100000000D03*
X138980000Y-100000000D03*
%TD*%
D32*
%TO.C,R99*%
X147500000Y-126500000D03*
X147500000Y-125480000D03*
%TD*%
D70*
%TO.C,J33*%
X185493972Y-138341528D03*
D71*
X184912018Y-140381768D03*
X187513686Y-138991148D03*
%TD*%
D48*
%TO.C,C19*%
X133500000Y-113020000D03*
X133500000Y-113980000D03*
%TD*%
D37*
%TO.C,R128*%
X171500000Y-68490000D03*
X171500000Y-69510000D03*
%TD*%
D72*
%TO.C,R114*%
X176409148Y-139639050D03*
X174790852Y-139960950D03*
%TD*%
D28*
%TO.C,C3*%
X140720000Y-101400000D03*
X141680000Y-101400000D03*
%TD*%
D38*
%TO.C,C92*%
X175000000Y-75230000D03*
X175000000Y-74270000D03*
%TD*%
D32*
%TO.C,R100*%
X146500000Y-126500000D03*
X146500000Y-125480000D03*
%TD*%
D73*
%TO.C,TP37*%
X167500000Y-61750000D03*
%TD*%
D74*
%TO.C,TP8*%
X148000000Y-134500000D03*
%TD*%
D75*
%TO.C,J40*%
X152379875Y-58397018D03*
D76*
X153348678Y-56509514D03*
X150525704Y-57365854D03*
%TD*%
D77*
%TO.C,J28*%
X198606630Y-72419753D03*
D78*
X200721201Y-72592493D03*
X198849741Y-70312113D03*
%TD*%
D32*
%TO.C,R95*%
X159500000Y-131520000D03*
X159500000Y-130500000D03*
%TD*%
D79*
%TO.C,TP28*%
X201500000Y-87750000D03*
%TD*%
D67*
%TO.C,TP22*%
X203250000Y-102500000D03*
%TD*%
D48*
%TO.C,C109*%
X161000000Y-89020000D03*
X161000000Y-89980000D03*
%TD*%
D38*
%TO.C,C97*%
X151000000Y-75250000D03*
X151000000Y-74290000D03*
%TD*%
D80*
%TO.C,R89*%
X140114038Y-132941655D03*
X141485962Y-133858345D03*
%TD*%
D81*
%TO.C,C84*%
X188000000Y-109525000D03*
X188000000Y-112475000D03*
%TD*%
D74*
%TO.C,TP7*%
X139500000Y-128900000D03*
%TD*%
D28*
%TO.C,C5*%
X138020000Y-97500000D03*
X138980000Y-97500000D03*
%TD*%
%TO.C,C89*%
X189770000Y-86000000D03*
X190730000Y-86000000D03*
%TD*%
D32*
%TO.C,R92*%
X182500000Y-126500000D03*
X182500000Y-125480000D03*
%TD*%
D82*
%TO.C,TP33*%
X182000000Y-65500000D03*
%TD*%
D32*
%TO.C,R98*%
X158500000Y-131520000D03*
X158500000Y-130500000D03*
%TD*%
D83*
%TO.C,R117*%
X186114038Y-135458345D03*
X187485962Y-134541655D03*
%TD*%
D48*
%TO.C,C77*%
X155000000Y-124770000D03*
X155000000Y-125730000D03*
%TD*%
D73*
%TO.C,TP35*%
X177250000Y-63500000D03*
%TD*%
D38*
%TO.C,C108*%
X161000000Y-86980000D03*
X161000000Y-86020000D03*
%TD*%
D84*
%TO.C,D7*%
X135000000Y-112950000D03*
X135000000Y-115050000D03*
%TD*%
D85*
%TO.C,R90*%
X205860950Y-94309148D03*
X205539050Y-92690852D03*
%TD*%
D35*
%TO.C,R109*%
X196500000Y-93500000D03*
X195480000Y-93500000D03*
%TD*%
D37*
%TO.C,R127*%
X170500000Y-68490000D03*
X170500000Y-69510000D03*
%TD*%
D86*
%TO.C,J44*%
X137419753Y-66393370D03*
D87*
X137592493Y-64278799D03*
X135312113Y-66150259D03*
%TD*%
D50*
%TO.C,TP42*%
X139500000Y-71500000D03*
%TD*%
D28*
%TO.C,C101*%
X196220000Y-95700000D03*
X197180000Y-95700000D03*
%TD*%
%TO.C,C105*%
X192020000Y-83500000D03*
X192980000Y-83500000D03*
%TD*%
D88*
%TO.C,R133*%
X204939050Y-110209148D03*
X205260950Y-108590852D03*
%TD*%
D89*
%TO.C,J23*%
X144506026Y-138341526D03*
D90*
X142486312Y-138991146D03*
X145087980Y-140381766D03*
%TD*%
D91*
%TO.C,J22*%
X208265656Y-95738706D03*
D92*
X209927888Y-97057127D03*
X209638738Y-94121333D03*
%TD*%
D93*
%TO.C,U28*%
X198616249Y-79708913D03*
X197910674Y-78652947D03*
X197205100Y-77596980D03*
X196499526Y-76541014D03*
X192383751Y-79291087D03*
X193089326Y-80347053D03*
X193794900Y-81403020D03*
X194500474Y-82458986D03*
%TD*%
D94*
%TO.C,U30*%
X170614453Y-138799091D03*
X171860050Y-138551326D03*
X173105647Y-138303561D03*
X174351245Y-138055797D03*
X173385547Y-133200909D03*
X172139950Y-133448674D03*
X170894353Y-133696439D03*
X169648755Y-133944203D03*
%TD*%
D95*
%TO.C,R135*%
X206060950Y-104390852D03*
X205739050Y-106009148D03*
%TD*%
D38*
%TO.C,C107*%
X185000000Y-75400000D03*
X185000000Y-74440000D03*
%TD*%
D96*
%TO.C,U27*%
X155648755Y-138055797D03*
X156894353Y-138303561D03*
X158139950Y-138551326D03*
X159385547Y-138799091D03*
X160351245Y-133944203D03*
X159105647Y-133696439D03*
X157860050Y-133448674D03*
X156614453Y-133200909D03*
%TD*%
D28*
%TO.C,C115*%
X195440000Y-108200000D03*
X196400000Y-108200000D03*
%TD*%
D80*
%TO.C,R115*%
X185014038Y-63841655D03*
X186385962Y-64758345D03*
%TD*%
D37*
%TO.C,R126*%
X159500000Y-68490000D03*
X159500000Y-69510000D03*
%TD*%
D97*
%TO.C,J31*%
X177620125Y-141602982D03*
D98*
X176651322Y-143490486D03*
X179474296Y-142634146D03*
%TD*%
D99*
%TO.C,TP24*%
X181000000Y-85000000D03*
%TD*%
D100*
%TO.C,C103*%
X175980000Y-96000000D03*
X175020000Y-96000000D03*
%TD*%
D37*
%TO.C,R121*%
X146500000Y-73490000D03*
X146500000Y-74510000D03*
%TD*%
D15*
%TO.C,TP40*%
X152750000Y-63500000D03*
%TD*%
D18*
%TO.C,TP13*%
X177000000Y-136250000D03*
%TD*%
D72*
%TO.C,R125*%
X159409148Y-59139050D03*
X157790852Y-59460950D03*
%TD*%
D81*
%TO.C,C88*%
X188000000Y-87525000D03*
X188000000Y-90475000D03*
%TD*%
D29*
%TO.C,C96*%
X152525000Y-77000000D03*
X155475000Y-77000000D03*
%TD*%
D83*
%TO.C,R136*%
X139014038Y-67758345D03*
X140385962Y-66841655D03*
%TD*%
D101*
%TO.C,C79*%
X177475000Y-123000000D03*
X174525000Y-123000000D03*
%TD*%
D31*
%TO.C,TP29*%
X199250000Y-83000000D03*
%TD*%
D64*
%TO.C,TP9*%
X152750000Y-136250000D03*
%TD*%
D102*
%TO.C,J41*%
X206602981Y-112620128D03*
D103*
X207634145Y-114474299D03*
X208490485Y-111651325D03*
%TD*%
D57*
%TO.C,U20*%
X190887500Y-87000000D03*
X190887500Y-87500000D03*
X190887500Y-88000000D03*
X190887500Y-88500000D03*
X190887500Y-89000000D03*
X195112500Y-89000000D03*
X195112500Y-88500000D03*
X195112500Y-88000000D03*
X195112500Y-87500000D03*
X195112500Y-87000000D03*
%TD*%
D104*
%TO.C,J36*%
X169261297Y-56734344D03*
D105*
X170878670Y-55361262D03*
X167942876Y-55072112D03*
%TD*%
D106*
%TO.C,J21*%
X137419751Y-133606629D03*
D107*
X135312111Y-133849740D03*
X137592491Y-135721200D03*
%TD*%
D108*
%TO.C,R20*%
X137990000Y-99000000D03*
X139010000Y-99000000D03*
%TD*%
D49*
%TO.C,TP17*%
X190250000Y-128750000D03*
%TD*%
D109*
%TO.C,U26*%
X203799091Y-94385547D03*
X203551326Y-93139950D03*
X203303561Y-91894353D03*
X203055797Y-90648755D03*
X198200909Y-91614453D03*
X198448674Y-92860050D03*
X198696439Y-94105647D03*
X198944203Y-95351245D03*
%TD*%
D110*
%TO.C,U24*%
X167925000Y-109137500D03*
X167275000Y-109137500D03*
X166625000Y-109137500D03*
X165975000Y-109137500D03*
X165325000Y-109137500D03*
X164675000Y-109137500D03*
X164025000Y-109137500D03*
X163375000Y-109137500D03*
X162725000Y-109137500D03*
X162075000Y-109137500D03*
X162075000Y-114862500D03*
X162725000Y-114862500D03*
X163375000Y-114862500D03*
X164025000Y-114862500D03*
X164675000Y-114862500D03*
X165325000Y-114862500D03*
X165975000Y-114862500D03*
X166625000Y-114862500D03*
X167275000Y-114862500D03*
X167925000Y-114862500D03*
%TD*%
D111*
%TO.C,U32*%
X185291087Y-133616249D03*
X186347053Y-132910674D03*
X187403020Y-132205100D03*
X188458986Y-131499526D03*
X185708913Y-127383751D03*
X184652947Y-128089326D03*
X183596980Y-128794900D03*
X182541014Y-129500474D03*
%TD*%
D79*
%TO.C,TP26*%
X203250000Y-97500000D03*
%TD*%
D43*
%TO.C,TP19*%
X193750000Y-125250000D03*
%TD*%
D48*
%TO.C,C110*%
X181500000Y-126920000D03*
X181500000Y-127880000D03*
%TD*%
D101*
%TO.C,C18*%
X139975000Y-86500000D03*
X137025000Y-86500000D03*
%TD*%
%TO.C,C76*%
X155475000Y-123000000D03*
X152525000Y-123000000D03*
%TD*%
D112*
%TO.C,R120*%
X169390852Y-58939050D03*
X171009148Y-59260950D03*
%TD*%
D34*
%TO.C,R118*%
X175109148Y-60060950D03*
X173490852Y-59739050D03*
%TD*%
D113*
%TO.C,U37*%
X203055797Y-109351245D03*
X203303561Y-108105647D03*
X203551326Y-106860050D03*
X203799091Y-105614453D03*
X198944203Y-104648755D03*
X198696439Y-105894353D03*
X198448674Y-107139950D03*
X198200909Y-108385547D03*
%TD*%
D38*
%TO.C,C116*%
X148500000Y-72980000D03*
X148500000Y-72020000D03*
%TD*%
D114*
%TO.C,U25*%
X141541014Y-131499526D03*
X142596980Y-132205100D03*
X143652947Y-132910674D03*
X144708913Y-133616249D03*
X147458986Y-129500474D03*
X146403020Y-128794900D03*
X145347053Y-128089326D03*
X144291087Y-127383751D03*
%TD*%
D112*
%TO.C,R101*%
X154890852Y-139939050D03*
X156509148Y-140260950D03*
%TD*%
D115*
%TO.C,J24*%
X206602982Y-87379875D03*
D116*
X208490486Y-88348678D03*
X207634146Y-85525704D03*
%TD*%
D38*
%TO.C,C111*%
X173200000Y-69500000D03*
X173200000Y-68540000D03*
%TD*%
D117*
%TO.C,J39*%
X203341526Y-120493974D03*
D118*
X203991146Y-122513688D03*
X205381766Y-119912020D03*
%TD*%
D48*
%TO.C,C100*%
X145000000Y-124620000D03*
X145000000Y-125580000D03*
%TD*%
D119*
%TO.C,U33*%
X174351245Y-61944203D03*
X173105647Y-61696439D03*
X171860050Y-61448674D03*
X170614453Y-61200909D03*
X169648755Y-66055797D03*
X170894353Y-66303561D03*
X172139950Y-66551326D03*
X173385547Y-66799091D03*
%TD*%
D120*
%TO.C,J30*%
X192580249Y-66393371D03*
D121*
X194687889Y-66150260D03*
X192407509Y-64278800D03*
%TD*%
D30*
%TO.C,R96*%
X145085962Y-136258345D03*
X143714038Y-135341655D03*
%TD*%
D69*
%TO.C,R134*%
X143885962Y-64541655D03*
X142514038Y-65458345D03*
%TD*%
D82*
%TO.C,TP32*%
X190250000Y-71250000D03*
%TD*%
D122*
%TO.C,U35*%
X196499526Y-123458986D03*
X197205100Y-122403020D03*
X197910674Y-121347053D03*
X198616249Y-120291087D03*
X194500474Y-117541014D03*
X193794900Y-118596980D03*
X193089326Y-119652947D03*
X192383751Y-120708913D03*
%TD*%
D10*
%TO.C,J20*%
X60180000Y-61800000D03*
X60180000Y-62600000D03*
D11*
X60180000Y-63750000D03*
X60180000Y-64750000D03*
X60180000Y-65250000D03*
X60180000Y-66250000D03*
D10*
X60180000Y-67400000D03*
X60180000Y-68200000D03*
X60180000Y-68200000D03*
X60180000Y-67400000D03*
D11*
X60180000Y-66750000D03*
X60180000Y-65750000D03*
X60180000Y-64250000D03*
X60180000Y-63250000D03*
D10*
X60180000Y-62600000D03*
X60180000Y-61800000D03*
D12*
X59605000Y-60680000D03*
D13*
X55425000Y-60680000D03*
D12*
X59605000Y-69320000D03*
D13*
X55425000Y-69320000D03*
%TD*%
D123*
%TO.C,D26*%
X111020000Y-60812500D03*
X111020000Y-62687500D03*
%TD*%
D32*
%TO.C,R56*%
X77500000Y-135510000D03*
X77500000Y-134490000D03*
%TD*%
%TO.C,R28*%
X88800000Y-101560000D03*
X88800000Y-100540000D03*
%TD*%
D124*
%TO.C,D30*%
X102000000Y-77062500D03*
X102000000Y-75187500D03*
%TD*%
D48*
%TO.C,C81*%
X102000000Y-136020000D03*
X102000000Y-136980000D03*
%TD*%
D123*
%TO.C,D36*%
X98020000Y-60812500D03*
X98020000Y-62687500D03*
%TD*%
D35*
%TO.C,R64*%
X114410000Y-73750000D03*
X113390000Y-73750000D03*
%TD*%
D123*
%TO.C,D35*%
X100020000Y-60812500D03*
X100020000Y-62687500D03*
%TD*%
D125*
%TO.C,C95*%
X111500000Y-124050000D03*
X111500000Y-125950000D03*
%TD*%
D124*
%TO.C,D33*%
X96000000Y-77062500D03*
X96000000Y-75187500D03*
%TD*%
D35*
%TO.C,R83*%
X96510000Y-73750000D03*
X95490000Y-73750000D03*
%TD*%
D28*
%TO.C,C55*%
X61520000Y-118500000D03*
X62480000Y-118500000D03*
%TD*%
D123*
%TO.C,D19*%
X117920000Y-60812500D03*
X117920000Y-62687500D03*
%TD*%
D48*
%TO.C,C12*%
X125500000Y-113020000D03*
X125500000Y-113980000D03*
%TD*%
%TO.C,C4*%
X124500000Y-113020000D03*
X124500000Y-113980000D03*
%TD*%
D126*
%TO.C,SW1*%
X79695000Y-132560000D03*
X79695000Y-135100000D03*
X79695000Y-137640000D03*
X88305000Y-137640000D03*
X88305000Y-135100000D03*
X88305000Y-132560000D03*
%TD*%
D28*
%TO.C,C36*%
X70770000Y-101300000D03*
X71730000Y-101300000D03*
%TD*%
D127*
%TO.C,U3*%
X80600000Y-82200000D03*
X80600000Y-84350000D03*
X82300000Y-82200000D03*
X82300000Y-84350000D03*
D128*
X78750000Y-81370000D03*
X78750000Y-82640000D03*
X78750000Y-83910000D03*
X78750000Y-85180000D03*
X84150000Y-85180000D03*
X84150000Y-83910000D03*
X84150000Y-82640000D03*
X84150000Y-81370000D03*
%TD*%
D35*
%TO.C,R81*%
X100510000Y-73750000D03*
X99490000Y-73750000D03*
%TD*%
D41*
%TO.C,C47*%
X90750000Y-126790000D03*
X92650000Y-126790000D03*
%TD*%
D35*
%TO.C,R46*%
X76410000Y-112500000D03*
X75390000Y-112500000D03*
%TD*%
%TO.C,R72*%
X107500000Y-73750000D03*
X106480000Y-73750000D03*
%TD*%
D129*
%TO.C,R43*%
X64500000Y-115825000D03*
X64500000Y-114175000D03*
%TD*%
D35*
%TO.C,R18*%
X129510000Y-73700000D03*
X128490000Y-73700000D03*
%TD*%
D48*
%TO.C,C59*%
X77400000Y-114520000D03*
X77400000Y-115480000D03*
%TD*%
%TO.C,C24*%
X86900000Y-100570000D03*
X86900000Y-101530000D03*
%TD*%
D35*
%TO.C,R38*%
X67310000Y-113500000D03*
X66290000Y-113500000D03*
%TD*%
D130*
%TO.C,C64*%
X75000000Y-119125000D03*
X75000000Y-120675000D03*
%TD*%
D108*
%TO.C,R12*%
X126490000Y-64200000D03*
X127510000Y-64200000D03*
%TD*%
D131*
%TO.C,SW6*%
X106305000Y-118540000D03*
X106305000Y-116000000D03*
X106305000Y-113460000D03*
X97695000Y-113460000D03*
X97695000Y-116000000D03*
X97695000Y-118540000D03*
%TD*%
D132*
%TO.C,SW3*%
X114960000Y-143805000D03*
X117500000Y-143805000D03*
X120040000Y-143805000D03*
X120040000Y-135195000D03*
X117500000Y-135195000D03*
X114960000Y-135195000D03*
%TD*%
D133*
%TO.C,J8*%
X105000000Y-90025000D03*
D134*
X106475000Y-88500000D03*
X103525000Y-88500000D03*
%TD*%
D125*
%TO.C,C68*%
X121500000Y-68050000D03*
X121500000Y-69950000D03*
%TD*%
D133*
%TO.C,J4*%
X126500000Y-115975000D03*
D134*
X125025000Y-117500000D03*
X127975000Y-117500000D03*
%TD*%
D108*
%TO.C,R34*%
X110990000Y-109250000D03*
X112010000Y-109250000D03*
%TD*%
D100*
%TO.C,C44*%
X67280000Y-112500000D03*
X66320000Y-112500000D03*
%TD*%
D135*
%TO.C,D10*%
X62000000Y-132425000D03*
X62000000Y-131175000D03*
%TD*%
D48*
%TO.C,C31*%
X85900000Y-100570000D03*
X85900000Y-101530000D03*
%TD*%
D136*
%TO.C,U17*%
X104025000Y-134595000D03*
X104025000Y-135865000D03*
X104025000Y-137135000D03*
X104025000Y-138405000D03*
X108975000Y-138405000D03*
X108975000Y-137135000D03*
X108975000Y-135865000D03*
X108975000Y-134595000D03*
%TD*%
D123*
%TO.C,D27*%
X109020000Y-60812500D03*
X109020000Y-62687500D03*
%TD*%
D130*
%TO.C,C58*%
X58000000Y-119125000D03*
X58000000Y-120675000D03*
%TD*%
D125*
%TO.C,C94*%
X100500000Y-124050000D03*
X100500000Y-125950000D03*
%TD*%
D124*
%TO.C,D16*%
X115900000Y-77062500D03*
X115900000Y-75187500D03*
%TD*%
D132*
%TO.C,SW5*%
X114960000Y-131805000D03*
X117500000Y-131805000D03*
X120040000Y-131805000D03*
X120040000Y-123195000D03*
X117500000Y-123195000D03*
X114960000Y-123195000D03*
%TD*%
D101*
%TO.C,C16*%
X112975000Y-86500000D03*
X110025000Y-86500000D03*
%TD*%
D100*
%TO.C,C62*%
X76380000Y-111500000D03*
X75420000Y-111500000D03*
%TD*%
D48*
%TO.C,C6*%
X129520000Y-113040000D03*
X129520000Y-114000000D03*
%TD*%
D137*
%TO.C,U5*%
X69550000Y-116137500D03*
X70500000Y-116137500D03*
X71450000Y-116137500D03*
X71450000Y-113862500D03*
X70500000Y-113862500D03*
X69550000Y-113862500D03*
%TD*%
D133*
%TO.C,J5*%
X99000000Y-83525000D03*
D134*
X100475000Y-82000000D03*
X97525000Y-82000000D03*
%TD*%
D136*
%TO.C,U14*%
X104025000Y-140595000D03*
X104025000Y-141865000D03*
X104025000Y-143135000D03*
X104025000Y-144405000D03*
X108975000Y-144405000D03*
X108975000Y-143135000D03*
X108975000Y-141865000D03*
X108975000Y-140595000D03*
%TD*%
D35*
%TO.C,R16*%
X127510000Y-73700000D03*
X126490000Y-73700000D03*
%TD*%
D108*
%TO.C,R66*%
X117400000Y-64250000D03*
X118420000Y-64250000D03*
%TD*%
D38*
%TO.C,C33*%
X88000000Y-89000000D03*
X88000000Y-88040000D03*
%TD*%
D108*
%TO.C,R74*%
X110490000Y-64250000D03*
X111510000Y-64250000D03*
%TD*%
D101*
%TO.C,C2*%
X112975000Y-113500000D03*
X110025000Y-113500000D03*
%TD*%
D108*
%TO.C,R22*%
X78490000Y-93400000D03*
X79510000Y-93400000D03*
%TD*%
D35*
%TO.C,R62*%
X118390000Y-73750000D03*
X117370000Y-73750000D03*
%TD*%
D108*
%TO.C,R65*%
X119390000Y-64250000D03*
X120410000Y-64250000D03*
%TD*%
D138*
%TO.C,C66*%
X63950000Y-129650000D03*
X62050000Y-129650000D03*
%TD*%
D38*
%TO.C,C34*%
X89000000Y-88980000D03*
X89000000Y-88020000D03*
%TD*%
D139*
%TO.C,U7*%
X87580000Y-114210000D03*
X86000000Y-114210000D03*
X87580000Y-115790000D03*
X86000000Y-115790000D03*
D140*
X88090000Y-112637500D03*
X87440000Y-112637500D03*
X86790000Y-112637500D03*
X86140000Y-112637500D03*
X85490000Y-112637500D03*
D141*
X84427500Y-113700000D03*
X84427500Y-114350000D03*
X84427500Y-115000000D03*
X84427500Y-115650000D03*
X84427500Y-116300000D03*
D140*
X85490000Y-117362500D03*
X86140000Y-117362500D03*
X86790000Y-117362500D03*
X87440000Y-117362500D03*
X88090000Y-117362500D03*
D141*
X89152500Y-116300000D03*
X89152500Y-115650000D03*
X89152500Y-115000000D03*
X89152500Y-114350000D03*
X89152500Y-113700000D03*
%TD*%
D37*
%TO.C,R26*%
X87000000Y-87990000D03*
X87000000Y-89010000D03*
%TD*%
D28*
%TO.C,C28*%
X91040000Y-95800000D03*
X92000000Y-95800000D03*
%TD*%
D48*
%TO.C,C51*%
X59800000Y-114520000D03*
X59800000Y-115480000D03*
%TD*%
D38*
%TO.C,C32*%
X84150000Y-80055000D03*
X84150000Y-79095000D03*
%TD*%
D124*
%TO.C,D22*%
X111000000Y-77062500D03*
X111000000Y-75187500D03*
%TD*%
D100*
%TO.C,C26*%
X79480000Y-91400000D03*
X78520000Y-91400000D03*
%TD*%
D108*
%TO.C,R31*%
X111000000Y-105750000D03*
X112020000Y-105750000D03*
%TD*%
D142*
%TO.C,J16*%
X67750000Y-103250000D03*
X67750000Y-102150000D03*
X67750000Y-101050000D03*
X67750000Y-99950000D03*
X67750000Y-98850000D03*
X67750000Y-97750000D03*
X67750000Y-96650000D03*
X67750000Y-95550000D03*
X67750000Y-94450000D03*
D143*
X66450000Y-93250000D03*
D144*
X57150000Y-93250000D03*
D145*
X66700000Y-107850000D03*
D144*
X57150000Y-108750000D03*
%TD*%
D100*
%TO.C,C56*%
X58780000Y-112500000D03*
X57820000Y-112500000D03*
%TD*%
D132*
%TO.C,SW4*%
X124960000Y-131805000D03*
X127500000Y-131805000D03*
X130040000Y-131805000D03*
X130040000Y-123195000D03*
X127500000Y-123195000D03*
X124960000Y-123195000D03*
%TD*%
D130*
%TO.C,C45*%
X67000000Y-119125000D03*
X67000000Y-120675000D03*
%TD*%
%TO.C,C46*%
X65500000Y-119125000D03*
X65500000Y-120675000D03*
%TD*%
D133*
%TO.C,J9*%
X105000000Y-96525000D03*
D134*
X106475000Y-95000000D03*
X103525000Y-95000000D03*
%TD*%
D129*
%TO.C,R47*%
X82100000Y-115825000D03*
X82100000Y-114175000D03*
%TD*%
D108*
%TO.C,R84*%
X101490000Y-64250000D03*
X102510000Y-64250000D03*
%TD*%
D68*
%TO.C,U2*%
X123075000Y-71862500D03*
X123725000Y-71862500D03*
X124375000Y-71862500D03*
X125025000Y-71862500D03*
X125675000Y-71862500D03*
X126325000Y-71862500D03*
X126975000Y-71862500D03*
X127625000Y-71862500D03*
X128275000Y-71862500D03*
X128925000Y-71862500D03*
X128925000Y-66137500D03*
X128275000Y-66137500D03*
X127625000Y-66137500D03*
X126975000Y-66137500D03*
X126325000Y-66137500D03*
X125675000Y-66137500D03*
X125025000Y-66137500D03*
X124375000Y-66137500D03*
X123725000Y-66137500D03*
X123075000Y-66137500D03*
%TD*%
D123*
%TO.C,D2*%
X125000000Y-60762500D03*
X125000000Y-62637500D03*
%TD*%
D32*
%TO.C,R1*%
X118500000Y-114010000D03*
X118500000Y-112990000D03*
%TD*%
%TO.C,R2*%
X119500000Y-114010000D03*
X119500000Y-112990000D03*
%TD*%
D146*
%TO.C,C10*%
X130500000Y-69950000D03*
X130500000Y-68050000D03*
%TD*%
D147*
%TO.C,D13*%
X65137500Y-61500000D03*
X63262500Y-61500000D03*
%TD*%
D29*
%TO.C,C65*%
X64000000Y-139700000D03*
X66950000Y-139700000D03*
%TD*%
D38*
%TO.C,C1*%
X119100000Y-86980000D03*
X119100000Y-86020000D03*
%TD*%
D48*
%TO.C,C39*%
X82200000Y-103620000D03*
X82200000Y-104580000D03*
%TD*%
D136*
%TO.C,U22*%
X104025000Y-122595000D03*
X104025000Y-123865000D03*
X104025000Y-125135000D03*
X104025000Y-126405000D03*
X108975000Y-126405000D03*
X108975000Y-125135000D03*
X108975000Y-123865000D03*
X108975000Y-122595000D03*
%TD*%
D123*
%TO.C,D4*%
X129000000Y-60762500D03*
X129000000Y-62637500D03*
%TD*%
D125*
%TO.C,C82*%
X100500000Y-136050000D03*
X100500000Y-137950000D03*
%TD*%
D32*
%TO.C,R45*%
X58800000Y-115500000D03*
X58800000Y-114480000D03*
%TD*%
D148*
%TO.C,Y1*%
X83700000Y-104900000D03*
X85900000Y-104900000D03*
X85900000Y-103300000D03*
X83700000Y-103300000D03*
%TD*%
D100*
%TO.C,C27*%
X79480000Y-96000000D03*
X78520000Y-96000000D03*
%TD*%
D124*
%TO.C,D24*%
X107000000Y-77062500D03*
X107000000Y-75187500D03*
%TD*%
D35*
%TO.C,R59*%
X63010000Y-63500000D03*
X61990000Y-63500000D03*
%TD*%
D149*
%TO.C,TP44*%
X98400000Y-109700000D03*
%TD*%
D35*
%TO.C,R82*%
X98510000Y-73750000D03*
X97490000Y-73750000D03*
%TD*%
D108*
%TO.C,R7*%
X111000000Y-101750000D03*
X112020000Y-101750000D03*
%TD*%
D139*
%TO.C,U6*%
X87580000Y-124210000D03*
X86000000Y-124210000D03*
X87580000Y-125790000D03*
X86000000Y-125790000D03*
D140*
X88090000Y-122637500D03*
X87440000Y-122637500D03*
X86790000Y-122637500D03*
X86140000Y-122637500D03*
X85490000Y-122637500D03*
D141*
X84427500Y-123700000D03*
X84427500Y-124350000D03*
X84427500Y-125000000D03*
X84427500Y-125650000D03*
X84427500Y-126300000D03*
D140*
X85490000Y-127362500D03*
X86140000Y-127362500D03*
X86790000Y-127362500D03*
X87440000Y-127362500D03*
X88090000Y-127362500D03*
D141*
X89152500Y-126300000D03*
X89152500Y-125650000D03*
X89152500Y-125000000D03*
X89152500Y-124350000D03*
X89152500Y-123700000D03*
%TD*%
D150*
%TO.C,C37*%
X71250000Y-81725000D03*
X71250000Y-78775000D03*
%TD*%
D108*
%TO.C,R75*%
X108500000Y-64250000D03*
X109520000Y-64250000D03*
%TD*%
D100*
%TO.C,C8*%
X111980000Y-110250000D03*
X111020000Y-110250000D03*
%TD*%
D137*
%TO.C,U8*%
X61050000Y-116137500D03*
X62000000Y-116137500D03*
X62950000Y-116137500D03*
X62950000Y-113862500D03*
X62000000Y-113862500D03*
X61050000Y-113862500D03*
%TD*%
D100*
%TO.C,C22*%
X111980000Y-99750000D03*
X111020000Y-99750000D03*
%TD*%
D37*
%TO.C,R51*%
X74500000Y-130500000D03*
X74500000Y-131520000D03*
%TD*%
D108*
%TO.C,R11*%
X124490000Y-64200000D03*
X125510000Y-64200000D03*
%TD*%
D35*
%TO.C,R48*%
X76410000Y-113500000D03*
X75390000Y-113500000D03*
%TD*%
D108*
%TO.C,R23*%
X78490000Y-92400000D03*
X79510000Y-92400000D03*
%TD*%
D124*
%TO.C,D17*%
X113900000Y-77062500D03*
X113900000Y-75187500D03*
%TD*%
D130*
%TO.C,C57*%
X56500000Y-119125000D03*
X56500000Y-120675000D03*
%TD*%
D133*
%TO.C,J7*%
X98900000Y-96525000D03*
D134*
X100375000Y-95000000D03*
X97425000Y-95000000D03*
%TD*%
D133*
%TO.C,J6*%
X99000000Y-90025000D03*
D134*
X100475000Y-88500000D03*
X97525000Y-88500000D03*
%TD*%
D132*
%TO.C,SW2*%
X124960000Y-143805000D03*
X127500000Y-143805000D03*
X130040000Y-143805000D03*
X130040000Y-135195000D03*
X127500000Y-135195000D03*
X124960000Y-135195000D03*
%TD*%
D108*
%TO.C,R6*%
X110990000Y-97750000D03*
X112010000Y-97750000D03*
%TD*%
D28*
%TO.C,C11*%
X121020000Y-66400000D03*
X121980000Y-66400000D03*
%TD*%
D32*
%TO.C,R88*%
X94500000Y-76635000D03*
X94500000Y-75615000D03*
%TD*%
D108*
%TO.C,R8*%
X110990000Y-96750000D03*
X112010000Y-96750000D03*
%TD*%
D29*
%TO.C,C49*%
X90825000Y-122790000D03*
X93775000Y-122790000D03*
%TD*%
D35*
%TO.C,R15*%
X125510000Y-73700000D03*
X124490000Y-73700000D03*
%TD*%
D48*
%TO.C,C93*%
X102000000Y-124020000D03*
X102000000Y-124980000D03*
%TD*%
D125*
%TO.C,C72*%
X103500000Y-68175000D03*
X103500000Y-70075000D03*
%TD*%
D108*
%TO.C,R5*%
X110990000Y-92250000D03*
X112010000Y-92250000D03*
%TD*%
%TO.C,R67*%
X115410000Y-64250000D03*
X116430000Y-64250000D03*
%TD*%
D32*
%TO.C,R4*%
X126500000Y-114010000D03*
X126500000Y-112990000D03*
%TD*%
D28*
%TO.C,C29*%
X91020000Y-91500000D03*
X91980000Y-91500000D03*
%TD*%
D124*
%TO.C,D14*%
X119900000Y-77062500D03*
X119900000Y-75187500D03*
%TD*%
D28*
%TO.C,C61*%
X79120000Y-118500000D03*
X80080000Y-118500000D03*
%TD*%
D151*
%TO.C,U4*%
X84500000Y-94000000D03*
X84500000Y-95600000D03*
X86100000Y-94000000D03*
X86100000Y-95600000D03*
D152*
X81862500Y-92200000D03*
X81862500Y-92600000D03*
X81862500Y-93000000D03*
X81862500Y-93400000D03*
X81862500Y-93800000D03*
X81862500Y-94200000D03*
X81862500Y-94600000D03*
X81862500Y-95000000D03*
X81862500Y-95400000D03*
X81862500Y-95800000D03*
X81862500Y-96200000D03*
X81862500Y-96600000D03*
X81862500Y-97000000D03*
X81862500Y-97400000D03*
D153*
X82700000Y-98237500D03*
X83100000Y-98237500D03*
X83500000Y-98237500D03*
X83900000Y-98237500D03*
X84300000Y-98237500D03*
X84700000Y-98237500D03*
X85100000Y-98237500D03*
X85500000Y-98237500D03*
X85900000Y-98237500D03*
X86300000Y-98237500D03*
X86700000Y-98237500D03*
X87100000Y-98237500D03*
X87500000Y-98237500D03*
X87900000Y-98237500D03*
D152*
X88737500Y-97400000D03*
X88737500Y-97000000D03*
X88737500Y-96600000D03*
X88737500Y-96200000D03*
X88737500Y-95800000D03*
X88737500Y-95400000D03*
X88737500Y-95000000D03*
X88737500Y-94600000D03*
X88737500Y-94200000D03*
X88737500Y-93800000D03*
X88737500Y-93400000D03*
X88737500Y-93000000D03*
X88737500Y-92600000D03*
X88737500Y-92200000D03*
D153*
X87900000Y-91362500D03*
X87500000Y-91362500D03*
X87100000Y-91362500D03*
X86700000Y-91362500D03*
X86300000Y-91362500D03*
X85900000Y-91362500D03*
X85500000Y-91362500D03*
X85100000Y-91362500D03*
X84700000Y-91362500D03*
X84300000Y-91362500D03*
X83900000Y-91362500D03*
X83500000Y-91362500D03*
X83100000Y-91362500D03*
X82700000Y-91362500D03*
%TD*%
D125*
%TO.C,C70*%
X112500000Y-68175000D03*
X112500000Y-70075000D03*
%TD*%
D110*
%TO.C,U11*%
X119925000Y-66137500D03*
X119275000Y-66137500D03*
X118625000Y-66137500D03*
X117975000Y-66137500D03*
X117325000Y-66137500D03*
X116675000Y-66137500D03*
X116025000Y-66137500D03*
X115375000Y-66137500D03*
X114725000Y-66137500D03*
X114075000Y-66137500D03*
X114075000Y-71862500D03*
X114725000Y-71862500D03*
X115375000Y-71862500D03*
X116025000Y-71862500D03*
X116675000Y-71862500D03*
X117325000Y-71862500D03*
X117975000Y-71862500D03*
X118625000Y-71862500D03*
X119275000Y-71862500D03*
X119925000Y-71862500D03*
%TD*%
D108*
%TO.C,R85*%
X99470000Y-64250000D03*
X100490000Y-64250000D03*
%TD*%
D124*
%TO.C,D12*%
X73000000Y-133937500D03*
X73000000Y-132062500D03*
%TD*%
D101*
%TO.C,C42*%
X71975000Y-120200000D03*
X69025000Y-120200000D03*
%TD*%
D32*
%TO.C,R37*%
X84900000Y-101560000D03*
X84900000Y-100540000D03*
%TD*%
D124*
%TO.C,D15*%
X117900000Y-77062500D03*
X117900000Y-75187500D03*
%TD*%
D37*
%TO.C,R58*%
X61937500Y-60990000D03*
X61937500Y-62010000D03*
%TD*%
D100*
%TO.C,C73*%
X104000000Y-71625000D03*
X103040000Y-71625000D03*
%TD*%
D35*
%TO.C,R42*%
X58810000Y-113500000D03*
X57790000Y-113500000D03*
%TD*%
%TO.C,R73*%
X105510000Y-73750000D03*
X104490000Y-73750000D03*
%TD*%
D123*
%TO.C,D28*%
X107020000Y-60812500D03*
X107020000Y-62687500D03*
%TD*%
D138*
%TO.C,C52*%
X87450000Y-129190000D03*
X85550000Y-129190000D03*
%TD*%
D108*
%TO.C,R53*%
X75490000Y-130500000D03*
X76510000Y-130500000D03*
%TD*%
D48*
%TO.C,C74*%
X102000000Y-142040000D03*
X102000000Y-143000000D03*
%TD*%
D38*
%TO.C,C25*%
X84000000Y-88980000D03*
X84000000Y-88020000D03*
%TD*%
D129*
%TO.C,R39*%
X73000000Y-115825000D03*
X73000000Y-114175000D03*
%TD*%
D29*
%TO.C,C50*%
X90777500Y-112700000D03*
X93727500Y-112700000D03*
%TD*%
D125*
%TO.C,C78*%
X111500000Y-142050000D03*
X111500000Y-143950000D03*
%TD*%
D124*
%TO.C,D23*%
X109000000Y-77062500D03*
X109000000Y-75187500D03*
%TD*%
D100*
%TO.C,C71*%
X112980000Y-71625000D03*
X112020000Y-71625000D03*
%TD*%
D32*
%TO.C,R40*%
X66290000Y-115500000D03*
X66290000Y-114480000D03*
%TD*%
D124*
%TO.C,D11*%
X76000000Y-133937500D03*
X76000000Y-132062500D03*
%TD*%
D123*
%TO.C,D37*%
X96020000Y-60812500D03*
X96020000Y-62687500D03*
%TD*%
D32*
%TO.C,R69*%
X112450000Y-76635000D03*
X112450000Y-75615000D03*
%TD*%
D35*
%TO.C,R14*%
X123510000Y-73700000D03*
X122490000Y-73700000D03*
%TD*%
D37*
%TO.C,R35*%
X69750000Y-75240000D03*
X69750000Y-76260000D03*
%TD*%
D124*
%TO.C,D25*%
X105000000Y-77062500D03*
X105000000Y-75187500D03*
%TD*%
D137*
%TO.C,U9*%
X78650000Y-116137500D03*
X79600000Y-116137500D03*
X80550000Y-116137500D03*
X80550000Y-113862500D03*
X79600000Y-113862500D03*
X78650000Y-113862500D03*
%TD*%
D138*
%TO.C,C53*%
X87502500Y-119200000D03*
X85602500Y-119200000D03*
%TD*%
D28*
%TO.C,C43*%
X70040000Y-118500000D03*
X71000000Y-118500000D03*
%TD*%
D37*
%TO.C,R32*%
X69750000Y-93470000D03*
X69750000Y-94490000D03*
%TD*%
D38*
%TO.C,C30*%
X85000000Y-88980000D03*
X85000000Y-88020000D03*
%TD*%
D108*
%TO.C,R9*%
X110990000Y-100750000D03*
X112010000Y-100750000D03*
%TD*%
D130*
%TO.C,C63*%
X76500000Y-119125000D03*
X76500000Y-120675000D03*
%TD*%
D108*
%TO.C,R54*%
X72490000Y-130500000D03*
X73510000Y-130500000D03*
%TD*%
D32*
%TO.C,R78*%
X103500000Y-76635000D03*
X103500000Y-75615000D03*
%TD*%
D108*
%TO.C,R10*%
X122490000Y-64200000D03*
X123510000Y-64200000D03*
%TD*%
D124*
%TO.C,D31*%
X100000000Y-77062500D03*
X100000000Y-75187500D03*
%TD*%
D35*
%TO.C,R17*%
X108750000Y-97500000D03*
X107730000Y-97500000D03*
%TD*%
D108*
%TO.C,R3*%
X110990000Y-91250000D03*
X112010000Y-91250000D03*
%TD*%
D123*
%TO.C,D1*%
X123000000Y-60762500D03*
X123000000Y-62637500D03*
%TD*%
D154*
%TO.C,L2*%
X63025000Y-125000000D03*
X56975000Y-125000000D03*
%TD*%
D35*
%TO.C,R21*%
X79760000Y-79975000D03*
X78740000Y-79975000D03*
%TD*%
D124*
%TO.C,D32*%
X98000000Y-77062500D03*
X98000000Y-75187500D03*
%TD*%
D123*
%TO.C,D3*%
X127000000Y-60762500D03*
X127000000Y-62637500D03*
%TD*%
D35*
%TO.C,R80*%
X102510000Y-73750000D03*
X101490000Y-73750000D03*
%TD*%
%TO.C,R63*%
X116400000Y-73750000D03*
X115380000Y-73750000D03*
%TD*%
D32*
%TO.C,R36*%
X70750000Y-76250000D03*
X70750000Y-75230000D03*
%TD*%
D125*
%TO.C,C75*%
X100500000Y-142050000D03*
X100500000Y-143950000D03*
%TD*%
D100*
%TO.C,C7*%
X111980000Y-102750000D03*
X111020000Y-102750000D03*
%TD*%
D108*
%TO.C,R87*%
X95490000Y-64250000D03*
X96510000Y-64250000D03*
%TD*%
D32*
%TO.C,R44*%
X57800000Y-115500000D03*
X57800000Y-114480000D03*
%TD*%
D154*
%TO.C,L1*%
X72025000Y-125000000D03*
X65975000Y-125000000D03*
%TD*%
D108*
%TO.C,R77*%
X104490000Y-64250000D03*
X105510000Y-64250000D03*
%TD*%
D123*
%TO.C,D20*%
X115920000Y-60812500D03*
X115920000Y-62687500D03*
%TD*%
D32*
%TO.C,R49*%
X76400000Y-115510000D03*
X76400000Y-114490000D03*
%TD*%
D101*
%TO.C,C54*%
X63475000Y-120200000D03*
X60525000Y-120200000D03*
%TD*%
D32*
%TO.C,R50*%
X75400000Y-115510000D03*
X75400000Y-114490000D03*
%TD*%
D155*
%TO.C,U1*%
X133750000Y-89337500D03*
X133250000Y-89337500D03*
X132750000Y-89337500D03*
X132250000Y-89337500D03*
X131750000Y-89337500D03*
X131250000Y-89337500D03*
X130750000Y-89337500D03*
X130250000Y-89337500D03*
X129750000Y-89337500D03*
X129250000Y-89337500D03*
X128750000Y-89337500D03*
X128250000Y-89337500D03*
X127750000Y-89337500D03*
X127250000Y-89337500D03*
X126750000Y-89337500D03*
X126250000Y-89337500D03*
X125750000Y-89337500D03*
X125250000Y-89337500D03*
X124750000Y-89337500D03*
X124250000Y-89337500D03*
X123750000Y-89337500D03*
X123250000Y-89337500D03*
X122750000Y-89337500D03*
X122250000Y-89337500D03*
X121750000Y-89337500D03*
X121250000Y-89337500D03*
X120750000Y-89337500D03*
X120250000Y-89337500D03*
X119750000Y-89337500D03*
X119250000Y-89337500D03*
X118750000Y-89337500D03*
X118250000Y-89337500D03*
X117750000Y-89337500D03*
X117250000Y-89337500D03*
X116750000Y-89337500D03*
X116250000Y-89337500D03*
D156*
X114337500Y-91250000D03*
X114337500Y-91750000D03*
X114337500Y-92250000D03*
X114337500Y-92750000D03*
X114337500Y-93250000D03*
X114337500Y-93750000D03*
X114337500Y-94250000D03*
X114337500Y-94750000D03*
X114337500Y-95250000D03*
X114337500Y-95750000D03*
X114337500Y-96250000D03*
X114337500Y-96750000D03*
X114337500Y-97250000D03*
X114337500Y-97750000D03*
X114337500Y-98250000D03*
X114337500Y-98750000D03*
X114337500Y-99250000D03*
X114337500Y-99750000D03*
X114337500Y-100250000D03*
X114337500Y-100750000D03*
X114337500Y-101250000D03*
X114337500Y-101750000D03*
X114337500Y-102250000D03*
X114337500Y-102750000D03*
X114337500Y-103250000D03*
X114337500Y-103750000D03*
X114337500Y-104250000D03*
X114337500Y-104750000D03*
X114337500Y-105250000D03*
X114337500Y-105750000D03*
X114337500Y-106250000D03*
X114337500Y-106750000D03*
X114337500Y-107250000D03*
X114337500Y-107750000D03*
X114337500Y-108250000D03*
X114337500Y-108750000D03*
D155*
X116250000Y-110662500D03*
X116750000Y-110662500D03*
X117250000Y-110662500D03*
X117750000Y-110662500D03*
X118250000Y-110662500D03*
X118750000Y-110662500D03*
X119250000Y-110662500D03*
X119750000Y-110662500D03*
X120250000Y-110662500D03*
X120750000Y-110662500D03*
X121250000Y-110662500D03*
X121750000Y-110662500D03*
X122250000Y-110662500D03*
X122750000Y-110662500D03*
X123250000Y-110662500D03*
X123750000Y-110662500D03*
X124250000Y-110662500D03*
X124750000Y-110662500D03*
X125250000Y-110662500D03*
X125750000Y-110662500D03*
X126250000Y-110662500D03*
X126750000Y-110662500D03*
X127250000Y-110662500D03*
X127750000Y-110662500D03*
X128250000Y-110662500D03*
X128750000Y-110662500D03*
X129250000Y-110662500D03*
X129750000Y-110662500D03*
X130250000Y-110662500D03*
X130750000Y-110662500D03*
X131250000Y-110662500D03*
X131750000Y-110662500D03*
X132250000Y-110662500D03*
X132750000Y-110662500D03*
X133250000Y-110662500D03*
X133750000Y-110662500D03*
D156*
X135662500Y-108750000D03*
X135662500Y-108250000D03*
X135662500Y-107750000D03*
X135662500Y-107250000D03*
X135662500Y-106750000D03*
X135662500Y-106250000D03*
X135662500Y-105750000D03*
X135662500Y-105250000D03*
X135662500Y-104750000D03*
X135662500Y-104250000D03*
X135662500Y-103750000D03*
X135662500Y-103250000D03*
X135662500Y-102750000D03*
X135662500Y-102250000D03*
X135662500Y-101750000D03*
X135662500Y-101250000D03*
X135662500Y-100750000D03*
X135662500Y-100250000D03*
X135662500Y-99750000D03*
X135662500Y-99250000D03*
X135662500Y-98750000D03*
X135662500Y-98250000D03*
X135662500Y-97750000D03*
X135662500Y-97250000D03*
X135662500Y-96750000D03*
X135662500Y-96250000D03*
X135662500Y-95750000D03*
X135662500Y-95250000D03*
X135662500Y-94750000D03*
X135662500Y-94250000D03*
X135662500Y-93750000D03*
X135662500Y-93250000D03*
X135662500Y-92750000D03*
X135662500Y-92250000D03*
X135662500Y-91750000D03*
X135662500Y-91250000D03*
%TD*%
D123*
%TO.C,D18*%
X119920000Y-60812500D03*
X119920000Y-62687500D03*
%TD*%
D157*
%TO.C,U10*%
X68000000Y-135000000D03*
D158*
X65362500Y-133000000D03*
X65362500Y-134000000D03*
X65362500Y-135000000D03*
X65362500Y-136000000D03*
X65362500Y-137000000D03*
X70637500Y-137000000D03*
X70637500Y-136000000D03*
X70637500Y-135000000D03*
X70637500Y-134000000D03*
X70637500Y-133000000D03*
%TD*%
D35*
%TO.C,R27*%
X79760000Y-78975000D03*
X78740000Y-78975000D03*
%TD*%
D37*
%TO.C,R25*%
X85990000Y-87990000D03*
X85990000Y-89010000D03*
%TD*%
D110*
%TO.C,U12*%
X110925000Y-66137500D03*
X110275000Y-66137500D03*
X109625000Y-66137500D03*
X108975000Y-66137500D03*
X108325000Y-66137500D03*
X107675000Y-66137500D03*
X107025000Y-66137500D03*
X106375000Y-66137500D03*
X105725000Y-66137500D03*
X105075000Y-66137500D03*
X105075000Y-71862500D03*
X105725000Y-71862500D03*
X106375000Y-71862500D03*
X107025000Y-71862500D03*
X107675000Y-71862500D03*
X108325000Y-71862500D03*
X108975000Y-71862500D03*
X109625000Y-71862500D03*
X110275000Y-71862500D03*
X110925000Y-71862500D03*
%TD*%
D125*
%TO.C,C83*%
X111500000Y-136050000D03*
X111500000Y-137950000D03*
%TD*%
%TO.C,C90*%
X111500000Y-130050000D03*
X111500000Y-131950000D03*
%TD*%
D124*
%TO.C,D5*%
X123000000Y-76937500D03*
X123000000Y-75062500D03*
%TD*%
D133*
%TO.C,J1*%
X116475000Y-115975000D03*
D134*
X115000000Y-117500000D03*
X117950000Y-117500000D03*
%TD*%
D124*
%TO.C,D6*%
X125000000Y-76937500D03*
X125000000Y-75062500D03*
%TD*%
D101*
%TO.C,C60*%
X81075000Y-120200000D03*
X78125000Y-120200000D03*
%TD*%
D123*
%TO.C,D34*%
X102020000Y-60812500D03*
X102020000Y-62687500D03*
%TD*%
%TO.C,D21*%
X113920000Y-60812500D03*
X113920000Y-62687500D03*
%TD*%
D108*
%TO.C,R60*%
X61990000Y-67000000D03*
X63010000Y-67000000D03*
%TD*%
D133*
%TO.C,J2*%
X121500000Y-115975000D03*
D134*
X120025000Y-117500000D03*
X122975000Y-117500000D03*
%TD*%
D48*
%TO.C,C41*%
X68300000Y-114520000D03*
X68300000Y-115480000D03*
%TD*%
D100*
%TO.C,C69*%
X121980000Y-71625000D03*
X121020000Y-71625000D03*
%TD*%
D35*
%TO.C,R71*%
X109510000Y-73750000D03*
X108490000Y-73750000D03*
%TD*%
D100*
%TO.C,C9*%
X111980000Y-95750000D03*
X111020000Y-95750000D03*
%TD*%
D108*
%TO.C,R76*%
X106510000Y-64250000D03*
X107530000Y-64250000D03*
%TD*%
D32*
%TO.C,R29*%
X83550000Y-101550000D03*
X83550000Y-100530000D03*
%TD*%
%TO.C,R19*%
X121500000Y-76520000D03*
X121500000Y-75500000D03*
%TD*%
D136*
%TO.C,U19*%
X104025000Y-128595000D03*
X104025000Y-129865000D03*
X104025000Y-131135000D03*
X104025000Y-132405000D03*
X108975000Y-132405000D03*
X108975000Y-131135000D03*
X108975000Y-129865000D03*
X108975000Y-128595000D03*
%TD*%
D28*
%TO.C,C38*%
X70770000Y-83050000D03*
X71730000Y-83050000D03*
%TD*%
D150*
%TO.C,C35*%
X71250000Y-99975000D03*
X71250000Y-97025000D03*
%TD*%
D124*
%TO.C,D8*%
X127000000Y-76937500D03*
X127000000Y-75062500D03*
%TD*%
D35*
%TO.C,R61*%
X120380000Y-73750000D03*
X119360000Y-73750000D03*
%TD*%
D32*
%TO.C,R41*%
X67300000Y-115500000D03*
X67300000Y-114480000D03*
%TD*%
D108*
%TO.C,R52*%
X64500000Y-131500000D03*
X65520000Y-131500000D03*
%TD*%
D100*
%TO.C,C14*%
X111980000Y-93250000D03*
X111020000Y-93250000D03*
%TD*%
D108*
%TO.C,R86*%
X97490000Y-64250000D03*
X98510000Y-64250000D03*
%TD*%
D110*
%TO.C,U13*%
X101925000Y-66137500D03*
X101275000Y-66137500D03*
X100625000Y-66137500D03*
X99975000Y-66137500D03*
X99325000Y-66137500D03*
X98675000Y-66137500D03*
X98025000Y-66137500D03*
X97375000Y-66137500D03*
X96725000Y-66137500D03*
X96075000Y-66137500D03*
X96075000Y-71862500D03*
X96725000Y-71862500D03*
X97375000Y-71862500D03*
X98025000Y-71862500D03*
X98675000Y-71862500D03*
X99325000Y-71862500D03*
X99975000Y-71862500D03*
X100625000Y-71862500D03*
X101275000Y-71862500D03*
X101925000Y-71862500D03*
%TD*%
D48*
%TO.C,C86*%
X102000000Y-130020000D03*
X102000000Y-130980000D03*
%TD*%
D124*
%TO.C,D9*%
X129000000Y-76937500D03*
X129000000Y-75062500D03*
%TD*%
D37*
%TO.C,R24*%
X91500000Y-103580000D03*
X91500000Y-104600000D03*
%TD*%
D32*
%TO.C,R55*%
X77500000Y-133020000D03*
X77500000Y-132000000D03*
%TD*%
%TO.C,R33*%
X70750000Y-94500000D03*
X70750000Y-93480000D03*
%TD*%
D125*
%TO.C,C87*%
X100500000Y-130050000D03*
X100500000Y-131950000D03*
%TD*%
D108*
%TO.C,R68*%
X113480000Y-64250000D03*
X114500000Y-64250000D03*
%TD*%
D154*
%TO.C,L3*%
X80925000Y-125000000D03*
X74875000Y-125000000D03*
%TD*%
D35*
%TO.C,R70*%
X111510000Y-73750000D03*
X110490000Y-73750000D03*
%TD*%
D38*
%TO.C,C40*%
X87400000Y-104560000D03*
X87400000Y-103600000D03*
%TD*%
D32*
%TO.C,R30*%
X82550000Y-101570000D03*
X82550000Y-100550000D03*
%TD*%
D41*
%TO.C,C67*%
X67050000Y-131000000D03*
X68950000Y-131000000D03*
%TD*%
%TO.C,C48*%
X90702500Y-116700000D03*
X92602500Y-116700000D03*
%TD*%
D32*
%TO.C,R57*%
X77500000Y-138010000D03*
X77500000Y-136990000D03*
%TD*%
D133*
%TO.C,J3*%
X105000000Y-83525000D03*
D134*
X106475000Y-82000000D03*
X103525000Y-82000000D03*
%TD*%
D29*
%TO.C,C23*%
X106525000Y-99300000D03*
X109475000Y-99300000D03*
%TD*%
D142*
%TO.C,J18*%
X67750000Y-85250000D03*
X67750000Y-84150000D03*
X67750000Y-83050000D03*
X67750000Y-81950000D03*
X67750000Y-80850000D03*
X67750000Y-79750000D03*
X67750000Y-78650000D03*
X67750000Y-77550000D03*
X67750000Y-76450000D03*
D143*
X66450000Y-75250000D03*
D144*
X57150000Y-75250000D03*
D145*
X66700000Y-89850000D03*
D144*
X57150000Y-90750000D03*
%TD*%
D108*
%TO.C,R13*%
X128490000Y-64200000D03*
X129510000Y-64200000D03*
%TD*%
D123*
%TO.C,D29*%
X105020000Y-60812500D03*
X105020000Y-62687500D03*
%TD*%
D38*
%TO.C,C15*%
X120900000Y-86980000D03*
X120900000Y-86020000D03*
%TD*%
M02*
